<?xml version="1.0" encoding="UTF-8"?><svg id="Calque_2" xmlns="http://www.w3.org/2000/svg" viewBox="0 0 373.99 373.99"><defs><style>.cls-1{fill:#fff;}.cls-2{fill:#cd4c55;}</style></defs><g id="Calque_1-2"><rect class="cls-1" width="373.99" height="373.99" rx="53.81" ry="53.81"/><path class="cls-2" d="m223.21,34.26c1.44-3.24,1.92-6.71,2.41-10.17,1-1.5,1.03-3.01,0-4.51.09-2.97-1.38-5.77-.92-8.78,2.31-.13,4.48-.44,4.49-3.52,1.85-.3,2.54,1.01,2.89,2.36.66,2.55,1.09,5.16,1.61,7.74,0,1.51,0,3.01,0,4.52-.06.23-.13.46-.22.68-1.59-.17-2.94.12-3.04,2.05-.09,1.61,0,3.22,2.31,3.09,1.03,1.45,1.19.49,1.77-.46,1.39-2.28,2.16-4.88,3.86-7.03.75-.95,1.42-1.66,2.57-1.93.45,2.91,2.41,3.69,5.02,3.55.49.98-.42,1.49-.75,2.2-4.52.13-5.02.88-3.49,5.25-.25.92-.5,1.83-.75,2.75-.27,3.31.68,4.36,2.87,2.81,2.32-1.63,4.36-3.78,6.39-5.77,1.81-1.78,3.59-2.73,5.51-1.01.66.59,1.25,1.11,2.16,1.15.03,1.13-.6,1.82-1.54,2.3-2.25,1-4.48,2.04-5.91,4.2-2.53,2.44-6.08,4.47-7.28,7.45-1.13,2.78,2.49,5.52,3.86,8.34,2.59,5.35,3.07,11.06,4.14,16.69.21,1.1.6,1.43,1.53,1.5,1.96.97,3.91.97,5.86,0,1.22,0,2.45.01,3.67.02.35,4.38,2.5,2.55,4.49,1.3.45.52.91,1.05,1.36,1.57.26.44.53.88.79,1.31-1.06,1.7-.8,3.19.7,4.49,1.79.08,2.98,1.38,4.4,2.2,1.47,1.11,2.94,1.11,4.4,0,0-.27.02-.54.03-.81,2.68,1.21,5.37,2.42,8.05,3.63.98.49,1.96.97,2.94,1.46,1.22.49,2.45.99,3.67,1.48.98.49,1.96.97,2.94,1.46.97.32,1.94.64,2.91.96,1.03,1.05,2.4,1.45,3.7,1.99.24.07.47.13.71.2,1.01,1.06,2.18,1.67,3.7,1.27.49,0,.98,0,1.47,0,.83.75,1.83.96,2.9.94.28,1.17.55,2.34.83,3.5.01,3.69.03,7.38.04,11.07.05,1.99-.67,4.04.52,5.92-.35.91-.88,1.78-.59,2.83-.01,1.01-.03,2.01-.04,3.02-1.42.56-2.46,1.34-2.19,3.14.26,1.69,1.36,2.04,2.8,2,.08.24.16.49.24.73,0,2.43-.02,4.87-.02,7.3,0,1.5.01,3,.02,4.5-.34,10.52.99,20.98,1.19,31.47.16,8.6,1.45,17.17.77,25.78-1.75-.24-2.59.86-2.65,2.28-.1,2.18,1.36,3.22,3.38,3.55.08,2.45.16,4.89.24,7.34-.69,1.85.81,3.38.73,5.14v8.07c-.48,1.82.12,3.48.73,5.14-.6,10.3,1.18,20.54.73,30.83-.29,1.33-.24,2.59.73,3.67,0,1.47,0,2.94.01,4.4,0,.48-.02.97-.03,1.45,0,1.23,0,2.45,0,3.68,0,2.94,0,5.88,0,8.82,0,3.69-.01,7.38-.02,11.07,0,.46.02.92.02,1.38,0,1.49-.01,2.98-.02,4.47-.08,2.44-.15,4.87-.23,7.31-1.92-.1-2.93.75-2.8,2.73.08,1.28.22,2.55,2.07,1.68,0,4.16,0,8.31,0,12.47-1.77-.09-3.1.69-3.4,2.39-.21,1.22-.91,2.93,1.21,3.48-.17,1.17-.95,1.51-2,1.5-1.98-.26-3.96-1.73-5.96-.03-2.37.78-2.54,2.32-1.48,4.29-5.63,1.96-11.26,3.91-16.89,5.87-1.17-.8-2.26-2.43-3.68-1.94-2.26.77-4.59,1.13-6.85,1.77-1.11.31-1.38,1.89-.48,3.11-1.19,1.35-3.11.48-4.41,1.46-.95-.52-1.87-1.08-2.85-1.54-3.05-1.42-6.34.44-6.68,3.75-3.18.81-6.36,1.63-9.54,2.44-2.44.49-4.89.98-7.33,1.48-5.84,1.18-11.67,2.49-17.55,3.44-1.26.2-2.4,1.08-3.75.71.22-1.81-.36-3.34-2.32-3.37-2.57-.04-3.5,1.75-3.55,4.11-6.69,1.06-13.32,2.53-20.1,3.09-.66.05-1.28.54-1.92.82-2.01-.41-3.94.05-5.87.49.22-1.81-.36-3.34-2.32-3.37-2.57-.04-3.5,1.75-3.55,4.11-1.47.33-2.94.65-4.4.98-7.54,1.17-15.06,2.46-22.62,3.47-3.26.43-6.58.36-9.68,1.67-5.72,0-11.28,1.27-16.88,2.2-1.85-.69-3.38.81-5.14.73h-.73c-1.54-.18-3.09-.45-4.4.73h-1.47c-.72-.08-1.45-.16-2.17-.25-1.49-.94-2.98-.96-4.47,0-1.93.3-3.47-.73-5.1-1.47.52-4.69-3.84-8.14-8.1-6.42-.23-.04-.45-.09-.68-.15-.46-1.81-1.53-3.22-2.94-4.4.09-1.09-.49-1.74-1.42-2.16-1.05-2.51-2.49-4.76-4.46-6.65-.02-.44-.04-.87-.06-1.31,0-.98.07-1.96.02-2.94-.19-3.63-3.02-5.18-6.63-3.65-1.57-.56-2.55-2.21-4.33-2.39-4.84-3.8-10.83-4.34-16.49-5.81-.66-.17-1.27-.56-1.9-.84-.23-5.08-3.92-4.35-7.21-4.28-.08-.97-.16-1.95-.25-2.92,0-1.48,0-2.95,0-4.43.61-2.17-.72-4.55.76-6.62,1.15-.53,2.46-.84,3.03-2.18h1.47c.04,1.42,1.02,1.49,2.08,1.47.08,1.71.16,3.43.24,5.14.44,3.95,3.48,2.59,5.75,2.81,1.07.06,2.11.2,2.94.98-.03,1.44.29,2.65,2.02,2.76,1.42.09,2.24-.59,2.39-2.03,2.01-.48,3.83,1.36,5.87.49,2.38-1.2,3.23-3.55,4.27-5.75,1.06-1.47,2.13-2.94,3.19-4.4,1.52.52,3.13.87,4.28-.55,1.39-1.72.8-3.6-.03-5.41,1.02-1.67,2.03-3.34,3.05-5.02.98-.41,1.47-1.14,1.47-2.21,1.42-.56,1.46-2.5,2.98-2.96,1.73,1.18,3,.14,3.28-1.29.45-2.29-1.26-3.05-3.28-3.16l-.24.08c.69-6.41-1-12.73-.73-19.13.08-.24.16-.49.24-.73,1.42-.33,2.95-.62,2.74-2.57-.21-2.03-1.49-2.83-3.48-2.57-.08-.24-.16-.49-.24-.73v-9.54c.41-1.14-.06-2.07-.73-2.94.6-12.25-1.11-24.46-.73-36.71.42-2.04.02-3.97-.73-5.87.25-.97.5-1.94.75-2.91,0-1.96-.01-3.92-.02-5.88,0-1.71,0-3.43,0-5.14,0-1.47,0-2.94,0-4.41,0-1.22,0-2.45,0-3.67,0-4.66-.01-9.32-.02-13.97,0-2.94,0-5.87,0-8.81,0-1.97.02-3.95.03-5.92-1.34-3.81-.37-7.74-.6-11.61,1.14-.45.46-1.56.82-2.29,1.53-.79,3.1-1.49,2.81-3.73-.23-1.76-1.29-2.18-2.81-2.14-.5-9.77.05-19.52.57-29.27,0-.84.09-1.69-.02-2.51-.32-2.25-2.44-2.43-3.96-3.17-1.18-.58-2.4-.47-2.62,1.29l-2.2-2.23c.66-1.2,1.32-2.71.56-3.77-1.65-2.3-3.55-4.48-5.64-6.41-1.4-1.29-2.09-.11-2.25,1.35-.48-.55-.97-1.11-1.45-1.66-.03-1.07.09-2.17-.11-3.2-.41-2.16-2.23-2.02-3.68-1.69-1.86.42-1.64,1.66-.54,2.86-1.76,2.77-.28,5.89-.94,8.78-1.07.14-2.54-.44-2.76,1.35-.19,1.56.14,2.84,2.02,3.06,0,1.47,0,2.94,0,4.4-1.76-.08-3.18.65-3.38,2.39-.19,1.63,1.09,2.47,2.65,2.75-.19,9.61-1.42,19.16-1.91,28.74-.52,10.01-1.57,19.98-1.76,30-1.01.82-3.02.5-2.83,2.69.12,1.4.61,2.3,2.09,2.44.68,6.4-1,12.7-.73,19.09-1.75-.2-3.19.3-3.37,2.22-.17,1.72.58,3.01,2.64,2.92.08,2.45.16,4.89.24,7.34.1,2.24-1.44,4.3-.73,6.61-.08,2.21-.16,4.41-.24,6.62-1.58.77-3.68,1.13-3.4,3.55.16,1.43.96,2.48,2.67,2.3.08.24.16.49.24.73.2,7.02-.76,13.99-1.04,20.98-.2,5.05-.2,10.13-.62,15.16-.74,9-1.49,17.99-1.28,27.03l-.24-.08c-1.43.02-2.64.35-2.78,2.07-.13,1.56.11,2.9,2.05,3.11.08.24.16.49.24.73-.08,2.69-.16,5.38-.24,8.07-1.13.12-2.62-.44-2.81,1.47h-1.47c-.52-1.28-1.58-1.54-2.81-1.47-.23-8.44.44-16.84,1.32-25.22.08-.72.07-1.46.01-2.19-.53-7.16,1.14-14.24.75-21.39-.03-.51.09-.95.64-1.14,1.43-.65,3.03-1.06,3.03-3.15,0-1.98-1.32-2.38-2.82-2.69.14-2.7-.88-5.48.52-8.1,1.43-.65,3.03-1.06,3.03-3.15,0-1.98-1.32-2.38-2.82-2.69-.18-8.51.44-16.97,1.3-25.43.28-2.76.12-5.56.17-8.34,1.66.12,2.95-.6,3.36-2.16.41-1.55-.73-2.13-2.1-2.28-1.4-2.83-.2-5.88-.77-8.78,0-1.27,1.37-2.27.73-3.67.29-5.63.57-11.26.86-16.89.03-.58-.11-1.23.65-1.49,3.1-1.46,3.16-2.93.22-5.1.01-1.74-.75-3.56.51-5.18,3.89-2.26,3.94-3.61.22-5.84-.88-5.9,1.33-11.72.48-17.63,1.14-1.32.93-2.86.73-4.4,0-1.96,0-3.92,0-5.88,0-1.27,1.37-2.27.73-3.67.53-8.89.93-17.78,1.68-26.65.2-2.37.19-4.89,1.29-7.15,3.92-.34,7.15-2.89,11.03-3.42.88-.12,1.48-1.21,1.53-2.3,6.29-1.42,12.62-2.61,19.09-2.94.18,1.73,1.31,2.13,2.82,2.07,1.06-.05,1.91-.4,2.19-1.51.26-1.06.11-1.95-1.21-2.14-.04-5.15-.61-10.31.49-15.42.49-1.47.98-2.94,1.47-4.41.8-1.95,1.6-3.9,2.4-5.85.73-1.22,2.08-2.08,2.21-3.67,1.23-1.39,2.79-2.62,3.62-4.23,1.02-1.98-.94-2.91-2.21-3.95-1.18-1.07-1.38-2.91-2.93-3.68-2.17-3.52-4.22-7.1-5.78-10.94,1-.7,2.42-1.53,1.91-2.79-1.59-3.99,1.01-4.23,3.71-4.53,1.96,6.15,5.01,11.7,9.57,17.32,0-3.82,0-6.89,0-9.96,0-1.22-.02-2.45-.02-3.67,0-1.49.01-2.98.02-4.47-1.27-2.22-.52-4.37.19-6.53.7-.28,1.39-.57,2.09-.85,1.65,2.05,2.62,4.7,5.18,5.97.21,1.71-.57,3.54.61,5.14v7.97c1.98.09,1.58-1.62,2.43-2.1,1.79.15,3.45-.17,4.08-2.06.53-1.56-.83-2.29-1.88-3.07.49-1.23.98-2.45,1.47-3.68,2.89.13,5.63-1.42,8.57-.73-1.38,5.6-3.89,10.75-6.44,15.87-1.15,2.32-1.1,2.96,1.92,3.35,7.95,1.04,14.76,4.64,20.09,10.79-.77,5.24-.34,5.85,4.25,5.96,3.32,5.54,5.63,11.47,6.69,17.85.13.78.58,1.27.87,1.9,1.21,1.77,2.93.41,4.37.7,3.93.55,7.72-1.15,11.65-.7.95,1.27,1.86.73,2.72-.09,2.18-2.08,2.65-6.76.95-9.45,0-.23.05-.46.15-.67,1.47-.15,3.43.6,4.06-1.38.49-1.55.74-3.37-1.12-4.49,2.49-4.24,5.53-8.02,9.39-11.1,4.17,1.75,7.27-.33,7.38-4.94,2.98-1.62,6.32-2.15,9.51-3.16,1.45-.17,3.1.93,4.33-.68Zm-72.54,76.52h-3.67c-1.52.02-3.13-.69-4.51.54-4.87-.02-9.74-.03-14.6-.05.04-1.44-.29-2.67-2.03-2.76-1.91-.1-2.43,1.11-2.38,2.76-1.03.97-2.29.96-3.58.81-1.35-1.41-2.99-.45-4.5-.56-.48,0-.96-.01-1.44-.02-1.73,0-3.46,0-5.19,0-1.93-.27-2.24.94-2.17,2.43.3,7.15-1.19,14.22-.78,21.38.21,3.76-.04,7.54-.08,11.32-1.4.87-3.41,1.31-3.4,3.36,0,1.46,1.19,2.29,2.67,2.5.25.98.5,1.95.74,2.93-1.02,1.12-.54,2.45-.54,3.72,0,1.71,0,3.41,0,5.12,0,2.2,0,4.4.01,6.6,0,4.88,0,9.77,0,14.65,0,2.2-.01,4.4-.02,6.6,0,1.22-.01,2.44-.02,3.67-.01,1.23-.03,2.45-.04,3.68l-.02,3.68c-1.61.2-2.79,1.03-2.81,2.7-.02,2.15,1.95,2.43,3.42,3.13.08,6.13.16,12.27.24,18.4-.08.24-.16.49-.24.73-1.57.28-2.8,1.12-2.66,2.79.16,1.89,1.59,2.81,3.39,3.13l.24-.08c-.09,5.41.17,10.8.42,16.2.32,6.85,1.06,13.68,1.05,20.55-.71,2.31.84,4.37.73,6.61-.84,5.9,1.33,11.72.49,17.62-1.57.28-2.71,1.1-2.68,2.77.04,2.11,2,2.36,3.42,3.09.33,4.9.65,9.79.98,14.69-.08.49-.16.98-.24,1.47-1.48-.1-2.15.53-2.08,2.07.09,1.88,1.21,2.37,2.82,2.38l.24-.08c0,1.48,0,2.96,0,4.45-.08.49-.16.98-.24,1.47-1.48-.1-2.15.53-2.08,2.07.09,1.88,1.21,2.37,2.82,2.38,0,0,.24-.08.24-.08-.08,1.99-.16,3.97-.24,5.96-1.5-.16-2.15.5-2.08,2.03.09,1.87,1.18,2.39,2.81,2.34v5.14c-1.6.3-2.86,1.15-2.64,2.87.24,1.91,1.65,2.86,3.58,2.97,1.15,1.06,2.42-.5,3.59.15-.14,1.68.81,2.68,2.31,2.53,1.86-.19,3.09-1.32,2.8-3.47,9.31-1.64,18.62-3.29,27.93-4.93-.16,1.89,1.07,2.74,2.6,2.67,2.06-.1,3.1-1.55,3.24-3.61,6.29-1.62,12.7-2.58,19.12-3.46-.16,1.89,1.07,2.74,2.6,2.67,2.06-.1,3.1-1.55,3.24-3.61.44-1.15,1.53-.38,2.23-.77,4.16-.65,8.32-1.31,12.48-1.96-.16,1.89,1.07,2.74,2.6,2.67,2.06-.1,3.1-1.55,3.24-3.61,2.11-.96,4.4-.99,6.64-1.26-.16,1.89,1.07,2.74,2.6,2.67,2.06-.1,3.1-1.55,3.24-3.61,8.98-2.11,18.09-3.5,27.19-4.93-.16,1.89,1.07,2.74,2.6,2.67,2.06-.1,3.1-1.55,3.24-3.61,3.19-.75,6.38-1.49,9.57-2.24,2.06.6,3.86-.93,5.87-.73,2.45-.49,4.89-.98,7.34-1.47,1.56.68,2.84-1.17,4.4-.49.14,1.43.97,2.17,2.37,2.02,1.6-.16,2.52-1.16,2.76-2.76,2.3-1.21,4.89-1,7.34-1.47-.14,1.68.81,2.68,2.31,2.53,1.86-.19,3.09-1.32,2.8-3.47,3.44-.75,6.87-1.49,10.31-2.24,2.06.6,3.86-.93,5.87-.73,1.06.29,1.49-.1,1.48-1.21-.01-2,.07-4.01.11-6.01,1.76.08,3.16-.64,3.39-2.41.23-1.79-1.26-1.99-2.65-2,0-1.7,0-3.41-.01-5.11,1.07-1.12.54-2.46.52-3.73,0-1.47-.01-2.94-.02-4.41,0-1.71,0-3.42,0-5.13,0-3.42,0-6.83,0-10.25-.06-2.97.76-5.99-.52-8.89.01-.7.02-1.39.03-2.09,1.25-1.35.4-2.94.52-4.42.03-1.27.51-2.61-.53-3.73-.08-1.46-.16-2.92-.23-4.38.65-1.61-.48-2.93-.73-4.4.04-5.94.45-11.91.03-17.83-.62-8.74-1.39-17.45-1.25-26.22,1.74.07,2.78-.57,2.81-2.49.04-2.14-1.18-2.74-3.03-2.68-.88-7.29-1.66-14.6-1.3-21.96.19-.02.38-.04.56-.06,1.23-.62,2.51-1.38,2.1-2.96-.41-1.57-1.73-2.24-3.36-2.19l-.24.08c-.08-5.06.14-10.08-.41-15.17-.53-4.9-1.01-10.04.44-14.99,1.23-.62,2.51-1.38,2.1-2.96-.41-1.56-1.7-2.27-3.36-2.15,0-4.14-.01-8.28-.02-12.42,1.22-1.36.44-2.95.52-4.44,0-1.22.02-2.44.03-3.66,0-1.23.02-2.46.03-3.68,0-2.45,0-4.89-.01-7.34-.35-2.17,1-4.52-.69-6.54-1.22-.07-2.43-.14-3.65-.21.05-1.65-.47-2.9-2.38-2.75-2.24.18-1.99,1.94-2.02,3.48-9.84.54-19.6,1.95-29.45,2.48-3.09.17-6.25.24-9.34.63-9.06,1.15-18.16,1.72-27.27,2.03.1-1.93-.76-2.88-2.75-2.81-2.46.09-2.41,1.81-2.39,3.54-23.73,1.07-47.43,3.04-71.2,3.17-1.22,0-2.44,0-3.65,0Zm-22.8-7.53c2,0,3.99.01,5.99.02,8.51-1.3,17.06-.53,25.6-.56-.24,2.07,1.28,2.38,2.69,2.37,1.89-.02,3-1.17,3.18-3.1,1.39-1.66.62-3.43.5-5.52-1.67.86-2.96,1.64-4.34,2.21-1.66.69-3.65.5-4.6-.77-.91-1.22-2.82-2.82-.99-4.84,4.6,1.59,5.63.95,5.75-3.56.91-.63,3.28.92,2.86-1.52-1-5.92-2.3-11.79-3.47-17.68,1.95.1,2.91-.78,2.8-2.78-.06-1.21-.52-2.07-1.8-2.3-2.2-.4-3.03.85-3.33,2.75-1.28.15-2.44.74-3.73.97-3.78.68-4.7.22-5.69-3.78,2.65.15,4.38-.75,4.25-3.76,1.5-.65,2.99-1.29,4.49-1.94-2.43-5.16-4.86-10.08-9.63-13.31.31-1.48,1.18-3.09-.81-4.08-1.53-.77-2.8-.5-3.59,1.15-4.26-1.48-8.54-2.83-13.15-2.21-.13-1.6-1-2.46-2.59-2.2-2.2.36-1.79,2.15-1.81,3.67-1.7,1.45-3.39,2.9-5.09,4.35-1.48-.69-3.04-1.47-4.22.34-1.04,1.59-1.82,3.33.35,4.76-.96,2.1-1.92,4.2-2.88,6.31,2.3.85,4.23-.1,6.2-.44,2.55-.44,4.02,1.01,4.53,3.1.46,1.88-.35,4.05-2.18,4.68-1.45.5-3.07,1.4-4.81.92.1-1.93-.76-2.88-2.76-2.81-2.47.09-2.41,1.82-2.38,3.55-.22.11-.45.18-.69.22-1.43-1.43-2.46-.73-2.84.81-.51,2.06.12,3.61,2.68,3.49,0,3.81,1.59,7.31,2.2,10.97.69,4.17,2.77,5.71,6.74,5.31.12,1.96-.2,4.22,2.81,4.28.03,2.12-1.54,3.49-3.11,3.53-2.74.07-.88,1.52-1.05,2.34.68,1.51,1.37,3.01,2.05,4.52,1.86,1.23,3.92.39,5.88.54Zm128.39-24.82c-1.89-1.31-3.78-1.3-5.67,0-1.41.84-.17,2.76-1.48,3.64-1.25-.05-2.53-.02-2.89,1.49-.35,1.47-.29,2.91,1.41,3.65-.26,2.39-1.13,4.56-2.41,6.58-.72.01-1.49-.13-2.16.06-2.1.59-1.88,2.23-1.38,3.76.6,1.85,1.75,1.63,2.96.5,1.21.07,2.43.14,3.64.21.14,1.43.97,2.17,2.37,2.02,1.6-.16,2.52-1.16,2.76-2.76,2.21-2.68,1.15-5.94,1.59-8.93,3.9-.38,4.14-.88,2.81-5.87,1.46-2.09,2.79-4.14-1.41-4.43l-.16.09Zm-61.6,6.66l.08-.21c1.17-1.83.55-3.19-1.23-4.06-.89-.44-1.86-.4-2.48.64-1.05,1.75.92,1.81,1.47,2.66-1.85.71-1.33,2.41-1.58,3.79-1.45-.04-2.63.32-2.78,2.03-.13,1.55.11,2.9,2.05,3.11v2.2c-1.45-.04-2.63.32-2.78,2.03-.13,1.55.11,2.9,2.05,3.11.57,1.35,1.67,1.47,2.98,1.5,2.43.06,4.78-.55,7.15-.7,10.74-.65,21.49-1.07,32.24-1.53,3.26-.14,3.83-1.1,2.54-4.54.42-2.9-.16-5.17-3.55-5.71,1.08-3.19,2.86-3.82,6.47-1.77,1.3.74,1.78.93,2.19-.53,1.01-3.61,2.24-7.18,2.88-10.85.43-2.45.43-4.84-2.34-6.82-3.09-2.2-2.68-4.77.2-7.34.41,2.35,1.96,1.95,3.55,1.49,1.46-.43,1.68-1.55,1.59-2.84-.18-2.51-2.04-2.22-3.72-2.2-.67-1.48-1.34-2.96-2.01-4.44,2-1.45,1.83-3.47.69-5.09-.88-1.25-2.53-1.23-3.78.05-3.32-3.77-7.66-5.65-12.41-6.8-1.49-.94-2.98-1.04-4.48-.02-4.58.9-8.8,2.61-12.43,5.62-1.38,1.15-2.37,2.21.25,3.16,3.15,1.15,3.47,3.32,1.82,6-1.41-.6-2.8-1.24-4.22-1.78-1.77-.68-3.3-.7-3.73,1.67-.7.05-1.4.11-2.1.16-2.07-.21-3.85.17-4.47,2.48-.42,1.59-.91,3.3,1.31,4.09-.94,2.99-2.02,5.94-2.79,8.97-1.07,4.21-.98,4.26,3.52,4.24,2.06-.01,4.5-.41,5.15,2.13.64,2.5.14,4.98-2.81,6.06-1.49,0-2.97,0-4.46,0Zm85.19,4.16c-.13-2.81-1.23-4.65-4.42-4.27-1.54.18-1.88-.9-2.57-1.94-1.37-2.06-3.09-2.74-4.79-.19-3.1-2.38-3.92-2.07-4.34,1.89-.22,2.02-.12,4.07-.16,6.11-1.25-.01-2.5.11-2.69,1.66-.16,1.32.75,1.88,1.95,2.01.15,1.35.72,2.4,2.26,2.16,6.01-.94,12.07-1.26,18.14-1.48,1.81-.07,3.68-.48,5.38-1.63-3.01-1.48-5.89-2.9-8.78-4.32Zm-104.86,11.84c2.12,1.21,4.25,1.21,6.37,0,.28-4.09.26-8.23.94-12.26.59-3.47.46-7.11,2.02-10.39-1.41-1.37-2.89-1.05-4.38-.16-1.2.07-2.4.14-3.61.21-.73,0-1.47,0-2.2,0-1.91-.35-2.54-.08-2.32,2.32.64,6.84,2.61,13.45,3.17,20.29Zm-77.84,232.71c1.46,1.96,2.92,3.92,4.38,5.88-1.23,1.67-1.42,3.51.28,4.74,1.03.75,2.87,1.2,3.3-1.13-1.02-11.96-2.03-23.92-3.05-35.87-1.33.81-1.7,1.88-2.75,2.29-1.01-1.22-2.24-1.14-3.12-.08-1.18,1.42-.54,2.99.18,4.46-.79,1.2-1.57,2.4-2.36,3.59-.96.04-2.05-.18-2.86.19-1.95.89-3.39,2.5-3.46,4.7-.05,1.59,1,2.68,2.86,2.42,1.5.81,1.77,2.59,2.92,3.68-1.87.94-1.8,2.36-1,3.98,1.11,2.25,2.92,1.61,4.69,1.15Zm-3.72-240.1c-.73,1.53-1.42,3.16-.07,4.6,1.07,1.14,2.39.58,3.57-.11,2.47,2.6,5.8,3.69,8.98,5.04,2.38,1.55,4.96.79,7.46.52.5-.05.28-.77-.04-1.16-.97-2.7-1.94-5.39-2.91-8.09.61-.87,1.37-1.67,1.79-2.63.49-1.1.55-2.37-.37-3.35-.95-1.02-1.95-.43-2.91.11-2.58-5.69-2.54-5.3-8.92-4.56-4.15.48-8.2,1.69-12.4,1.66-1.96.89-1.79,2.33-1.01,3.92,1.1,2.25,2.91,1.6,4.68,1.15.72.96,1.43,1.92,2.15,2.89Z"/><path class="cls-2" d="m257.91,29.2c-.91-.04-1.5-.56-2.16-1.15-1.92-1.72-3.7-.77-5.51,1.01-2.03,2-4.08,4.14-6.39,5.77-2.19,1.55-3.14.5-2.87-2.81,4.13-1.38,6.76-4.99,10.44-7.03,1.81-1,3.97-1.83,5.7-.39,1.21,1,2.41,2.75.79,4.6Z"/><path class="cls-2" d="m110.15,15.22c-2.7.3-5.3.54-3.71,4.53.5,1.26-.91,2.09-1.91,2.79-1.58-2.97-3.51-5.88-1.55-9.43,1.21-.32,2.42-.64,3.63-.96,1.77.34,3.19,1.08,3.54,3.06Z"/><path class="cls-2" d="m82.38,79.21c-.05,1.08-.65,2.18-1.53,2.3-3.88.54-7.12,3.08-11.03,3.42-.74-2.29.54-3.94,2.4-4.25,3.36-.58,6.64-2.01,10.17-1.47Z"/><path class="cls-2" d="m278.37,340.3c-.9-1.22-.63-2.79.48-3.11,2.26-.64,4.58-1,6.85-1.77,1.41-.48,2.5,1.15,3.68,1.94-3.66,1.01-7.16,2.6-11,2.94Z"/><path class="cls-2" d="m189.53,60.67c1.69,2.69,1.23,7.37-.95,9.45-.86.82-1.78,1.35-2.72.09.66-3.39,1.52-6.71,3.68-9.53Z"/><path class="cls-2" d="m101.44,359.58c4.26-1.73,8.62,1.72,8.1,6.42-3.33-1.34-5.95-3.58-8.1-6.42Z"/><path class="cls-2" d="m142.45,14.49c-2.94-.68-5.68.86-8.57.73-.04-2.77,1.68-4.13,4.09-4.33,2.37-.2,3.9,1.26,4.48,3.6Z"/><path class="cls-2" d="m85.28,338.33c3.62-1.53,6.44.02,6.63,3.65.05.98-.01,1.96-.02,2.94-1.18-1.02-2.37-2.04-3.55-3.05-1.02-1.18-2.04-2.35-3.06-3.53Z"/><path class="cls-2" d="m278.41,79.74c0,.27-.02.54-.03.81h-4.4c-1.43-.82-2.61-2.12-4.4-2.2.01-1.25.02-2.51.03-3.76.47.06.94.12,1.41.18.49.48.99.96,1.48,1.44,1.01,1.07,2.39,1.48,3.69,2.02.74.5,1.49,1.01,2.23,1.51Z"/><path class="cls-2" d="m264.43,343.98c.34-3.3,3.63-5.16,6.68-3.75.98.45,1.9,1.02,2.85,1.54-3.29.26-6.18,2.21-9.52,2.21Z"/><path class="cls-2" d="m209.38,38.09c-.11,4.62-3.21,6.69-7.38,4.94,1.79-2.64,4.64-3.71,7.38-4.94Z"/><path class="cls-2" d="m127.17,13.02c-2.56-1.27-3.52-3.92-5.18-5.97.18-.86.97-.56,1.49-.77,3.6.76,4.51,2.18,4.3,6.73-.2,0-.4.01-.61.02Z"/><path class="cls-2" d="m220.39,352.78c.05-2.36.98-4.15,3.55-4.11,1.96.03,2.54,1.56,2.32,3.37-2.01-.19-3.81,1.34-5.87.73Z"/><path class="cls-2" d="m188.82,358.17c-.73-.08-1.47-.16-2.2-.24.05-2.36.98-4.15,3.55-4.11,1.96.03,2.54,1.56,2.32,3.37-.24.08-.49.16-.73.24-1.14-.41-2.07.05-2.94.73Z"/><path class="cls-2" d="m55.35,325.01c3.29-.07,6.97-.79,7.21,4.28-3.22-.06-5.48-1.72-7.21-4.28Z"/><path class="cls-2" d="m306.27,331.5c-1.06-1.96-.9-3.51,1.48-4.29,1.81-.24,3.51.34,5.22.76-2,1.62-4.42,2.44-6.7,3.52Z"/><path class="cls-2" d="m192.61,54.14c1.86,1.12,1.61,2.94,1.12,4.49-.63,1.97-2.58,1.23-4.06,1.38.18-2.36,1.6-4.09,2.94-5.86Z"/><path class="cls-2" d="m56.07,305.19c1.23-.07,2.29.19,2.81,1.47v2.2c-.57,1.34-1.88,1.64-3.03,2.18-1.55-2.01.18-3.9.21-5.85Z"/><path class="cls-2" d="m315.71,325.74c-2.12-.55-1.42-2.26-1.21-3.48.3-1.71,1.63-2.49,3.4-2.39.69,2.49-.83,4.15-2.19,5.87Z"/><path class="cls-2" d="m315.7,200.21c-2.02-.34-3.48-1.37-3.38-3.55.06-1.42.9-2.52,2.65-2.28l.24-.08c-.59,1.62.92,2.89.75,4.45-.09.49-.17.98-.26,1.47Z"/><path class="cls-2" d="m59.01,249.4c1.5.31,2.83.71,2.82,2.69,0,2.1-1.61,2.51-3.03,3.15l-.77-2.17c.68-.87,1.15-1.8.73-2.94.08-.24.16-.49.24-.73Z"/><path class="cls-2" d="m59.74,235.45c1.5.31,2.83.71,2.82,2.69,0,2.1-1.61,2.51-3.03,3.15-.26-.48-.51-.96-.77-1.44,0-1.27,1.4-2.26.74-3.67.08-.24.16-.49.24-.73Z"/><path class="cls-2" d="m162.27,50.46c-4.59-.11-5.02-.72-4.25-5.96,1.74,1.75,3.33,3.62,4.25,5.96Z"/><path class="cls-2" d="m132.42,18.9c1.04.78,2.4,1.51,1.88,3.07-.63,1.89-2.3,2.21-4.08,2.06,0-2.03,1.42-3.44,2.21-5.13Z"/><path class="cls-2" d="m64.89,150.3c3.72,2.23,3.67,3.57-.22,5.84-1.57-2.01.2-3.89.22-5.84Z"/><path class="cls-2" d="m245.96,21.83c-2.61.14-4.57-.64-5.02-3.55,2.91-.57,4.95.09,5.02,3.55Z"/><path class="cls-2" d="m105.26,74.68c1.32.2,1.47,1.09,1.21,2.14-.27,1.12-1.13,1.47-2.19,1.51-1.51.07-2.64-.34-2.82-2.07,1.3-.45,2.72-.59,3.79-1.59Z"/><path class="cls-2" d="m232.75,27.7c-2.32.13-2.4-1.49-2.31-3.09.11-1.93,1.45-2.22,3.04-2.05.7,1.85-.82,3.38-.73,5.14Z"/><path class="cls-2" d="m229.2,7.27c0,3.07-2.18,3.38-4.49,3.52-.79-4.09,1.87-3.78,4.49-3.52Z"/><path class="cls-2" d="m241.72,29.28c-1.53-4.37-1.03-5.11,3.49-5.25-1.36,1.61-1.55,4.02-3.49,5.25Z"/><path class="cls-2" d="m317.9,307.4c-1.85.87-1.99-.4-2.07-1.68-.13-1.98.88-2.83,2.8-2.73.22,1.55.41,3.09-.73,4.41Z"/><path class="cls-2" d="m62.47,197.25c1.37.15,2.51.73,2.1,2.28-.41,1.56-1.7,2.28-3.36,2.16l-.24-.73c1-1.03.84-2.37.94-3.64.19-.02.38-.04.57-.06Z"/><path class="cls-2" d="m64.16,161.32c2.94,2.17,2.87,3.64-.22,5.1-.26-.48-.51-.96-.77-1.44.67-.87,1.18-1.78.75-2.94.08-.24.16-.48.24-.72Z"/><path class="cls-2" d="m266.72,70.98c-1.98,1.25-4.13,3.08-4.49-1.3,1.72-.35,3.27-.1,4.49,1.3Z"/><path class="cls-2" d="m312.25,107.69c-.01-3.69-.03-7.38-.04-11.07,1.37,3.64.45,7.4.55,11.11-.17,0-.34-.02-.51-.04Z"/><path class="cls-2" d="m318.86,289.83c0-3.69.01-7.38.02-11.07.16,0,.33.01.49.02-.15,3.68.87,7.42-.51,11.05Z"/><path class="cls-2" d="m319.37,278.78c-.16,0-.33-.02-.49-.02,0-2.94,0-5.88,0-8.82.17.02.33.04.5.07,0,2.92,0,5.85,0,8.77Z"/><path class="cls-2" d="m312.97,327.98c-1.72-.43-3.41-1-5.22-.76,1.99-1.7,3.97-.23,5.96.03-.24.24-.49.49-.73.73Z"/><path class="cls-2" d="m258.56,69.66c-1.95.97-3.91.97-5.86,0,1.95,0,3.91,0,5.86,0Z"/><path class="cls-2" d="m312.25,107.69c.17.02.34.03.51.04,0,1.96,0,3.92,0,5.89-1.19-1.89-.47-3.94-.52-5.92Z"/><path class="cls-2" d="m127.17,13.02c.2,0,.4,0,.61-.02,0,1.72,0,3.43,0,5.15-1.19-1.6-.4-3.42-.61-5.14Z"/><path class="cls-2" d="m174.2,70.9c-1.45-.29-3.16,1.07-4.37-.7,1.42.48,3.09-.63,4.37.7Z"/><path class="cls-2" d="m114.64,367.47c1.49-.96,2.98-.94,4.47,0-1.49,0-2.98,0-4.47,0Z"/><path class="cls-2" d="m119.71,14.44c0,1.49-.01,2.98-.02,4.47-.17-.02-.34-.04-.51-.06.09-1.48-.69-3.06.53-4.41Z"/><path class="cls-2" d="m313,137.13c0-1.5-.01-3-.02-4.5.91,1.5,1.09,2.99.02,4.5Z"/><path class="cls-2" d="m233.7,21.88c0-1.51,0-3.01,0-4.52,1,1.51,1.03,3.01,0,4.52Z"/><path class="cls-2" d="m225.62,19.57c1.03,1.51,1,3.01,0,4.51,0-1.5,0-3.01,0-4.51Z"/><path class="cls-2" d="m223.21,34.26c-1.23,1.6-2.88.5-4.33.68,1.31-1.09,2.89-.43,4.33-.68Z"/><path class="cls-2" d="m318.87,295.68c0-1.49.01-2.98.02-4.47,1.03,1.49.91,2.98-.02,4.47Z"/><path class="cls-2" d="m318.88,260.41c.2.25.41.49.61.74-.17,1.23.46,2.58-.6,3.66,0-1.47,0-2.94-.01-4.4Z"/><path class="cls-2" d="m55.1,317.66c0,1.48,0,2.95,0,4.43-.95-1.48-.95-2.95,0-4.43Z"/><path class="cls-2" d="m312.15,119.46c.01-1.01.03-2.01.04-3.02,1.38,1.02.33,2.58.83,3.8l-.26-.09c-.2-.23-.41-.46-.61-.69Z"/><path class="cls-2" d="m319.37,270c-.17-.03-.33-.05-.5-.07,0-1.23,0-2.45,0-3.68,1.02,1.13.57,2.47.51,3.75Z"/><path class="cls-2" d="m119.18,18.85c.17.03.34.05.51.06,0,1.22.02,2.45.02,3.67-1.01-1.13-.58-2.46-.53-3.74Z"/><path class="cls-2" d="m89.69,102.66c-3.37-2.17-4.7-6.04-7.33-8.83.16-1.46.85-2.64,2.25-1.35,2.08,1.92,3.98,4.1,5.64,6.41.77,1.07.1,2.57-.56,3.77Z"/><path class="cls-2" d="m279.85,89.24c-4.52-1.04-8.03-3.94-11.77-6.4,1.69-2.55,3.42-1.87,4.79.19.69,1.04,1.02,2.13,2.57,1.94,3.19-.38,4.29,1.46,4.42,4.27Z"/><path class="cls-2" d="m94,317.67c-.91,2.55-3.85,4.14-3.46,7.31-1.86.26-2.91-.83-2.86-2.42.06-2.2,1.51-3.81,3.46-4.7.81-.37,1.9-.14,2.86-.19Z"/><path class="cls-2" d="m98.49,109.28c-2.6-.87-4.95-2.11-6.61-4.39.22-1.75,1.44-1.86,2.62-1.29,1.53.75,3.65.92,3.96,3.17.12.82.02,1.67.02,2.51Z"/><path class="cls-2" d="m240.18,62.12c1.65-.71,1.67-2.08,1.42-3.56,1.68-.01,3.54-.3,3.72,2.2.09,1.29-.13,2.41-1.59,2.84-1.59.46-3.15.87-3.55-1.49Z"/><path class="cls-2" d="m209.25,57.06c-2.69,2.7-5.32,1.53-7.95-.11.43-2.37,1.96-2.35,3.73-1.67,1.43.55,2.82,1.19,4.22,1.78Z"/><path class="cls-2" d="m161.05,70.28c.16-1.71-.61-2.49-2.32-2.33.3-1.9,1.13-3.15,3.33-2.75,1.28.23,1.74,1.09,1.8,2.3.1,2-.86,2.87-2.8,2.78Z"/><path class="cls-2" d="m199.2,57.1c-.63,2.39-2.02,4.42-3.15,6.57-2.23-.78-1.74-2.49-1.31-4.09.61-2.32,2.4-2.7,4.47-2.48Z"/><path class="cls-2" d="m89.11,310.33c1.21-1.95,2.42-3.89,3.63-5.84.21-.03.42-.07.62-.12.83,1.8,1.42,3.68.03,5.41-1.15,1.43-2.76,1.08-4.28.55Z"/><path class="cls-2" d="m80.91,92.17c-1.53-.49-2.47-2.24-4.32-2.04-1.1-1.2-1.32-2.44.54-2.86,1.45-.33,3.27-.47,3.68,1.69.2,1.04.08,2.13.11,3.2Z"/><path class="cls-2" d="m93.46,328.65c1.23,1.71,2.46,3.42,3.68,5.13-1.77.46-3.58,1.09-4.69-1.15-.8-1.62-.87-3.04,1-3.98Z"/><path class="cls-2" d="m121.37,46.82c-1.29,1.7-2.58,3.4-3.87,5.1-2.17-1.43-1.39-3.17-.35-4.76,1.18-1.8,2.75-1.03,4.22-.34Z"/><path class="cls-2" d="m110.41,94.49c-.95-1.84-1.6-3.76-1.48-5.87.95-.53,1.95-1.13,2.91-.11.92.98.86,2.24.37,3.35-.42.95-1.18,1.76-1.79,2.63Z"/><path class="cls-2" d="m239.59,54.12c-1.03-1.68-2.06-3.36-3.09-5.04,1.25-1.28,2.9-1.3,3.78-.05,1.14,1.62,1.31,3.64-.69,5.09Z"/><path class="cls-2" d="m87.61,85.73c.99,1.86,2.97,3,3.66,5.08-1.77.45-3.58,1.1-4.68-1.15-.78-1.59-.95-3.04,1.01-3.92Z"/><path class="cls-2" d="m241.68,331.01c1.82-1.11,3.87-.76,5.84-.94-.14,2.05-1.18,3.51-3.24,3.61-1.53.07-2.76-.78-2.6-2.67Z"/><path class="cls-2" d="m175.61,342.75c1.47-.33,2.94-.65,4.4-.98.48.01.96.02,1.44.04-.14,2.05-1.18,3.51-3.24,3.61-1.53.07-2.76-.78-2.6-2.67Z"/><path class="cls-2" d="m150.65,347.16c1.82-1.11,3.87-.76,5.84-.94-.14,2.05-1.18,3.51-3.24,3.61-1.53.07-2.76-.78-2.6-2.67Z"/><path class="cls-2" d="m208.64,336.88c1.82-1.11,3.87-.76,5.84-.94-.14,2.05-1.18,3.51-3.24,3.61-1.53.07-2.76-.78-2.6-2.67Z"/><path class="cls-2" d="m196.16,339.08c1.82-1.11,3.87-.76,5.84-.94-.14,2.05-1.18,3.51-3.24,3.61-1.53.07-2.76-.78-2.6-2.67Z"/><path class="cls-2" d="m234.34,95.12c-.97-.48-1.94-.95-2.91-1.43-.73-1.37-1.99-2.62-.89-4.36,0,0,.24.09.24.09,3.38.53,3.97,2.81,3.55,5.71Z"/><path class="cls-2" d="m308.6,206.82c.4-1.74-2.13-3.36-.21-5.17,1.85-.06,3.07.54,3.03,2.68-.04,1.92-1.08,2.56-2.81,2.49Z"/><path class="cls-2" d="m245.22,93.77c.63,1.55-1.95,2.67-.58,4.32-1.21,1.13-2.36,1.35-2.96-.5-.5-1.52-.71-3.16,1.38-3.76.67-.19,1.44-.05,2.16-.06Z"/><path class="cls-2" d="m155.91,93.05c1.27-2.23,3.76-2.5,5.75-3.56-.12,4.51-1.15,5.15-5.75,3.56Z"/><path class="cls-2" d="m159.46,102.7c1.81-1.46,3.88-.75,5.87-.73-.19,1.93-1.29,3.08-3.18,3.1-1.41.01-2.93-.3-2.69-2.37Z"/><path class="cls-2" d="m105.75,208.98c-1.47-.69-3.44-.98-3.42-3.13.02-1.67,1.19-2.5,2.81-2.7.2.25.41.5.61.75.08,1.72.16,3.44.24,5.17l-.24-.09Z"/><path class="cls-2" d="m67.82,222.24c-.33,1.71-.65,3.43-.98,5.14-1.71.18-2.5-.87-2.67-2.3-.28-2.43,1.82-2.79,3.4-3.55.08.24.16.48.24.72Z"/><path class="cls-2" d="m118.35,66.49c-1.23.31-2.69-.24-3.67.98l-1.47-.24c-.02-1.73-.08-3.45,2.38-3.55,1.99-.08,2.85.88,2.76,2.81Z"/><path class="cls-2" d="m113.09,347.03c.25,1.96,1.16,3.81.94,5.84-1.93-.11-3.34-1.06-3.58-2.97-.22-1.72,1.04-2.57,2.64-2.87Z"/><path class="cls-2" d="m230.67,106.86c-1.8-.33-3.32,1.21-5.14.73-.02-1.73-.07-3.45,2.39-3.54,1.99-.07,2.85.88,2.75,2.81Z"/><path class="cls-2" d="m105.75,228.11c.13,1.99,1.44,3.82.73,5.91-1.81-.32-3.23-1.23-3.39-3.13-.14-1.67,1.09-2.51,2.66-2.79Z"/><path class="cls-2" d="m69.04,195.81c.69,1.85-.81,3.38-.73,5.14-2.06.09-2.81-1.2-2.64-2.92.18-1.92,1.62-2.42,3.37-2.22Z"/><path class="cls-2" d="m194.73,84.87c-.98.43-1.52-.44-2.25-.76-.54-.86-2.52-.92-1.47-2.66.63-1.04,1.59-1.08,2.48-.64,1.78.88,2.4,2.23,1.23,4.06Z"/><path class="cls-2" d="m109.42,294.91c.13,1.97,1.42,3.79.73,5.86-1.41-.74-3.38-.98-3.42-3.09-.03-1.67,1.12-2.49,2.68-2.77Z"/><path class="cls-2" d="m105.75,146.63c.42,2.04.02,3.97-.73,5.87-1.48-.21-2.66-1.05-2.67-2.5-.01-2.06,2.01-2.49,3.4-3.36Z"/><path class="cls-2" d="m101.53,339.67c1.1,1.29,1.86,2.92,3.57,3.61-.43,2.33-2.26,1.87-3.3,1.13-1.7-1.23-1.51-3.07-.28-4.74Z"/><path class="cls-2" d="m287.19,322.93c1.59-.93,3.37-.84,5.11-.94.29,2.15-.94,3.28-2.8,3.47-1.5.15-2.45-.85-2.31-2.53Z"/><path class="cls-2" d="m100.12,269.95c.33-1.79-1.21-3.32-.73-5.14,1.98-.26,3.27.53,3.48,2.57.2,1.95-1.33,2.25-2.74,2.57Z"/><path class="cls-2" d="m97.67,142.95l.25-4.4c1.51-.04,2.58.38,2.81,2.14.29,2.24-1.28,2.94-2.81,3.73-.08-.49-.16-.98-.25-1.47Z"/><path class="cls-2" d="m117.61,353.03c1.59-.93,3.37-.84,5.11-.94.29,2.15-.94,3.28-2.8,3.47-1.5.15-2.45-.85-2.31-2.53Z"/><path class="cls-2" d="m74.91,107.72c.7,1.85-.81,3.38-.73,5.14-1.56-.27-2.83-1.12-2.65-2.75.2-1.75,1.62-2.48,3.38-2.39Z"/><path class="cls-2" d="m112.6,71.01c-.08.24-.17.49-.25.73-2.56.12-3.18-1.43-2.68-3.49.38-1.53,1.41-2.24,2.84-.81.03,1.19.06,2.38.09,3.57Z"/><path class="cls-2" d="m148.42,46.14c-1.47-.98-2.94-1.95-4.4-2.93.79-1.65,2.06-1.92,3.59-1.15,1.99.99,1.12,2.6.81,4.08Z"/><path class="cls-2" d="m100.85,294.19c.4-1.48.36-2.97,0-4.45,2.02.11,3.73.87,3.28,3.16-.28,1.44-1.55,2.48-3.28,1.29Z"/><path class="cls-2" d="m63.17,305.19c.46,1.81-.09,3.48-.73,5.14-1.06.02-2.04-.05-2.08-1.47v-2.2c.2-1.91,1.68-1.35,2.81-1.47Z"/><path class="cls-2" d="m301.14,100.99c-1.54-.18-2.8,1.32-4.41.73.03-1.54-.22-3.31,2.02-3.48,1.91-.15,2.43,1.1,2.38,2.75Z"/><path class="cls-2" d="m130.86,41c-1.32.94-2.81,1.34-4.4,1.47.02-1.52-.38-3.31,1.81-3.67,1.59-.26,2.46.6,2.59,2.2Z"/><path class="cls-2" d="m93.42,93.69c1.17,1.5,2.34,3,3.5,4.5-1.18.68-2.49,1.25-3.57.11-1.35-1.44-.66-3.07.07-4.6Z"/><path class="cls-2" d="m306.19,144.39c-.41-1.71-1.7-3.19-1.26-5.11,1.66-.12,2.95.59,3.36,2.15.41,1.58-.87,2.34-2.1,2.96Z"/><path class="cls-2" d="m312.15,119.46c.2.23.41.46.61.69,0,1.48,0,2.97,0,4.45-1.44.04-2.54-.31-2.8-2-.27-1.79.77-2.58,2.19-3.14Z"/><path class="cls-2" d="m255.75,82.76c-.68-1.61.56-2.94.67-4.43,4.2.29,2.88,2.34,1.41,4.43-.69,0-1.39,0-2.08,0Z"/><path class="cls-2" d="m307.66,179.63c-.41-1.72-1.73-3.22-1.26-5.15,1.63-.05,2.95.62,3.36,2.19.41,1.58-.87,2.34-2.1,2.96Z"/><path class="cls-2" d="m63.9,291.2c.72,1.86-.82,3.41-.73,5.18-1.94-.21-2.18-1.56-2.05-3.11.14-1.72,1.36-2.05,2.78-2.07Z"/><path class="cls-2" d="m249.11,82.06c-.03,1.84-.37,3.6-1.48,5.13-1.7-.74-1.76-2.17-1.41-3.65.36-1.51,1.64-1.54,2.89-1.49Z"/><path class="cls-2" d="m190.9,87.9c.7,1.85-.81,3.38-.73,5.14-1.94-.21-2.18-1.55-2.05-3.11.15-1.72,1.33-2.07,2.78-2.03Z"/><path class="cls-2" d="m310.07,311.8c-.58-1.61.91-2.87.73-4.41,1.39,0,2.88.21,2.65,2-.22,1.76-1.63,2.48-3.39,2.41Z"/><path class="cls-2" d="m190.17,95.24c.69,1.85-.81,3.38-.73,5.14-1.94-.21-2.18-1.55-2.05-3.11.15-1.72,1.33-2.07,2.78-2.03Z"/><path class="cls-2" d="m248.28,98.3c1.56-1.34,3.38-.82,5.14-.73-.25,1.6-1.16,2.59-2.76,2.76-1.4.14-2.23-.59-2.37-2.02Z"/><path class="cls-2" d="m99.3,309.7c-.98,1.46-1.96,2.92-2.94,4.38-.72-1.47-1.36-3.04-.18-4.46.89-1.07,2.11-1.14,3.12.08Z"/><path class="cls-2" d="m110.89,316.94c1.15,1.33.93,2.89.73,4.45-1.6,0-2.73-.5-2.82-2.38-.07-1.54.61-2.17,2.08-2.07Z"/><path class="cls-2" d="m127.89,111.27h-4.41c-.05-1.65.47-2.86,2.38-2.76,1.73.09,2.06,1.32,2.03,2.76Z"/><path class="cls-2" d="m149.3,65.14c-.04-2.9,1.89-3.57,4.25-3.76.13,3.01-1.6,3.9-4.25,3.76Z"/><path class="cls-2" d="m113.33,340.43c-.08.49-.16.98-.25,1.47-1.63.06-2.72-.47-2.81-2.34-.07-1.53.57-2.18,2.08-2.03l.24-.08c.25.99.49,1.99.74,2.98Z"/><path class="cls-2" d="m274.71,325.13c.24-.08.49-.16.73-.24,1.4-.75,2.89-.73,4.41-.49-.25,1.6-1.16,2.59-2.76,2.76-1.4.14-2.23-.59-2.37-2.02Z"/><path class="cls-2" d="m111.62,327.21c.27,1.48,1.38,2.82.73,4.45-1.6,0-2.73-.5-2.82-2.38-.07-1.54.61-2.16,2.08-2.07Z"/><path class="cls-2" d="m70.51,171.59c.69,1.84-.81,3.38-.73,5.13-1.48-.15-1.97-1.04-2.09-2.44-.19-2.19,1.82-1.87,2.83-2.69Z"/><path class="cls-2" d="m71.37,319.26c1.62-.65,2.94.48,4.41.73-.15,1.44-.97,2.13-2.39,2.03-1.73-.12-2.05-1.32-2.02-2.76Z"/><path class="cls-2" d="m105.74,170.84c0,4.9,0,9.8,0,14.7-.17,0-.34-.01-.51-.02,0-4.88,0-9.77,0-14.65.17,0,.34-.02.52-.02Z"/><path class="cls-2" d="m75.65,98.91c.59,1.61-.92,2.87-.73,4.41-1.89-.21-2.22-1.5-2.02-3.06.22-1.79,1.69-1.2,2.76-1.35Z"/><path class="cls-2" d="m121.28,88.02c2.86.16,3.2,1.98,2.81,4.28-3.02-.06-2.69-2.32-2.81-4.28Z"/><path class="cls-2" d="m97.18,186.99c0-4.64,0-9.28,0-13.92.16,0,.33-.02.49-.02,0,4.66.01,9.32.02,13.97-.17,0-.34-.02-.51-.03Z"/><path class="cls-2" d="m263.58,90.83c.31,1.34.19,2.58-.73,3.67-1.21-.14-2.11-.7-1.95-2.01.18-1.54,1.44-1.67,2.69-1.66Z"/><path class="cls-2" d="m255.75,82.76c.69,0,1.39,0,2.08,0,1.33,4.99,1.08,5.49-2.81,5.87v-.73c1.25.01,2.5-.11,2.69-1.66.16-1.32-.75-1.88-1.95-2.02v-1.47Z"/><path class="cls-2" d="m310.8,289.06c0-3.44,0-6.87,0-10.31.16,0,.33.01.49.02,0,3.42,0,6.83,0,10.25-.17.01-.33.03-.5.04Z"/><path class="cls-2" d="m105.9,103.22c2.47-.22,5.07.94,7.42-.64.31.39.54,1.11.04,1.16-2.5.27-5.07,1.03-7.46-.52Z"/><path class="cls-2" d="m311.29,278.77c-.16,0-.33-.01-.49-.02-.01-2.96-.02-5.91-.03-8.87,1.28,2.9.47,5.92.52,8.89Z"/><path class="cls-2" d="m97.67,173.04c-.16,0-.33.02-.49.02,0-2.94,0-5.87,0-8.81.16,0,.33-.01.49-.02,0,2.94,0,5.87,0,8.81Z"/><path class="cls-2" d="m304.93,115.05c0-2.45,0-4.89,0-7.34.18,0,.36.02.55.03,0,2.45,0,4.89.01,7.34-.18-.01-.37-.02-.55-.03Z"/><path class="cls-2" d="m305.47,107.74c-.18-.01-.36-.02-.55-.03-.05-2.17-.1-4.34-.15-6.51,1.69,2.03.34,4.38.69,6.54Z"/><path class="cls-2" d="m174.99,101.08c2.12,0,4.25,0,6.37,0-2.12,1.21-4.25,1.21-6.37,0Z"/><path class="cls-2" d="m105.74,170.84c-.17,0-.34.01-.52.02,0-2.2,0-4.4-.01-6.6.18-.01.36-.02.53-.03,0,2.2,0,4.41,0,6.61Z"/><path class="cls-2" d="m105.23,185.52c.17,0,.34.02.51.02,0,2.2,0,4.41,0,6.61-.18,0-.36-.02-.54-.03,0-2.2.01-4.4.02-6.6Z"/><path class="cls-2" d="m268.87,73.87c.24.24.49.48.73.72-.01,1.25-.02,2.51-.03,3.76-1.5-1.3-1.76-2.79-.7-4.49Z"/><path class="cls-2" d="m97.69,206.11c-1.18-1.88-.47-3.94-.54-5.93.18.02.35.03.53.05,0,1.96.01,3.92.02,5.88Z"/><path class="cls-2" d="m97.67,164.24c-.16,0-.33.01-.49.02.05-1.99-.73-4.05.52-5.94,0,1.97-.02,3.95-.03,5.92Z"/><path class="cls-2" d="m121.99,102.7c.74-.08,1.49-.16,2.23-.24,1.23.08,2.45.17,3.68.25,0,.18-.02.36-.04.53-1.96-.15-4.02.68-5.88-.54Z"/><path class="cls-2" d="m127.87,103.24c.02-.18.03-.35.04-.53,1.99.12,4.08-.88,5.95.55-2,0-3.99-.01-5.99-.02Z"/><path class="cls-2" d="m256.26,78.42c-1.89,0-3.78,0-5.67,0,1.89-1.3,3.78-1.31,5.67,0Z"/><path class="cls-2" d="m105.75,164.23c-.18,0-.36.02-.53.03,0-1.71,0-3.41,0-5.12.18-.02.35-.04.53-.05v5.14Z"/><path class="cls-2" d="m97.67,200.23c-.18-.01-.35-.03-.53-.05.01-1.71.02-3.42.04-5.13.16.01.33.03.49.04,0,1.71,0,3.43,0,5.14Z"/><path class="cls-2" d="m310.8,289.06c.17-.01.33-.03.5-.04,0,1.71,0,3.42,0,5.13-.16.02-.33.03-.49.05,0-1.71,0-3.43,0-5.14Z"/><path class="cls-2" d="m113.97,111.5c-1.73.96-3.46,1-5.19,0,1.73,0,3.46,0,5.19,0Z"/><path class="cls-2" d="m146.93,111.3c-1.48,0-2.96.01-4.44.02,1.38-1.23,2.98-.52,4.51-.54-.02.18-.04.35-.07.53Z"/><path class="cls-2" d="m304.91,126.87c0-1.49,0-2.99,0-4.48.17.01.34.03.51.04-.08,1.49.7,3.08-.52,4.44Z"/><path class="cls-2" d="m60.35,306.66v2.2h-1.47v-2.2h1.47Z"/><path class="cls-2" d="m310.8,294.2c.16-.02.33-.03.49-.05,0,1.47.01,2.94.02,4.41-.17.02-.33.03-.5.04,0-1.47,0-2.93,0-4.4Z"/><path class="cls-2" d="m119.91,112.08c-1.5-.15-3.12.58-4.5-.56,1.51.11,3.15-.85,4.5.56Z"/><path class="cls-2" d="m224.09,42.29c-1.49,0-2.99-.01-4.48-.02,1.5-1.02,2.99-.93,4.48.02Z"/><path class="cls-2" d="m199.12,85.07c-1.49.94-2.97.98-4.46,0,1.49,0,2.97,0,4.46,0Z"/><path class="cls-2" d="m97.67,195.09c-.16-.01-.33-.03-.49-.04,0-1.47,0-2.93-.01-4.4.17.01.34.02.51.03,0,1.47,0,2.94,0,4.41Z"/><path class="cls-2" d="m310.8,267.8v-4.47c.18.01.35.03.52.05-.12,1.48.73,3.07-.52,4.42Z"/><path class="cls-2" d="m273.98,80.56h4.4c-1.47,1.11-2.94,1.11-4.4,0Z"/><path class="cls-2" d="m105.75,203.9c-.2-.25-.41-.5-.61-.75,0-1.23.01-2.46.02-3.68.2,0,.4.02.6.03l.25,2.92c-.08.49-.17.99-.25,1.48Z"/><path class="cls-2" d="m184.33,78.43c-1.46-.05-2.92-.11-4.38-.16,1.5-.89,2.97-1.21,4.38.16Z"/><path class="cls-2" d="m105.75,199.49c-.2-.01-.4-.02-.6-.03.01-1.23.03-2.45.04-3.68.19.01.37.03.56.04,0,1.22,0,2.45,0,3.67Z"/><path class="cls-2" d="m97.68,190.69c-.17-.01-.34-.02-.51-.03,0-1.22,0-2.45,0-3.67.17,0,.34.02.51.03,0,1.22,0,2.45,0,3.67Z"/><path class="cls-2" d="m310.81,298.6c.17,0,.33-.02.5-.04.03,1.27.55,2.61-.52,3.73,0-1.23.01-2.46.02-3.69Z"/><path class="cls-2" d="m311.32,263.38c-.17-.02-.34-.04-.51-.05,0-1.23-.01-2.45-.02-3.68,1.04,1.12.55,2.46.53,3.73Z"/><path class="cls-2" d="m105.75,159.09c-.18.01-.35.03-.53.05,0-1.26-.48-2.6.54-3.72,0,1.22,0,2.44,0,3.66Z"/><path class="cls-2" d="m97.67,142.95c.08.49.16.98.25,1.47-.36.73.31,1.83-.82,2.29.08-1.27-.44-2.63.58-3.76Z"/><path class="cls-2" d="m305.43,122.42c-.17-.01-.34-.03-.51-.04,0-1.22,0-2.45,0-3.67.18.01.35.03.53.05,0,1.22-.02,2.44-.03,3.66Z"/><path class="cls-2" d="m146.93,111.3c.03-.18.05-.35.07-.53,1.22,0,2.44,0,3.67,0-.02.19-.04.37-.08.56-1.22,0-2.44-.02-3.66-.03Z"/><path class="cls-2" d="m150.59,111.33c.03-.18.06-.37.08-.56,1.22,0,2.44,0,3.65,0-1.12,1.02-2.46.53-3.73.56Z"/><path class="cls-2" d="m305.46,118.76c-.18-.02-.35-.04-.53-.05,0-1.22,0-2.44,0-3.66.19,0,.37.02.55.03-.01,1.23-.02,2.46-.03,3.68Z"/><path class="cls-2" d="m105.75,195.82c-.19,0-.37-.02-.56-.04,0-1.22.01-2.45.02-3.67.18.01.36.02.54.03,0,1.22,0,2.45,0,3.67Z"/><path class="cls-2" d="m171.21,299.45c-1.98,1.18-3.63.54-5.12-.95-2.26-2.42-2.26-4.63.79-7.22,1.37-1.34,2.74-2.68,4.09-4.03.04-.04-.02-.23-.09-.29-.08-.08-.22-.1-.33-.15-.15-.57.08-1.33-.79-1.52-.59-1.94-1.82-3.5-2.94-5.14-.08-.54.13-1.23-.68-1.42-.55-4.41-2.82-8.53-2.17-13.14.89-2.48,1.03-4.96,0-7.44-.69-2.06.62-3.86.73-5.82,1.46-.31,2.82-.68,2.82-2.63,0-1.5-.84-1.83-2.08-1.78.9-3.43,1.79-6.86,2.69-10.29.98-2.2,1.95-4.4,2.93-6.6.07-.24.14-.47.21-.71,1.32-2.15,3.04-4.08,3.68-6.6,1.57-.43,1.23-2.63,2.82-3.05.82,1.05,1.81,1.08,2.74.27,1.35-1.2.38-2.61.2-3.94.28-2.43,2.88-3.11,3.83-5.04,1.04.78,2.04.62,2.95-.19.84-.74.64-1.46-.22-2.07.86-2.74,3.28-4.11,5.19-5.92.83,1.1,1.87,1.01,2.87.36,1.17-.76.41-1.69.07-2.56l3.05-3.56c.45-.28.91-.57,1.36-.85.51,1.1,1.34,1.91,2.54,1.29,1.77-.92,1.01-2.73,1.13-4.22.03-.19.05-.39.06-.58.47-.3.94-.6,1.41-.89,1.49,2.22,2.79,2.19,3.65-.42.29-.86.44-1.67,1.52-1.65,3.44.06,2.93-2.38,2.91-4.53.23-.23.46-.46.68-.68,2.55,1.32,3.04-.11,2.99-2.24,1.03-2.21,3.8-2.4,5.03-4.38l.25.09c2.65,1.29,2.76-.47,2.79-2.33.02-.21.06-.42.11-.63,1.43-1.28,3.46-1.82,4.4-3.68.45-.28.91-.56,1.36-.84,2.25,1.82,2.14.04,2.21-1.46.02-.21.05-.42.11-.63,2.78-2.09,5.75-3.96,8.07-6.62.21-.03.42-.07.62-.12.82,1.12,1.86,1.03,2.87.38,1.17-.76.42-1.69.08-2.56.02-.21.06-.42.11-.63,1.05-1.19,2.9-1.38,3.65-2.94,1.2-.29,2.4-.59,3.61-.88,4.43,1.69,3.8,5.4,3.55,8.95-1.92,1.52-.88,2.29.73,2.92.72,8.77,1.92,17.51,1.63,26.35,0,2.99,0,5.98,0,8.97.35,18.05-3.84,35.07-11.78,51.21-.87,1.78-1.87,3.49-2.81,5.23-.81,1.18-1.92,2.18-2.2,3.67-.5.5-1,1-1.51,1.5-3.92-.49-4.04,1.59-2.99,4.45-.36,1.2-1.94,1.52-2.1,2.87-1.77,1.93-3.53,3.86-5.3,5.79-.7.28-1.39.56-2.09.84q-3.12.06-2.24,2.19c-.5.52-1.01,1.05-1.51,1.57-3.67,2.2-7.34,4.41-11.01,6.61-6.28,3.04-12.65,5.78-19.84,5.62-1.71-.91-3.42-.95-5.13-.01-2.05.65-3.84-.96-5.84-.68-2.02-1.8-3.79-2.11-5.03.82-.3.46-.6.93-.9,1.39-2.15.09-2.7,2.39-4.37,3.14Zm16.87-28.02c3.52.16,2.89-2.37,2.9-4.49.79-1.19,1.57-2.38,2.36-3.58,4.47,1.82,3.32-1.59,3.51-3.76-.1-1.12.54-1.76,1.47-2.2,1.75,1.54,2.56.49,2.89-1.18.21-1.03.05-2.14.05-3.21,3.72-5.6,7.44-11.2,11.16-16.8,3.59.03,4.08-.76,2.78-4.49,1.73-3.45,3.35-6.96,5.22-10.32,1.21-2.17,3.57-2.8,5.59-1.78,2.42,1.22,2.64,3.97,1.44,6.02-3.95,6.76-7.32,13.88-12.12,20.14-3.99.19-5.07,1.7-3.68,5.14-1.25,2.77-2.76,5.36-5.15,7.34-3.92-.49-4.04,1.59-2.99,4.44-.54.71-1.08,1.42-1.61,2.13-2.98.12-3.08.24-1.98,2.24-1.05,1.46-2.11,2.91-3.16,4.37-2.46.05-5.5-.44-3.51,3.76.2.86-.51,1.36-.8,2.02-1.11.83-2.29,1.61-2.78,3.02-.54.71-1.09,1.41-1.63,2.12-1.17.94-2.94,1.76-2.65,3.37.12.69,1.99,1.53,3.42,1,6.59.51,12.56-1.58,18.35-4.4,1.81-.8,3.7-1.44,5.22-2.79.67-.29,1.18-1,2.04-.79,1.74.95,2.86.69,2.99-1.52.09-1.86,2.1-1.82,2.93-2.96.46.87.95,1.8,2.14,1.14,1.61-.89,1.67-2.45,1.54-4.04,2.25-2.42,4.5-4.84,6.76-7.26,2.62.95,1.89-1.07,2.05-2.3.06-3.24,2.71-5.24,3.83-7.98,4.4,1.49,1.34-2.05,2.04-3.04,2.25-5.6,4.51-11.19,6.76-16.79,1.25.01,2.51-.11,2.69-1.65.16-1.32-.75-1.88-1.95-2.02l.73-2.2c1.25.01,2.5-.11,2.69-1.66.16-1.32-.75-1.88-1.95-2.02,1.49-7.98,2.36-16.01,2.12-24.14,1.14-2.5,1.13-5.01,0-7.51-.35-5.42.42-10.85-.66-16.29-.44-2.24-.68-4.81.54-7.08.92-.8,1.19-1.71-.2-2.08-1.74-.47-1.95.8-1.89,2.13-2.32,2.62-5.26,4.48-8.02,6.56-1.5.46-3.7-1.24-4.49,1.44-.98.49-1.96.98-2.94,1.47-1.37,1.02-.32,2.01.03,3.01-4.45,3.65-8.83,7.38-13.37,10.92-2.86,2.23-5.24,5.07-8.6,6.66-3.46-1.08-3.72-.82-3.74,3.7-.7,1.59-2.28,2.1-3.61,2.9-1.2-.63-2.29-1.05-3.55.1-1.37,1.25-.16,2.42-.17,3.61-1.24,1.66-2.69,3.12-4.36,4.35-4.74.02-5.74,1.03-4.38,4.41-.76,2.1-2.64,3.36-3.89,5.09-4.5-1.4-2.16,2.28-2.79,3.76-4.6,6.97-8.01,14.46-9.69,22.68-1.44.19-2.47.99-2.68,2.4-.2,1.31.75,1.86,1.95,2,.04,1.83.33,3.69.07,5.47-.82,5.61.03,11.05,1.78,16.3,1.69,5.07,2.61,5.14,6.28,1.41.59-.6,1.12-1.26,1.68-1.89,1.47.03,2.95.12,4.27-.73,1.23-1.03.55-2.43.73-3.67Z"/><path class="cls-2" d="m202.85,194.37c.21-.03.42-.06.62-.12-.12,1.48.64,3.29-1.13,4.22-1.2.62-2.03-.19-2.54-1.29.53-.69,1.05-1.39,1.58-2.08.58-.06,1.29.12,1.47-.74Z"/><path class="cls-2" d="m165.45,247.93c1.24-.05,2.08.28,2.08,1.78,0,1.95-1.35,2.32-2.82,2.63-.65-1.62.47-2.94.73-4.41Z"/><path class="cls-2" d="m180.72,217.01c.18,1.33,1.15,2.75-.2,3.94-.92.82-1.92.78-2.74-.27.11-1.92,1.74-2.62,2.94-3.68Z"/><path class="cls-2" d="m237.97,268.4c-.47.3-.94.59-1.41.89-1.05-2.86-.93-4.93,2.99-4.45.31,1.56-1.93,1.98-1.58,3.56Z"/><path class="cls-2" d="m192.46,203.8c.28-.45.57-.9.85-1.35.7-.28,1.39-.56,2.09-.84.34.87,1.09,1.8-.07,2.56-1,.65-2.03.74-2.87-.36Z"/><path class="cls-2" d="m184.45,211.31c1.04-.35,1.43-1.86,2.82-1.59.86.6,1.06,1.33.22,2.07-.9.8-1.91.96-2.95.19-.12-.21-.15-.43-.09-.66Z"/><path class="cls-2" d="m257.86,203.24c0-2.99,0-5.98,0-8.97,1.14,2.99,1.17,5.98,0,8.97Z"/><path class="cls-2" d="m213.7,185.5c.06-.22.11-.45.17-.67,1-.41,1.48-1.77,2.82-1.57.04,2.14-.44,3.57-2.99,2.24Z"/><path class="cls-2" d="m163.98,258.16c1.02,2.48.88,4.96,0,7.44,0-2.48,0-4.96,0-7.44Z"/><path class="cls-2" d="m227.08,278.79c-.53.69-1.06,1.37-1.59,2.06-.21.06-.43.1-.65.13q-.89-2.13,2.24-2.19Z"/><path class="cls-2" d="m256.24,167.91c-1.62-.63-2.65-1.41-.73-2.92.7.86,1.13,1.79.73,2.92Z"/><path class="cls-2" d="m187.35,294.78c1.71-.94,3.43-.9,5.13.01-1.71,0-3.42,0-5.13-.01Z"/><path class="cls-2" d="m255.75,84.23c1.2.14,2.11.7,1.95,2.02-.18,1.54-1.44,1.67-2.69,1.66.24-1.22.49-2.45.73-3.67Z"/><path class="cls-2" d="m204.94,192.78c2.49-2.16,4.97-4.32,7.46-6.48.21-.03.42-.06.62-.12.03,2.15.53,4.59-2.91,4.53-1.07-.02-1.23.79-1.52,1.65-.87,2.61-2.16,2.64-3.65.42Z"/><path class="cls-2" d="m233.57,181.04c-.47.3-.94.59-1.41.89-.35-1-1.4-1.99-.03-3.01,1.15-.14,2.7.5,2.94-1.47.79-2.68,2.99-.97,4.49-1.44-.06.21-.09.42-.11.63-1.05,0-1.8.47-2.21,1.46-.69.29-1.2.77-1.46,1.48-1.05,0-1.8.47-2.21,1.46Z"/><path class="cls-2" d="m194.77,214.19l-4.38,4.41c-1.36-3.39-.36-4.39,4.38-4.41Z"/><path class="cls-2" d="m215.35,245.77c-1.13,1.78-1.96,3.78-3.68,5.14-1.39-3.44-.32-4.94,3.68-5.14Z"/><path class="cls-2" d="m220.35,274.25c1.01-1.24,1.84-2.71,3.68-2.91.13,1.59.07,3.15-1.54,4.04-1.19.66-1.69-.27-2.14-1.14Z"/><path class="cls-2" d="m183.09,275.83c1.01-1.87,2.61-3.2,4.23-4.49.01,1.25.02,2.5.03,3.75-1.32.85-2.8.76-4.27.73Z"/><path class="cls-2" d="m212.44,236.19c.78-1.59,1.09-3.47,2.78-4.49,1.3,3.73.81,4.53-2.78,4.49Z"/><path class="cls-2" d="m202.85,206.12c-1.03,1.45-2.28,2.68-3.72,3.72.02-1.2-1.2-2.36.17-3.61,1.26-1.16,2.35-.74,3.55-.1Z"/><path class="cls-2" d="m198.33,257.39c.44-1.83,1.56-3.2,2.94-4.4,0,1.07.16,2.18-.05,3.21-.34,1.67-1.14,2.72-2.89,1.18Z"/><path class="cls-2" d="m210.2,199.52c-1.25,1.23-2.49,2.47-3.74,3.7.02-4.53.28-4.78,3.74-3.7Z"/><path class="cls-2" d="m193.35,263.36c.73-1.67,2.16-2.68,3.51-3.76-.19,2.17.96,5.59-3.51,3.76Z"/><path class="cls-2" d="m187.49,270.7c.73-1.67,2.15-2.68,3.51-3.76-.01,2.11.62,4.65-2.9,4.49-.2-.24-.4-.48-.6-.73Z"/><path class="cls-2" d="m174.02,250.13c.66,1.62-.47,2.94-.73,4.41-1.2-.14-2.15-.7-1.95-2,.22-1.41,1.24-2.21,2.68-2.4Z"/><path class="cls-2" d="m206.52,258.24c-.18,2.03-2.25,2.79-2.99,4.44-1.05-2.86-.93-4.93,2.99-4.44Z"/><path class="cls-2" d="m196.78,271.42c-.73,1.66-2.18,2.66-3.51,3.76-1.99-4.2,1.05-3.72,3.51-3.76Z"/><path class="cls-2" d="m245.47,233.98c-.63-1.4.73-2.4.74-3.67,1.21.14,2.11.7,1.95,2.02-.19,1.54-1.44,1.66-2.69,1.65Z"/><path class="cls-2" d="m241.64,162.68c.74-1.05,1.44-2.17,2.95-2.18.34.87,1.09,1.8-.08,2.56-1,.65-2.04.74-2.87-.38Z"/><path class="cls-2" d="m246.94,228.11c.24-1.22.49-2.45.73-3.67,1.2.14,2.11.7,1.95,2.02-.18,1.54-1.44,1.67-2.69,1.66Z"/><path class="cls-2" d="m186.5,223.7c-.93,1.25-1.86,2.5-2.79,3.76.62-1.48-1.71-5.15,2.79-3.76Z"/><path class="cls-2" d="m249.67,169.42c-.7.02-1.39.03-2.09.05-.06-1.33.15-2.6,1.89-2.13,1.39.38,1.12,1.29.2,2.08Z"/><path class="cls-2" d="m221.97,178.97c.43-1.38,1.31-2.21,2.79-2.33-.03,1.86-.14,3.62-2.79,2.33Z"/><path class="cls-2" d="m236.66,253.81c.48-1.15.73-2.45,2.04-3.04-.71,1,2.36,4.53-2.04,3.04Z"/><path class="cls-2" d="m249.79,200.3c0-2.5,0-5.01,0-7.51,1.13,2.5,1.14,5.01,0,7.51Z"/><path class="cls-2" d="m214.43,278.73c.52-1.45,1.76-1.47,2.99-1.52-.13,2.21-1.25,2.47-2.99,1.52Z"/><path class="cls-2" d="m230.79,264.09c-.34-1.68.67-2.15,2.05-2.3-.16,1.23.57,3.25-2.05,2.3Z"/><path class="cls-2" d="m201.92,264.81c-.25,1.11-1.16,1.64-1.98,2.24-1.1-2.01-1-2.12,1.98-2.24Z"/><path class="cls-2" d="m230.63,171.5c.41-.99,1.15-1.45,2.21-1.46-.07,1.49.05,3.27-2.21,1.46Z"/><path class="cls-2" d="m187.49,270.7c.2.24.4.48.6.73-.18,1.24.49,2.64-.73,3.67-.01-1.25-.02-2.5-.03-3.75,0-.23.05-.44.16-.64Z"/><path class="cls-2" d="m235.07,177.46c-.24,1.97-1.78,1.33-2.94,1.47.98-.49,1.96-.98,2.94-1.47Z"/></g></svg>