<?xml version="1.0" encoding="UTF-8"?><svg id="Calque_2" xmlns="http://www.w3.org/2000/svg" viewBox="0 0 433.31 407.13"><defs><style>.cls-1{fill:#cd4c55;}</style></defs><g id="Calque_1-2"><path class="cls-1" d="m30.84,298.43l16.89,46.51c.63,1.75,1.21,2.94,1.73,3.56.52.62,1.26,1.08,2.22,1.39l3.58,1.06.08,1.63c-3.32-.07-6.4-.11-9.24-.11s-6.3.04-10.23.11l-.15-1.63,3.61-1.06c.51-.18.87-.37,1.08-.59s.32-.55.32-1.01c0-.51-.13-1.17-.4-2-.27-.82-.64-1.92-1.12-3.29l-3.58-10.19h-18.33l-3.99,10.16c-.53,1.42-.95,2.55-1.25,3.38-.3.84-.46,1.5-.46,1.98,0,.43.12.76.36.97.24.22.6.4,1.08.55l3.54,1.03.08,1.71c-3.6-.07-6.54-.11-8.82-.11s-4.83.04-7.64.11l-.19-1.63,3.84-1.18c.96-.3,1.67-.77,2.13-1.41s.96-1.62,1.52-2.97l19.43-46.4,3.92-.57Zm-12.13,30.92h15.67l-7.42-20.96-8.25,20.96Z"/><path class="cls-1" d="m112,299.23c2.38.1,4.54.15,6.47.15s4.4-.05,7.57-.15l.15,1.63-4.79,1.48c-.58.2-.89.63-.91,1.29-.05,1.67-.08,3.78-.08,6.31v30.84c0,2.99.02,5.51.08,7.57.02.58.38.98,1.06,1.18l4.56,1.41.08,1.63c-3.35-.07-6.55-.11-9.6-.11s-5.97.04-8.88.11l-.15-1.63,4.37-1.33c.61-.18.93-.62.95-1.33.05-2,.08-4.5.08-7.49v-32.94l-18.86,44.61-2.78.3-18.98-44.92v32.94c0,2.99.02,5.49.08,7.49.02.71.35,1.15.99,1.33l4.26,1.33.08,1.63c-3.02-.07-5.54-.11-7.57-.11s-4.6.04-7.87.11l-.15-1.63,4.68-1.41c.66-.2,1-.6,1.03-1.18.05-2.05.08-4.58.08-7.57v-30.84c0-2.54-.03-4.64-.08-6.31-.03-.66-.33-1.09-.91-1.29l-4.72-1.48-.08-1.63c3.27.1,5.86.15,7.76.15,2.18,0,4.45-.05,6.81-.15l17.66,41.72,17.62-41.72Z"/><path class="cls-1" d="m138.28,299.23c3.27.1,6.47.15,9.61.15,1.19-.05,3.11-.13,5.76-.23,2.66-.1,4.45-.15,5.38-.15,5.57,0,9.78,1.03,12.63,3.1,2.85,2.07,4.27,5.04,4.27,8.92,0,6.24-3.36,10.48-10.08,12.74,3.93.66,6.95,2.12,9.05,4.37,2.1,2.26,3.16,5.13,3.16,8.63,0,5.07-1.84,9-5.53,11.77-3.69,2.78-8.8,4.16-15.34,4.16-1.3,0-2.7-.04-4.22-.11-1.51-.07-3.21-.11-5.09-.11-3.08,0-6.23.04-9.45.11l-.15-1.63,4.68-1.41c.63-.18.98-.57,1.03-1.18.03-1.01.04-2.15.06-3.4.01-1.25.02-2.64.02-4.16v-30.84c0-1.29,0-2.46-.02-3.5-.01-1.04-.03-1.98-.06-2.81-.03-.66-.33-1.09-.91-1.29l-4.72-1.48-.08-1.63Zm13.24,23.73c1.56.03,3.15.04,4.77.04,3.74,0,6.55-.91,8.46-2.72,1.9-1.81,2.86-4.44,2.86-7.89,0-3.63-.98-6.23-2.93-7.82-1.95-1.58-4.77-2.38-8.46-2.38-.66,0-1.38.02-2.16.06-.78.04-1.63.11-2.54.21v20.5Zm0,3.04v23.08c.76.28,1.63.46,2.63.53,1,.07,1.91.11,2.75.11,4.19,0,7.38-1.04,9.56-3.12,2.18-2.08,3.28-5.1,3.28-9.05s-1.1-6.89-3.31-8.8c-2.21-1.91-5.78-2.87-10.7-2.87-1.44,0-2.84.04-4.2.11Z"/><path class="cls-1" d="m202.7,340.8c0,1.52,0,2.89.02,4.11.01,1.22.03,2.32.06,3.31.02.79.35,1.28.99,1.48l4.22,1.26.11,1.63c-3.02-.07-6.03-.11-9.05-.11s-6.21.04-9.43.11l-.15-1.63,4.68-1.41c.63-.18.98-.57,1.03-1.18.02-1.01.04-2.15.06-3.4.01-1.25.02-2.64.02-4.16v-30.84c0-1.29,0-2.46-.02-3.5-.01-1.04-.03-1.98-.06-2.81-.03-.66-.33-1.09-.91-1.29l-4.72-1.48-.08-1.63c3.27.1,6.47.15,9.59.15.62,0,1.4-.02,2.34-.06.95-.04,2.1-.08,3.46-.13,1.38-.05,2.54-.09,3.46-.11s1.65-.04,2.19-.04c5.84,0,10.22,1.09,13.14,3.27s4.38,5.36,4.38,9.55c0,3.78-1,6.84-3.01,9.19-2,2.35-5.06,4.15-9.18,5.42,1.62,2.43,3.11,4.79,4.47,7.06,1.36,2.27,2.63,4.35,3.8,6.24,1.17,1.89,2.24,3.56,3.21,5,.97,1.44,1.88,2.59,2.71,3.42.43.43.86.81,1.29,1.12.43.32.88.58,1.35.78.47.2.96.38,1.48.53.52.15,1.1.3,1.73.46l.11,1.67c-1.83.23-3.36.34-4.6.34-1.04,0-1.95-.03-2.74-.08-.79-.05-1.49-.15-2.11-.3s-1.18-.35-1.68-.59c-.5-.24-1-.55-1.48-.93-1.05-.78-2.09-1.92-3.1-3.4-1.01-1.48-2.07-3.16-3.16-5.04-1.09-1.88-2.23-3.87-3.41-5.99-1.18-2.12-2.43-4.19-3.74-6.22-.39-.61-.71-1.09-.98-1.44s-.57-.63-.89-.84c-.32-.2-.69-.34-1.12-.42s-.97-.13-1.64-.15l-2.66-.08v13.2Zm0-16.05c1.55.08,2.98.11,4.3.11,4.39,0,7.6-.93,9.64-2.8,2.04-1.86,3.06-4.79,3.06-8.77s-.98-6.67-2.93-8.44c-1.95-1.77-5.01-2.66-9.17-2.66-.71,0-1.47.03-2.28.08-.81.05-1.69.13-2.62.23v22.25Z"/><path class="cls-1" d="m296.14,324.71c0,8.77-2.49,15.83-7.47,21.16-4.98,5.34-11.94,8.01-20.88,8.01s-15.06-2.47-19.7-7.4c-4.65-4.93-6.97-11.6-6.97-20.02s2.5-15.71,7.51-20.82c5-5.11,11.94-7.66,20.81-7.66s15.09,2.39,19.74,7.17c4.65,4.78,6.98,11.3,6.98,19.57Zm-46.71.49c0,8.27,1.67,14.6,5.02,19,3.35,4.4,8.25,6.6,14.72,6.6s11.06-2,14.09-5.99c3.03-3.99,4.55-10.26,4.55-18.81,0-8.01-1.61-14.17-4.83-18.48-3.22-4.31-8.19-6.47-14.91-6.47s-11.25,2-14.2,5.99c-2.95,3.99-4.43,10.05-4.43,18.16Z"/><path class="cls-1" d="m334.74,302.69c-2.66-.89-5.11-1.33-7.34-1.33-3.35,0-6.02.81-8.01,2.43-1.99,1.62-2.99,3.88-2.99,6.77,0,1.65.35,3.09,1.05,4.34.7,1.24,1.63,2.33,2.81,3.27,1.18.94,2.52,1.77,4.01,2.51s3.04,1.46,4.64,2.17c1.75.76,3.45,1.57,5.1,2.41,1.65.85,3.14,1.85,4.47,2.99,1.33,1.14,2.4,2.51,3.19,4.11s1.2,3.46,1.2,5.59c0,5.05-1.97,8.9-5.91,11.56s-9.05,3.99-15.31,3.99c-4.03,0-8.49-.68-13.39-2.05l-.23-.3,1.86-12.93,1.71-.27,2.66,10.8c2.69,1.06,5.44,1.6,8.25,1.6,3.78,0,6.72-.84,8.84-2.51,2.12-1.67,3.18-4.06,3.18-7.15,0-1.62-.34-3.05-1.03-4.28s-1.6-2.29-2.76-3.18c-1.15-.89-2.47-1.69-3.94-2.42-1.47-.72-2.99-1.44-4.56-2.15-1.77-.76-3.5-1.58-5.17-2.47-1.67-.89-3.19-1.92-4.55-3.1-1.36-1.18-2.44-2.62-3.25-4.34-.81-1.71-1.22-3.71-1.22-5.99,0-4.59,1.92-8.14,5.76-10.65,3.84-2.51,8.6-3.76,14.28-3.76,4.01,0,8.2.47,12.59,1.41l.27.27-2.24,11.87-1.52.27-2.47-9.47Z"/><path class="cls-1" d="m365.96,340.8c0,1.52,0,2.9.02,4.14.01,1.24.03,2.37.06,3.38.03.64.47,1.06,1.33,1.29l4.3,1.33.08,1.63c-3.27-.07-6.41-.11-9.43-.11s-6.21.04-9.43.11l-.15-1.63,4.68-1.41c.63-.18.98-.57,1.03-1.18.03-1.01.04-2.15.06-3.4.01-1.25.02-2.64.02-4.16v-30.84c0-1.29,0-2.46-.02-3.5-.01-1.04-.03-1.98-.06-2.81-.03-.66-.33-1.09-.91-1.29l-4.72-1.48-.08-1.63c3.27.1,6.41.15,9.43.15s6.19-.05,9.43-.15l.15,1.63-4.72,1.41c-.61.15-.94.55-.99,1.18-.03.89-.04,1.86-.06,2.91s-.02,2.2-.02,3.44v31Z"/><path class="cls-1" d="m408.82,298.43l16.89,46.51c.63,1.75,1.21,2.94,1.73,3.56.52.62,1.26,1.08,2.22,1.39l3.58,1.06.08,1.63c-3.32-.07-6.4-.11-9.24-.11s-6.3.04-10.23.11l-.15-1.63,3.61-1.06c.51-.18.87-.37,1.08-.59s.32-.55.32-1.01c0-.51-.13-1.17-.4-2-.27-.82-.64-1.92-1.12-3.29l-3.58-10.19h-18.33l-3.99,10.16c-.53,1.42-.95,2.55-1.25,3.38-.3.84-.46,1.5-.46,1.98,0,.43.12.76.36.97.24.22.6.4,1.08.55l3.54,1.03.07,1.71c-3.6-.07-6.54-.11-8.82-.11s-4.83.04-7.64.11l-.19-1.63,3.84-1.18c.96-.3,1.67-.77,2.13-1.41s.96-1.62,1.52-2.97l19.44-46.4,3.92-.57Zm-12.13,30.92h15.67l-7.42-20.96-8.25,20.96Z"/><path class="cls-1" d="m147.49,392.42c0,2.2-.35,4.2-1.06,6.01-.7,1.8-1.7,3.35-2.98,4.64-1.29,1.29-2.82,2.29-4.61,3-1.79.71-3.78,1.07-5.97,1.07h-11.07v-29.43h11.07c2.19,0,4.17.35,5.97,1.07,1.79.71,3.33,1.71,4.61,3,1.28,1.29,2.28,2.84,2.98,4.65.7,1.81,1.06,3.81,1.06,5.99Zm-4.47,0c0-1.75-.24-3.32-.72-4.7-.48-1.39-1.16-2.56-2.04-3.53-.88-.96-1.95-1.7-3.2-2.2-1.25-.5-2.65-.76-4.19-.76h-6.68v22.38h6.68c1.54,0,2.94-.25,4.19-.76s2.32-1.24,3.2-2.2c.88-.96,1.56-2.14,2.04-3.51.48-1.38.72-2.95.72-4.72Z"/><path class="cls-1" d="m194.33,407.13h-3.89c-.78,0-1.35-.31-1.7-.92l-7.28-10.21c-.23-.34-.48-.58-.76-.73-.27-.14-.68-.21-1.23-.21h-2.85v12.07h-4.37v-29.43h8.49c1.9,0,3.54.19,4.91.58s2.51.94,3.4,1.66,1.56,1.58,1.99,2.59c.43,1.01.65,2.15.65,3.4,0,1.02-.16,1.99-.47,2.89-.31.9-.78,1.71-1.38,2.43-.61.72-1.35,1.34-2.22,1.86s-1.87.92-2.97,1.19c.55.33,1.02.78,1.41,1.37l8.28,11.46Zm-13.73-15.25c1.12,0,2.11-.14,2.96-.41.85-.27,1.57-.66,2.14-1.16s1-1.09,1.29-1.78.43-1.45.43-2.29c0-1.69-.56-2.97-1.67-3.83s-2.79-1.29-5.01-1.29h-4.12v10.76h3.98Z"/><path class="cls-1" d="m221.76,407.13h-4.39v-29.43h4.39v29.43Z"/><path class="cls-1" d="m272.55,377.7l-11.97,29.43h-3.92l-11.97-29.43h3.49c.38,0,.69.1.93.29.24.19.42.44.54.74l7.95,20.01c.19.49.38,1.03.56,1.62.18.59.35,1.2.5,1.84.14-.64.29-1.26.45-1.84.17-.59.34-1.13.53-1.62l7.93-20.01c.1-.27.27-.51.52-.72.25-.2.56-.31.93-.31h3.51Z"/><path class="cls-1" d="m313.75,403.59l-.02,3.55h-18.24v-29.43h18.24v3.55h-13.86v9.33h11.15v3.42h-11.15v9.59h13.88Z"/><path class="cls-1" d="m347.75,111.73c22.87,46.79,3,96.41-34.04,129.11-46.63,44.15-119.66,50.53-173.65,15.88-40.69-25.58-65.76-73.45-64.18-121.42C77.07,70.45,125.27,12.5,189.68,2.1c23.11-3.98,46.99-2.28,69.21,4.95,7.34,2.45,14.47,5.5,21.27,9.12C238.25-2.72,187.8-.46,148.72,23.33c-38.5,23.4-63.26,67.13-63.51,112.16-1.18,79.22,66.68,140.9,145.31,133.73,30.59-2.57,57.88-15.14,80.6-35.63,35.88-30.67,54.85-76.1,36.64-121.85h0Z"/><path class="cls-1" d="m235.05,57.1c.78-1.75,1.04-3.62,1.3-5.49.54-.81.56-1.63,0-2.44.05-1.6-.75-3.12-.49-4.74,1.25-.07,2.42-.24,2.42-1.9,1-.16,1.37.55,1.56,1.28.36,1.38.59,2.78.87,4.18,0,.81,0,1.63,0,2.44-.03.12-.07.25-.12.37-.86-.09-1.59.07-1.64,1.11-.05.87,0,1.74,1.25,1.67.56.78.64.27.96-.25.75-1.23,1.17-2.64,2.08-3.8.41-.52.77-.9,1.39-1.04.24,1.57,1.3,1.99,2.71,1.92.26.53-.23.81-.41,1.19-2.44.07-2.71.47-1.88,2.83-.13.49-.27.99-.4,1.48-.15,1.79.37,2.35,1.55,1.52,1.25-.88,2.36-2.04,3.45-3.12.98-.96,1.94-1.48,2.98-.55.36.32.68.6,1.17.62.01.61-.32.98-.83,1.24-1.22.54-2.42,1.1-3.19,2.27-1.37,1.32-3.28,2.42-3.93,4.02-.61,1.5,1.35,2.98,2.08,4.5,1.4,2.89,1.66,5.98,2.23,9.01.11.59.32.77.83.81,1.06.52,2.11.52,3.17,0,.66,0,1.32,0,1.98,0,.19,2.36,1.35,1.38,2.42.7.25.28.49.57.74.85.14.24.28.47.43.71-.57.92-.43,1.72.38,2.42.97.04,1.61.75,2.38,1.19.79.6,1.59.6,2.38,0,0-.15,0-.29.01-.44,1.45.65,2.9,1.31,4.35,1.96.53.26,1.06.52,1.59.79.66.27,1.32.53,1.98.8.53.26,1.06.52,1.59.79.52.17,1.05.34,1.57.52.55.57,1.3.78,2,1.07.13.04.26.07.38.11.55.57,1.18.9,2,.69.26,0,.53,0,.79,0,.45.4.99.52,1.57.51.15.63.3,1.26.45,1.89,0,1.99.02,3.98.02,5.98.03,1.07-.36,2.18.28,3.2-.19.49-.48.96-.32,1.53,0,.54-.01,1.09-.02,1.63-.77.3-1.33.73-1.18,1.69.14.91.74,1.1,1.51,1.08.04.13.09.26.13.4,0,1.31,0,2.63-.01,3.94v2.43c-.17,5.68.55,11.33.65,16.99.09,4.65.78,9.27.42,13.93-.94-.13-1.4.47-1.43,1.23-.05,1.18.74,1.74,1.83,1.92.04,1.32.09,2.64.13,3.96-.37,1,.44,1.83.4,2.78v4.36c-.26.98.07,1.88.4,2.78-.32,5.56.64,11.09.4,16.65-.16.72-.13,1.4.4,1.98,0,.79,0,1.59,0,2.38,0,.26,0,.52-.01.78,0,.66,0,1.32,0,1.99,0,1.59,0,3.18,0,4.77,0,1.99,0,3.99-.01,5.98,0,.25,0,.5.01.75,0,.8,0,1.61,0,2.41-.04,1.32-.08,2.63-.13,3.95-1.04-.05-1.58.4-1.51,1.47.04.69.12,1.38,1.12.91,0,2.25,0,4.49,0,6.74-.95-.05-1.67.37-1.84,1.29-.12.66-.49,1.58.65,1.88-.09.63-.52.82-1.08.81-1.07-.14-2.14-.94-3.22-.02-1.28.42-1.37,1.25-.8,2.31-3.04,1.06-6.08,2.11-9.12,3.17-.63-.43-1.22-1.31-1.99-1.05-1.22.42-2.48.61-3.7.96-.6.17-.74,1.02-.26,1.68-.64.73-1.68.26-2.38.79-.51-.28-1.01-.59-1.54-.83-1.65-.76-3.42.24-3.61,2.02-1.72.44-3.44.88-5.15,1.32-1.32.27-2.64.53-3.96.8-3.16.64-6.3,1.34-9.48,1.86-.68.11-1.3.58-2.02.39.12-.98-.19-1.8-1.26-1.82-1.39-.02-1.89.94-1.92,2.22-3.62.57-7.2,1.37-10.86,1.67-.36.03-.69.29-1.04.44-1.08-.22-2.13.03-3.17.26.12-.98-.19-1.8-1.25-1.82-1.39-.02-1.89.95-1.92,2.22l-2.38.53c-4.07.63-8.13,1.33-12.22,1.87-1.76.23-3.55.2-5.23.9-3.09,0-6.09.69-9.12,1.19-1-.37-1.83.44-2.78.4h-.4c-.83-.1-1.67-.24-2.38.4h-.79c-.39-.04-.78-.09-1.17-.13-.8-.51-1.61-.52-2.41,0-1.04.16-1.88-.4-2.76-.79.28-2.53-2.07-4.4-4.38-3.47-.12-.02-.24-.05-.36-.08-.25-.98-.83-1.74-1.59-2.38.05-.59-.27-.94-.76-1.17-.57-1.36-1.34-2.57-2.41-3.59-.01-.23-.02-.47-.03-.7,0-.53.04-1.06.01-1.59-.1-1.96-1.63-2.8-3.58-1.97-.85-.3-1.38-1.19-2.34-1.29-2.62-2.05-5.85-2.34-8.91-3.14-.36-.09-.68-.3-1.02-.45-.13-2.74-2.12-2.35-3.89-2.31-.04-.53-.09-1.05-.13-1.58,0-.8,0-1.59,0-2.39.33-1.17-.39-2.46.41-3.58.62-.29,1.33-.45,1.63-1.18h.79c.02.77.55.81,1.12.79.04.93.09,1.85.13,2.78.24,2.13,1.88,1.4,3.11,1.52.58.04,1.14.11,1.59.53-.02.78.15,1.43,1.09,1.49.77.05,1.21-.32,1.29-1.1,1.09-.26,2.07.74,3.17.26,1.29-.65,1.75-1.92,2.31-3.11.57-.79,1.15-1.59,1.72-2.38.82.28,1.69.47,2.31-.3.75-.93.43-1.95-.02-2.92.55-.9,1.1-1.81,1.65-2.71.53-.22.8-.62.79-1.19.77-.3.79-1.35,1.61-1.6.94.64,1.62.08,1.77-.7.24-1.24-.68-1.65-1.77-1.71l-.13.04c.37-3.46-.54-6.88-.4-10.33.04-.13.09-.26.13-.4.77-.18,1.59-.34,1.48-1.39-.11-1.1-.81-1.53-1.88-1.39-.04-.13-.09-.26-.13-.4v-5.15c.22-.62-.03-1.12-.4-1.59.32-6.62-.6-13.21-.4-19.83.23-1.1,0-2.15-.4-3.17.14-.52.27-1.05.41-1.57,0-1.06,0-2.12,0-3.18,0-.93,0-1.85,0-2.78,0-.79,0-1.59,0-2.38,0-.66,0-1.32,0-1.98,0-2.52,0-5.03-.01-7.55,0-1.59,0-3.17,0-4.76,0-1.07.01-2.13.02-3.2-.72-2.06-.2-4.18-.33-6.27.61-.24.25-.84.44-1.23.83-.43,1.68-.8,1.52-2.02-.12-.95-.7-1.18-1.52-1.16-.27-5.28.03-10.54.31-15.81,0-.45.05-.91-.01-1.36-.17-1.21-1.32-1.31-2.14-1.71-.64-.31-1.3-.25-1.42.69l-1.19-1.2c.36-.65.71-1.46.3-2.04-.89-1.24-1.92-2.42-3.04-3.46-.76-.7-1.13-.06-1.21.73-.26-.3-.52-.6-.78-.9-.01-.58.05-1.17-.06-1.73-.22-1.17-1.21-1.09-1.99-.92-1,.23-.89.9-.29,1.55-.95,1.5-.15,3.18-.51,4.74-.58.08-1.37-.24-1.49.73-.11.84.07,1.54,1.09,1.65,0,.79,0,1.59,0,2.38-.95-.04-1.72.35-1.83,1.29-.1.88.59,1.33,1.43,1.48-.1,5.19-.77,10.35-1.03,15.52-.28,5.4-.85,10.79-.95,16.2-.54.44-1.63.27-1.53,1.45.07.76.33,1.24,1.13,1.32.37,3.46-.54,6.86-.4,10.31-.95-.11-1.72.16-1.82,1.2-.09.93.32,1.63,1.43,1.58.04,1.32.09,2.64.13,3.96.06,1.21-.78,2.32-.4,3.57-.04,1.19-.09,2.38-.13,3.58-.85.41-1.99.61-1.84,1.92.09.77.52,1.34,1.44,1.24.04.13.09.26.13.4.11,3.79-.41,7.55-.56,11.33-.11,2.73-.11,5.47-.33,8.19-.4,4.86-.81,9.71-.69,14.6l-.13-.04c-.77.01-1.43.19-1.5,1.12-.07.84.06,1.57,1.11,1.68.04.13.09.26.13.4-.04,1.45-.09,2.91-.13,4.36-.61.06-1.41-.24-1.52.79h-.79c-.28-.69-.85-.83-1.52-.79-.12-4.56.24-9.09.71-13.62.04-.39.04-.79,0-1.18-.29-3.87.61-7.69.4-11.55-.02-.28.05-.51.35-.61.77-.35,1.64-.57,1.64-1.7,0-1.07-.72-1.29-1.52-1.45.07-1.46-.48-2.96.28-4.38.77-.35,1.64-.57,1.64-1.7,0-1.07-.72-1.29-1.52-1.45-.1-4.6.24-9.17.7-13.73.15-1.49.07-3,.09-4.51.9.06,1.59-.32,1.82-1.17.22-.83-.39-1.15-1.13-1.23-.76-1.53-.11-3.18-.42-4.74,0-.69.74-1.23.4-1.98.15-3.04.31-6.08.46-9.12.02-.31-.06-.66.35-.81,1.67-.79,1.71-1.58.12-2.75,0-.94-.41-1.92.27-2.8,2.1-1.22,2.13-1.95.12-3.15-.47-3.19.72-6.33.26-9.52.62-.71.5-1.54.4-2.37,0-1.06,0-2.12,0-3.18,0-.69.74-1.23.4-1.98.29-4.8.5-9.6.91-14.39.11-1.28.1-2.64.7-3.86,2.12-.18,3.86-1.56,5.96-1.85.48-.07.8-.66.83-1.24,3.4-.76,6.82-1.41,10.31-1.59.1.93.71,1.15,1.52,1.12.57-.03,1.03-.21,1.18-.82.14-.57.06-1.05-.65-1.16-.02-2.78-.33-5.57.26-8.33.26-.79.53-1.59.79-2.38.43-1.05.86-2.11,1.3-3.16.4-.66,1.12-1.12,1.2-1.98.67-.75,1.51-1.42,1.95-2.28.55-1.07-.51-1.57-1.19-2.13-.63-.58-.74-1.57-1.58-1.99-1.17-1.9-2.28-3.83-3.12-5.91.54-.38,1.3-.83,1.03-1.51-.86-2.16.55-2.29,2-2.45,1.06,3.32,2.71,6.32,5.17,9.36,0-2.06,0-3.72,0-5.38,0-.66,0-1.32-.01-1.98,0-.81,0-1.61.01-2.42-.69-1.2-.28-2.36.1-3.53.38-.15.75-.31,1.13-.46.89,1.11,1.41,2.54,2.8,3.22.11.92-.31,1.91.33,2.77v4.31c1.07.05.85-.88,1.31-1.13.96.08,1.86-.09,2.21-1.11.28-.84-.45-1.24-1.01-1.66.26-.66.53-1.32.79-1.99,1.56.07,3.04-.77,4.63-.4-.74,3.03-2.1,5.81-3.48,8.57-.62,1.25-.6,1.6,1.04,1.81,4.29.56,7.97,2.51,10.85,5.83-.42,2.83-.18,3.16,2.3,3.22,1.79,2.99,3.04,6.2,3.61,9.64.07.42.31.68.47,1.02.66.95,1.58.22,2.36.38,2.12.3,4.17-.62,6.29-.38.51.69,1.01.4,1.47-.05,1.18-1.12,1.43-3.65.52-5.1,0-.13.02-.25.08-.36.8-.08,1.85.32,2.19-.74.27-.83.4-1.82-.6-2.43,1.35-2.29,2.99-4.33,5.07-6,2.25.95,3.92-.18,3.98-2.67,1.61-.87,3.41-1.16,5.13-1.71.78-.09,1.67.5,2.34-.37Zm-39.18,41.33h-1.98c-.82.01-1.69-.37-2.43.29-2.63,0-5.26-.02-7.89-.03.02-.78-.16-1.44-1.09-1.49-1.03-.05-1.31.6-1.29,1.49-.56.52-1.24.52-1.93.44-.73-.76-1.61-.24-2.43-.3-.26,0-.52,0-.78,0-.93,0-1.87,0-2.8,0-1.04-.15-1.21.51-1.17,1.31.16,3.86-.64,7.68-.42,11.55.11,2.03-.02,4.07-.04,6.11-.75.47-1.84.71-1.84,1.82,0,.79.64,1.24,1.44,1.35.13.53.27,1.05.4,1.58-.55.6-.29,1.32-.29,2.01,0,.92,0,1.84,0,2.77,0,1.19,0,2.38,0,3.57,0,2.64,0,5.28,0,7.91,0,1.19,0,2.38-.01,3.57,0,.66,0,1.32,0,1.98,0,.66-.01,1.33-.02,1.99v1.99c-.88.11-1.52.56-1.53,1.46-.01,1.16,1.05,1.32,1.85,1.69.04,3.31.09,6.63.13,9.94-.04.13-.09.26-.13.4-.85.15-1.51.61-1.44,1.51.09,1.02.86,1.52,1.83,1.69l.13-.04c-.05,2.92.09,5.83.23,8.75.17,3.7.57,7.39.57,11.1-.38,1.25.45,2.36.4,3.57-.45,3.19.72,6.33.26,9.52-.85.15-1.46.6-1.45,1.5.02,1.14,1.08,1.27,1.84,1.67.18,2.64.35,5.29.53,7.93-.04.26-.09.53-.13.79-.8-.05-1.16.28-1.12,1.12.05,1.01.66,1.28,1.52,1.28l.13-.04c0,.8,0,1.6,0,2.4-.04.26-.09.53-.13.79-.8-.05-1.16.28-1.12,1.12.05,1.01.66,1.28,1.52,1.28,0,0,.13-.04.13-.04-.04,1.07-.09,2.14-.13,3.22-.81-.08-1.16.27-1.12,1.09.05,1.01.64,1.29,1.52,1.26v2.78c-.86.16-1.54.62-1.43,1.55.13,1.03.89,1.55,1.94,1.61.62.57,1.31-.27,1.94.08-.08.91.44,1.45,1.25,1.37,1-.1,1.67-.72,1.51-1.87,5.03-.89,10.06-1.78,15.08-2.66-.09,1.02.58,1.48,1.4,1.44,1.11-.05,1.68-.84,1.75-1.95,3.4-.88,6.86-1.4,10.33-1.87-.09,1.02.58,1.48,1.41,1.44,1.11-.05,1.68-.84,1.75-1.95.24-.62.83-.2,1.21-.42,2.25-.35,4.49-.7,6.74-1.06-.09,1.02.58,1.48,1.4,1.44,1.11-.05,1.68-.84,1.75-1.95,1.14-.52,2.38-.53,3.59-.68-.09,1.02.58,1.48,1.4,1.44,1.11-.05,1.68-.84,1.75-1.95,4.85-1.14,9.77-1.89,14.69-2.66-.09,1.02.58,1.48,1.4,1.44,1.11-.05,1.68-.84,1.75-1.95,1.72-.4,3.45-.81,5.17-1.21,1.11.33,2.09-.5,3.17-.4,1.32-.26,2.64-.53,3.96-.79.84.37,1.54-.63,2.38-.26.08.77.53,1.17,1.28,1.09.86-.09,1.36-.63,1.49-1.49,1.24-.65,2.64-.54,3.96-.79-.08.91.44,1.45,1.25,1.37,1-.1,1.67-.72,1.51-1.87,1.86-.4,3.71-.81,5.57-1.21,1.11.33,2.09-.5,3.17-.4.57.16.8-.06.8-.65,0-1.08.04-2.16.06-3.25.95.04,1.71-.35,1.83-1.3.12-.97-.68-1.08-1.43-1.08,0-.92,0-1.84,0-2.76.58-.6.29-1.33.28-2.01,0-.79,0-1.59,0-2.38,0-.92,0-1.85,0-2.77,0-1.85,0-3.69,0-5.54-.03-1.6.41-3.23-.28-4.8,0-.38.01-.75.02-1.13.67-.73.21-1.59.28-2.39.01-.69.28-1.41-.29-2.02-.04-.79-.08-1.58-.13-2.37.35-.87-.26-1.58-.4-2.37.02-3.21.24-6.43.02-9.63-.34-4.72-.75-9.43-.68-14.16.94.04,1.5-.31,1.52-1.34.02-1.15-.64-1.48-1.63-1.45-.48-3.94-.9-7.88-.7-11.86.1-.01.2-.02.3-.03.67-.33,1.36-.74,1.13-1.6-.22-.85-.93-1.21-1.81-1.18l-.13.04c-.04-2.73.08-5.44-.22-8.2-.29-2.65-.55-5.42.24-8.1.67-.33,1.36-.74,1.13-1.6-.22-.84-.92-1.22-1.81-1.16,0-2.24,0-4.47,0-6.71.66-.73.24-1.59.28-2.4,0-.66,0-1.32.01-1.98,0-.66,0-1.33.01-1.99,0-1.32,0-2.64,0-3.96-.19-1.17.54-2.44-.37-3.53-.66-.04-1.31-.07-1.97-.11.03-.89-.25-1.56-1.29-1.48-1.21.09-1.08,1.05-1.09,1.88-5.31.29-10.59,1.05-15.91,1.34-1.67.09-3.38.13-5.05.34-4.89.62-9.81.93-14.73,1.09.05-1.04-.41-1.56-1.49-1.52-1.33.05-1.3.98-1.29,1.91-12.82.58-25.62,1.64-38.46,1.71-.66,0-1.32,0-1.97,0Zm-12.32-4.07c1.08,0,2.16,0,3.24,0,4.6-.7,9.22-.29,13.83-.3-.13,1.12.69,1.29,1.45,1.28,1.02-.01,1.62-.63,1.72-1.68.75-.9.33-1.85.27-2.98-.9.47-1.6.88-2.34,1.19-.9.37-1.97.27-2.48-.42-.49-.66-1.52-1.52-.53-2.61,2.48.86,3.04.52,3.11-1.92.49-.34,1.77.5,1.55-.82-.54-3.2-1.24-6.37-1.88-9.55,1.05.05,1.57-.42,1.51-1.5-.03-.66-.28-1.12-.97-1.24-1.19-.22-1.64.46-1.8,1.49-.69.08-1.32.4-2.02.52-2.04.37-2.54.12-3.07-2.04,1.43.08,2.37-.41,2.3-2.03.81-.35,1.62-.7,2.42-1.05-1.31-2.79-2.63-5.44-5.2-7.19.17-.8.63-1.67-.44-2.2-.83-.41-1.51-.27-1.94.62-2.3-.8-4.61-1.53-7.1-1.19-.07-.86-.54-1.33-1.4-1.19-1.19.19-.97,1.16-.98,1.98-.92.78-1.83,1.57-2.75,2.35-.8-.38-1.64-.79-2.28.18-.56.86-.98,1.8.19,2.57-.52,1.13-1.04,2.27-1.56,3.41,1.24.46,2.28-.06,3.35-.24,1.38-.24,2.17.55,2.45,1.67.25,1.01-.19,2.19-1.18,2.53-.79.27-1.66.76-2.6.5.05-1.04-.41-1.56-1.49-1.52-1.33.05-1.3.98-1.29,1.92-.12.06-.24.1-.37.12-.77-.77-1.33-.39-1.53.44-.27,1.11.06,1.95,1.44,1.89,0,2.06.86,3.95,1.19,5.92.37,2.25,1.5,3.09,3.64,2.87.07,1.06-.11,2.28,1.52,2.31.01,1.15-.83,1.88-1.68,1.91-1.48.04-.47.82-.57,1.26.37.81.74,1.63,1.11,2.44,1.01.66,2.12.21,3.18.29Zm69.35-13.4c-1.02-.71-2.04-.7-3.06,0-.76.45-.09,1.49-.8,1.97-.67-.03-1.37-.01-1.56.8-.19.79-.16,1.57.76,1.97-.14,1.29-.61,2.46-1.3,3.55-.39,0-.8-.07-1.17.03-1.13.32-1.02,1.21-.75,2.03.33,1,.95.88,1.6.27.66.04,1.31.07,1.97.11.08.77.53,1.17,1.28,1.09.87-.09,1.36-.63,1.49-1.49,1.19-1.45.62-3.21.86-4.82,2.11-.2,2.24-.48,1.52-3.17.79-1.13,1.51-2.24-.76-2.39l-.08.05Zm-33.27,3.6l.04-.11c.63-.99.3-1.72-.67-2.19-.48-.24-1-.22-1.34.34-.57.94.5.98.79,1.44-1,.38-.72,1.3-.85,2.05-.78-.02-1.42.17-1.5,1.1-.07.84.06,1.57,1.11,1.68v1.19c-.78-.02-1.42.17-1.5,1.1-.07.84.06,1.57,1.11,1.68.31.73.9.79,1.61.81,1.31.03,2.58-.3,3.86-.38,5.8-.35,11.61-.58,17.41-.83,1.76-.08,2.07-.59,1.37-2.45.23-1.57-.09-2.79-1.92-3.08.58-1.72,1.55-2.07,3.49-.95.7.4.96.5,1.18-.28.54-1.95,1.21-3.88,1.55-5.86.23-1.32.23-2.61-1.26-3.68-1.67-1.19-1.45-2.58.11-3.96.22,1.27,1.06,1.05,1.92.8.79-.23.91-.84.86-1.53-.1-1.35-1.1-1.2-2.01-1.19-.36-.8-.72-1.6-1.08-2.4,1.08-.79.99-1.87.37-2.75-.47-.67-1.36-.66-2.04.03-1.79-2.03-4.14-3.05-6.7-3.67-.8-.51-1.61-.56-2.42,0-2.48.49-4.76,1.41-6.71,3.04-.74.62-1.28,1.19.14,1.71,1.7.62,1.87,1.79.98,3.24-.76-.32-1.51-.67-2.28-.96-.95-.37-1.78-.38-2.01.9-.38.03-.76.06-1.14.09-1.12-.11-2.08.09-2.41,1.34-.23.86-.49,1.78.71,2.21-.51,1.61-1.09,3.21-1.51,4.84-.58,2.27-.53,2.3,1.9,2.29,1.11,0,2.43-.22,2.78,1.15.35,1.35.08,2.69-1.52,3.27-.8,0-1.61,0-2.41,0Zm46.01,2.25c-.07-1.52-.66-2.51-2.39-2.31-.83.1-1.01-.49-1.39-1.05-.74-1.11-1.67-1.48-2.58-.1-1.67-1.29-2.12-1.12-2.35,1.02-.12,1.09-.06,2.2-.08,3.3-.67,0-1.35.06-1.45.89-.09.71.4,1.01,1.06,1.09.08.73.39,1.3,1.22,1.17,3.25-.51,6.52-.68,9.8-.8.98-.04,1.99-.26,2.91-.88-1.63-.8-3.18-1.57-4.74-2.33Zm-56.64,6.39c1.15.65,2.29.65,3.44,0,.15-2.21.14-4.45.51-6.62.32-1.87.25-3.84,1.09-5.61-.76-.74-1.56-.57-2.37-.09-.65.04-1.3.07-1.95.11-.4,0-.79,0-1.19,0-1.03-.19-1.37-.04-1.25,1.25.35,3.69,1.41,7.26,1.71,10.96Zm-42.04,125.69c.79,1.06,1.58,2.12,2.37,3.18-.66.9-.77,1.89.15,2.56.56.4,1.55.65,1.78-.61-.55-6.46-1.1-12.92-1.65-19.38-.72.44-.92,1.02-1.49,1.24-.55-.66-1.21-.62-1.69-.04-.64.77-.29,1.62.1,2.41-.42.65-.85,1.29-1.27,1.94-.52.02-1.11-.1-1.54.1-1.06.48-1.83,1.35-1.87,2.54-.03.86.54,1.45,1.54,1.31.81.44.96,1.4,1.58,1.98-1.01.51-.97,1.27-.54,2.15.6,1.21,1.58.87,2.53.62Zm-2.01-129.68c-.39.83-.77,1.71-.04,2.49.58.62,1.29.31,1.93-.06,1.34,1.41,3.13,2,4.85,2.72,1.29.84,2.68.42,4.03.28.27-.03.15-.41-.02-.63-.52-1.46-1.05-2.91-1.57-4.37.33-.47.74-.9.97-1.42.26-.6.29-1.28-.2-1.81-.51-.55-1.06-.23-1.57.06-1.4-3.07-1.37-2.86-4.82-2.46-2.24.26-4.43.91-6.7.9-1.06.48-.97,1.26-.55,2.12.59,1.21,1.57.87,2.53.62.39.52.77,1.04,1.16,1.56Z"/><path class="cls-1" d="m253.8,54.37c-.49-.02-.81-.3-1.17-.62-1.04-.93-2-.42-2.98.55-1.1,1.08-2.2,2.23-3.45,3.12-1.18.84-1.7.27-1.55-1.52,2.23-.75,3.65-2.69,5.64-3.8.98-.54,2.15-.99,3.08-.21.65.54,1.3,1.49.43,2.48Z"/><path class="cls-1" d="m173.99,46.82c-1.46.16-2.86.29-2,2.45.27.68-.49,1.13-1.03,1.51-.85-1.6-1.89-3.18-.84-5.09.65-.17,1.31-.34,1.96-.52.95.18,1.72.58,1.91,1.65Z"/><path class="cls-1" d="m158.99,81.38c-.03.58-.35,1.18-.83,1.24-2.1.29-3.84,1.66-5.96,1.85-.4-1.24.29-2.13,1.3-2.3,1.82-.31,3.59-1.09,5.49-.79Z"/><path class="cls-1" d="m264.85,222.4c-.49-.66-.34-1.51.26-1.68,1.22-.35,2.47-.54,3.7-.96.76-.26,1.35.62,1.99,1.05-1.98.54-3.87,1.4-5.94,1.59Z"/><path class="cls-1" d="m216.86,71.36c.91,1.45.66,3.98-.52,5.1-.47.44-.96.73-1.47.05.36-1.83.82-3.63,1.99-5.15Z"/><path class="cls-1" d="m169.28,232.81c2.3-.93,4.65.93,4.38,3.47-1.8-.72-3.21-1.93-4.38-3.47Z"/><path class="cls-1" d="m191.44,46.42c-1.59-.37-3.07.47-4.63.4-.02-1.5.91-2.23,2.21-2.34,1.28-.11,2.1.68,2.42,1.94Z"/><path class="cls-1" d="m160.55,221.33c1.95-.82,3.48,0,3.58,1.97.03.53,0,1.06-.01,1.59-.64-.55-1.28-1.1-1.92-1.65-.55-.64-1.1-1.27-1.65-1.91Z"/><path class="cls-1" d="m264.87,81.67c0,.15,0,.29-.01.44h-2.38c-.77-.44-1.41-1.15-2.38-1.19,0-.68.01-1.36.02-2.03.25.03.51.06.76.1.27.26.53.52.8.78.55.58,1.29.8,1.99,1.09.4.27.8.54,1.2.82Z"/><path class="cls-1" d="m257.32,224.38c.18-1.78,1.96-2.79,3.61-2.02.53.24,1.03.55,1.54.83-1.77.14-3.34,1.2-5.14,1.19Z"/><path class="cls-1" d="m227.58,59.17c-.06,2.49-1.73,3.62-3.98,2.67.97-1.43,2.51-2,3.98-2.67Z"/><path class="cls-1" d="m183.18,45.63c-1.38-.68-1.9-2.11-2.8-3.22.1-.47.52-.3.8-.42,1.94.41,2.43,1.18,2.32,3.63-.11,0-.22,0-.33,0Z"/><path class="cls-1" d="m233.53,229.14c.02-1.27.53-2.24,1.92-2.22,1.06.02,1.37.84,1.26,1.82-1.09-.1-2.06.72-3.17.4Z"/><path class="cls-1" d="m216.48,232.05c-.4-.04-.79-.09-1.19-.13.02-1.27.53-2.24,1.92-2.22,1.06.02,1.37.84,1.25,1.82-.13.04-.26.09-.4.13-.62-.22-1.12.03-1.59.4Z"/><path class="cls-1" d="m144.39,214.14c1.78-.04,3.77-.43,3.89,2.31-1.74-.03-2.96-.93-3.89-2.31Z"/><path class="cls-1" d="m279.91,217.64c-.57-1.06-.48-1.89.8-2.31.98-.13,1.89.18,2.82.41-1.08.87-2.39,1.32-3.62,1.9Z"/><path class="cls-1" d="m218.53,67.84c1,.6.87,1.59.6,2.43-.34,1.07-1.39.66-2.19.74.09-1.27.86-2.21,1.59-3.17Z"/><path class="cls-1" d="m144.78,203.43c.67-.04,1.24.1,1.52.79v1.19c-.31.72-1.01.89-1.63,1.18-.84-1.08.1-2.1.11-3.16Z"/><path class="cls-1" d="m285.01,214.53c-1.14-.29-.77-1.22-.65-1.88.16-.92.88-1.34,1.84-1.29.37,1.34-.45,2.24-1.18,3.17Z"/><path class="cls-1" d="m285.01,146.73c-1.09-.18-1.88-.74-1.83-1.92.03-.77.49-1.36,1.43-1.23l.13-.04c-.32.88.5,1.56.4,2.4-.05.26-.09.53-.14.79Z"/><path class="cls-1" d="m146.37,173.3c.81.17,1.53.38,1.52,1.45,0,1.13-.87,1.35-1.64,1.7l-.41-1.17c.36-.47.62-.97.4-1.59.04-.13.09-.26.13-.4Z"/><path class="cls-1" d="m146.76,165.77c.81.17,1.53.38,1.52,1.45,0,1.13-.87,1.35-1.64,1.7-.14-.26-.28-.52-.41-.78,0-.69.76-1.22.4-1.98.04-.13.09-.26.13-.4Z"/><path class="cls-1" d="m202.14,65.85c-2.48-.06-2.71-.39-2.3-3.22.94.95,1.8,1.95,2.3,3.22Z"/><path class="cls-1" d="m186.02,48.8c.56.42,1.3.82,1.01,1.66-.34,1.02-1.24,1.19-2.21,1.11,0-1.1.77-1.86,1.19-2.77Z"/><path class="cls-1" d="m149.55,119.78c2.01,1.2,1.98,1.93-.12,3.15-.85-1.08.11-2.1.12-3.15Z"/><path class="cls-1" d="m247.34,50.39c-1.41.08-2.47-.34-2.71-1.92,1.57-.31,2.68.05,2.71,1.92Z"/><path class="cls-1" d="m171.35,78.93c.71.11.79.59.65,1.16-.15.6-.61.79-1.18.82-.81.04-1.43-.18-1.52-1.12.7-.24,1.47-.32,2.05-.86Z"/><path class="cls-1" d="m240.21,53.56c-1.25.07-1.3-.8-1.25-1.67.06-1.04.78-1.2,1.64-1.11.38,1-.44,1.83-.39,2.78Z"/><path class="cls-1" d="m238.29,42.52c0,1.66-1.18,1.83-2.42,1.9-.43-2.21,1.01-2.04,2.42-1.9Z"/><path class="cls-1" d="m245.05,54.41c-.82-2.36-.56-2.76,1.88-2.83-.74.87-.83,2.17-1.88,2.83Z"/><path class="cls-1" d="m286.2,204.63c-1,.47-1.07-.22-1.12-.91-.07-1.07.48-1.53,1.51-1.47.12.84.22,1.67-.4,2.38Z"/><path class="cls-1" d="m148.24,145.13c.74.08,1.35.39,1.13,1.23-.22.84-.92,1.23-1.82,1.17l-.13-.4c.54-.56.45-1.28.51-1.97.1-.01.2-.02.31-.03Z"/><path class="cls-1" d="m149.15,125.72c1.59,1.17,1.55,1.97-.12,2.75-.14-.26-.28-.52-.42-.78.36-.47.64-.96.41-1.59.04-.13.09-.26.13-.39Z"/><path class="cls-1" d="m258.55,76.93c-1.07.67-2.23,1.66-2.42-.7.93-.19,1.77-.05,2.42.7Z"/><path class="cls-1" d="m283.15,96.76c0-1.99-.02-3.98-.02-5.98.74,1.97.25,4,.3,6-.09,0-.18-.01-.28-.02Z"/><path class="cls-1" d="m286.71,195.13c0-1.99,0-3.99.01-5.98.09,0,.18,0,.27.01-.08,1.99.47,4.01-.28,5.97Z"/><path class="cls-1" d="m286.99,189.17c-.09,0-.18,0-.27-.01,0-1.59,0-3.18,0-4.77.09.01.18.02.27.04,0,1.58,0,3.16,0,4.74Z"/><path class="cls-1" d="m283.53,215.74c-.93-.23-1.84-.54-2.82-.41,1.08-.92,2.15-.13,3.22.02-.13.13-.26.26-.4.4Z"/><path class="cls-1" d="m254.15,76.22c-1.06.52-2.11.53-3.17,0,1.06,0,2.11,0,3.17,0Z"/><path class="cls-1" d="m283.15,96.76c.09,0,.18.02.28.02,0,1.06,0,2.12,0,3.18-.64-1.02-.25-2.13-.28-3.2Z"/><path class="cls-1" d="m183.18,45.63c.11,0,.22,0,.33,0,0,.93,0,1.86,0,2.78-.64-.86-.22-1.85-.33-2.77Z"/><path class="cls-1" d="m208.58,76.89c-.78-.16-1.71.58-2.36-.38.77.26,1.67-.34,2.36.38Z"/><path class="cls-1" d="m176.42,237.07c.8-.52,1.61-.51,2.41,0-.8,0-1.61,0-2.41,0Z"/><path class="cls-1" d="m179.15,46.4c0,.81,0,1.61-.01,2.42-.09,0-.18-.02-.28-.04.05-.8-.37-1.65.29-2.38Z"/><path class="cls-1" d="m283.55,112.66c0-.81,0-1.62-.01-2.43.49.81.59,1.62.01,2.43Z"/><path class="cls-1" d="m240.72,50.42c0-.81,0-1.63,0-2.44.54.81.56,1.63,0,2.44Z"/><path class="cls-1" d="m236.36,49.16c.55.81.54,1.63,0,2.44,0-.81,0-1.63,0-2.44Z"/><path class="cls-1" d="m235.05,57.1c-.66.87-1.55.27-2.34.37.71-.59,1.56-.23,2.34-.37Z"/><path class="cls-1" d="m286.72,198.29c0-.8,0-1.61,0-2.41.55.81.49,1.61,0,2.41Z"/><path class="cls-1" d="m286.72,179.24c.11.13.22.27.33.4-.09.66.25,1.4-.33,1.98,0-.79,0-1.59,0-2.38Z"/><path class="cls-1" d="m144.26,210.17c0,.8,0,1.59,0,2.39-.52-.8-.51-1.59,0-2.39Z"/><path class="cls-1" d="m283.09,103.12c0-.54.01-1.09.02-1.63.75.55.18,1.39.45,2.05l-.14-.05c-.11-.12-.22-.25-.33-.37Z"/><path class="cls-1" d="m286.99,184.43c-.09-.01-.18-.03-.27-.04,0-.66,0-1.32,0-1.99.55.61.31,1.33.27,2.02Z"/><path class="cls-1" d="m178.87,48.78c.09.01.18.03.28.04,0,.66,0,1.32.01,1.98-.54-.61-.32-1.33-.29-2.02Z"/><path class="cls-1" d="m162.94,94.04c-1.82-1.17-2.54-3.26-3.96-4.77.09-.79.46-1.43,1.21-.73,1.12,1.04,2.15,2.22,3.04,3.46.41.58.06,1.39-.3,2.04Z"/><path class="cls-1" d="m265.65,86.8c-2.44-.56-4.33-2.13-6.36-3.46.92-1.38,1.85-1.01,2.58.1.37.56.55,1.15,1.39,1.05,1.72-.2,2.32.79,2.39,2.31Z"/><path class="cls-1" d="m165.27,210.17c-.49,1.38-2.08,2.24-1.87,3.95-1,.14-1.57-.45-1.54-1.31.03-1.19.81-2.06,1.87-2.54.44-.2,1.03-.08,1.54-.1Z"/><path class="cls-1" d="m167.69,97.62c-1.4-.47-2.67-1.14-3.57-2.37.12-.95.78-1.01,1.42-.69.83.4,1.97.5,2.14,1.71.06.44.01.9.01,1.36Z"/><path class="cls-1" d="m244.22,72.15c.89-.39.9-1.12.77-1.92.91,0,1.91-.16,2.01,1.19.05.69-.07,1.3-.86,1.53-.86.25-1.7.47-1.92-.8Z"/><path class="cls-1" d="m227.52,69.41c-1.45,1.46-2.88.83-4.3-.06.23-1.28,1.06-1.27,2.01-.9.77.3,1.52.64,2.28.96Z"/><path class="cls-1" d="m201.48,76.55c.09-.92-.33-1.34-1.26-1.26.16-1.03.61-1.7,1.8-1.49.69.13.94.59.97,1.24.06,1.08-.46,1.55-1.51,1.5Z"/><path class="cls-1" d="m222.08,69.44c-.34,1.29-1.09,2.39-1.7,3.55-1.2-.42-.94-1.35-.71-2.21.33-1.25,1.3-1.46,2.41-1.34Z"/><path class="cls-1" d="m162.62,206.21c.65-1.05,1.31-2.1,1.96-3.15.11-.01.22-.04.33-.06.45.97.77,1.99.02,2.92-.62.77-1.49.58-2.31.3Z"/><path class="cls-1" d="m158.2,88.38c-.83-.26-1.33-1.21-2.33-1.1-.6-.65-.71-1.32.29-1.55.78-.18,1.77-.25,1.99.92.11.56.04,1.15.06,1.73Z"/><path class="cls-1" d="m164.98,216.11c.66.92,1.33,1.85,1.99,2.77-.96.25-1.93.59-2.53-.62-.43-.87-.47-1.64.54-2.15Z"/><path class="cls-1" d="m180.05,63.88c-.7.92-1.4,1.84-2.09,2.75-1.17-.77-.75-1.71-.19-2.57.64-.97,1.48-.56,2.28-.18Z"/><path class="cls-1" d="m174.13,89.63c-.51-1-.86-2.03-.8-3.17.51-.29,1.06-.61,1.57-.06.5.53.46,1.21.2,1.81-.23.52-.64.95-.97,1.42Z"/><path class="cls-1" d="m243.9,67.83c-.56-.91-1.11-1.81-1.67-2.72.68-.69,1.57-.7,2.04-.03.61.88.71,1.96-.37,2.75Z"/><path class="cls-1" d="m161.81,84.9c.54,1,1.6,1.62,1.98,2.74-.95.24-1.93.59-2.53-.62-.42-.86-.51-1.64.55-2.12Z"/><path class="cls-1" d="m245.03,217.38c.98-.6,2.09-.41,3.16-.51-.07,1.11-.64,1.89-1.75,1.95-.83.04-1.49-.42-1.4-1.44Z"/><path class="cls-1" d="m209.34,223.72c.79-.18,1.59-.35,2.38-.53.26,0,.52.01.78.02-.08,1.11-.64,1.89-1.75,1.95-.83.04-1.49-.42-1.41-1.44Z"/><path class="cls-1" d="m195.86,226.1c.98-.6,2.09-.41,3.16-.51-.07,1.11-.64,1.89-1.75,1.95-.83.04-1.49-.42-1.4-1.44Z"/><path class="cls-1" d="m227.19,220.55c.98-.6,2.09-.41,3.16-.51-.07,1.11-.64,1.89-1.75,1.95-.83.04-1.49-.42-1.4-1.44Z"/><path class="cls-1" d="m220.45,221.74c.98-.6,2.09-.41,3.16-.51-.07,1.11-.64,1.89-1.75,1.95-.83.04-1.49-.42-1.4-1.44Z"/><path class="cls-1" d="m241.06,89.97c-.52-.26-1.05-.52-1.57-.77-.39-.74-1.07-1.42-.48-2.36,0,0,.13.05.13.05,1.83.29,2.14,1.52,1.92,3.08Z"/><path class="cls-1" d="m281.18,150.3c.22-.94-1.15-1.82-.11-2.79,1-.03,1.66.29,1.63,1.45-.02,1.03-.58,1.38-1.52,1.34Z"/><path class="cls-1" d="m246.94,89.24c.34.84-1.06,1.44-.31,2.33-.65.61-1.27.73-1.6-.27-.27-.82-.39-1.71.75-2.03.36-.1.78-.03,1.17-.03Z"/><path class="cls-1" d="m198.7,88.85c.69-1.2,2.03-1.35,3.11-1.92-.06,2.44-.62,2.78-3.11,1.92Z"/><path class="cls-1" d="m200.62,94.07c.98-.79,2.1-.41,3.17-.4-.1,1.04-.7,1.66-1.72,1.68-.76,0-1.58-.16-1.45-1.28Z"/><path class="cls-1" d="m171.61,151.47c-.79-.37-1.86-.53-1.85-1.69,0-.9.64-1.35,1.52-1.46.11.13.22.27.33.4.04.93.09,1.86.13,2.79l-.13-.05Z"/><path class="cls-1" d="m151.13,158.63c-.18.93-.35,1.85-.53,2.78-.92.1-1.35-.47-1.44-1.24-.15-1.31.98-1.51,1.84-1.92.04.13.09.26.13.39Z"/><path class="cls-1" d="m178.42,74.51c-.66.16-1.45-.13-1.98.53l-.79-.13c-.01-.93-.04-1.87,1.29-1.92,1.08-.04,1.54.47,1.49,1.52Z"/><path class="cls-1" d="m175.58,226.03c.13,1.06.63,2.06.51,3.16-1.04-.06-1.81-.57-1.94-1.61-.12-.93.56-1.39,1.43-1.55Z"/><path class="cls-1" d="m239.08,96.31c-.97-.18-1.79.65-2.78.4-.01-.94-.04-1.86,1.29-1.91,1.08-.04,1.54.47,1.49,1.52Z"/><path class="cls-1" d="m171.61,161.8c.07,1.07.78,2.07.4,3.19-.98-.17-1.75-.67-1.83-1.69-.08-.9.59-1.35,1.44-1.51Z"/><path class="cls-1" d="m151.79,144.35c.37,1-.44,1.83-.4,2.78-1.11.05-1.52-.65-1.43-1.58.1-1.04.88-1.31,1.82-1.2Z"/><path class="cls-1" d="m219.67,84.43c-.53.23-.82-.24-1.22-.41-.29-.46-1.36-.5-.79-1.44.34-.56.86-.58,1.34-.34.96.47,1.3,1.2.67,2.19Z"/><path class="cls-1" d="m173.59,197.88c.07,1.06.77,2.05.4,3.17-.76-.4-1.82-.53-1.84-1.67-.02-.9.6-1.35,1.45-1.5Z"/><path class="cls-1" d="m171.61,117.79c.23,1.1.01,2.15-.4,3.17-.8-.11-1.44-.57-1.44-1.35,0-1.11,1.08-1.34,1.84-1.82Z"/><path class="cls-1" d="m169.33,222.05c.59.7,1.01,1.58,1.93,1.95-.23,1.26-1.22,1.01-1.78.61-.92-.66-.81-1.66-.15-2.56Z"/><path class="cls-1" d="m269.61,213.01c.86-.5,1.82-.46,2.76-.51.16,1.16-.51,1.77-1.51,1.87-.81.08-1.32-.46-1.25-1.37Z"/><path class="cls-1" d="m168.57,184.4c.18-.97-.65-1.79-.4-2.78,1.07-.14,1.76.29,1.88,1.39.11,1.05-.72,1.21-1.48,1.39Z"/><path class="cls-1" d="m167.25,115.81l.14-2.38c.82-.02,1.39.21,1.52,1.16.16,1.21-.69,1.59-1.52,2.02-.04-.27-.09-.53-.13-.8Z"/><path class="cls-1" d="m178.02,229.27c.86-.5,1.82-.46,2.76-.51.16,1.16-.51,1.77-1.51,1.87-.81.08-1.32-.46-1.25-1.37Z"/><path class="cls-1" d="m154.96,96.78c.38,1-.44,1.83-.4,2.78-.84-.15-1.53-.6-1.43-1.48.11-.94.88-1.34,1.83-1.29Z"/><path class="cls-1" d="m175.32,76.95c-.05.13-.09.26-.14.4-1.38.06-1.72-.77-1.44-1.89.2-.83.76-1.21,1.53-.44.02.64.03,1.28.05,1.93Z"/><path class="cls-1" d="m194.66,63.52c-.79-.53-1.59-1.06-2.38-1.58.43-.89,1.11-1.03,1.94-.62,1.07.54.6,1.41.44,2.2Z"/><path class="cls-1" d="m168.97,197.49c.22-.8.19-1.6,0-2.41,1.09.06,2.01.47,1.77,1.71-.15.78-.84,1.34-1.77.7Z"/><path class="cls-1" d="m148.61,203.43c.25.98-.05,1.88-.4,2.78-.57.01-1.1-.03-1.12-.79v-1.19c.11-1.03.91-.73,1.52-.79Z"/><path class="cls-1" d="m277.14,93.14c-.83-.1-1.51.71-2.38.4.02-.83-.12-1.79,1.09-1.88,1.03-.08,1.31.59,1.29,1.48Z"/><path class="cls-1" d="m185.17,60.74c-.71.51-1.52.73-2.38.79,0-.82-.21-1.79.98-1.98.86-.14,1.33.33,1.4,1.19Z"/><path class="cls-1" d="m164.95,89.2c.63.81,1.26,1.62,1.89,2.43-.64.37-1.35.67-1.93.06-.73-.78-.36-1.66.04-2.49Z"/><path class="cls-1" d="m279.87,116.58c-.22-.92-.92-1.72-.68-2.76.89-.06,1.59.32,1.81,1.16.22.85-.47,1.26-1.13,1.6Z"/><path class="cls-1" d="m283.09,103.12c.11.12.22.25.33.37,0,.8,0,1.6,0,2.4-.78.02-1.37-.17-1.51-1.08-.15-.97.41-1.39,1.18-1.69Z"/><path class="cls-1" d="m252.63,83.29c-.37-.87.3-1.59.36-2.39,2.27.15,1.55,1.26.76,2.39-.37,0-.75,0-1.12,0Z"/><path class="cls-1" d="m280.67,135.62c-.22-.93-.93-1.74-.68-2.78.88-.03,1.59.33,1.81,1.18.22.86-.47,1.27-1.13,1.6Z"/><path class="cls-1" d="m149.01,195.88c.39,1.01-.44,1.84-.4,2.8-1.05-.11-1.17-.84-1.11-1.68.08-.93.73-1.11,1.5-1.12Z"/><path class="cls-1" d="m249.04,82.92c-.02,1-.2,1.94-.8,2.77-.92-.4-.95-1.17-.76-1.97.19-.82.88-.83,1.56-.8Z"/><path class="cls-1" d="m217.6,86.07c.38,1-.44,1.83-.4,2.78-1.05-.11-1.18-.84-1.11-1.68.08-.93.72-1.12,1.5-1.1Z"/><path class="cls-1" d="m281.97,207c-.32-.87.49-1.55.4-2.38.75,0,1.55.11,1.43,1.08-.12.95-.88,1.34-1.83,1.3Z"/><path class="cls-1" d="m217.21,90.03c.37,1-.44,1.83-.4,2.78-1.05-.11-1.18-.84-1.11-1.68.08-.93.72-1.12,1.5-1.1Z"/><path class="cls-1" d="m248.6,91.69c.84-.73,1.82-.44,2.78-.4-.13.86-.63,1.4-1.49,1.49-.76.08-1.2-.32-1.28-1.09Z"/><path class="cls-1" d="m168.13,205.87c-.53.79-1.06,1.58-1.59,2.37-.39-.79-.74-1.64-.1-2.41.48-.58,1.14-.62,1.69.04Z"/><path class="cls-1" d="m174.39,209.78c.62.72.5,1.56.4,2.4-.86,0-1.47-.27-1.52-1.28-.04-.83.33-1.17,1.12-1.12Z"/><path class="cls-1" d="m183.57,98.69h-2.38c-.03-.89.25-1.54,1.29-1.49.94.05,1.11.71,1.09,1.49Z"/><path class="cls-1" d="m195.14,73.78c-.02-1.57,1.02-1.93,2.3-2.03.07,1.62-.86,2.11-2.3,2.03Z"/><path class="cls-1" d="m175.71,222.46c-.04.26-.09.53-.13.79-.88.03-1.47-.25-1.52-1.26-.04-.83.31-1.18,1.12-1.09l.13-.05c.13.54.27,1.07.4,1.61Z"/><path class="cls-1" d="m262.87,214.2c.13-.04.26-.09.4-.13.76-.41,1.56-.4,2.38-.26-.13.86-.63,1.4-1.49,1.49-.76.08-1.2-.32-1.28-1.09Z"/><path class="cls-1" d="m174.78,215.33c.15.8.74,1.52.4,2.4-.86,0-1.47-.27-1.52-1.28-.04-.83.33-1.17,1.12-1.12Z"/><path class="cls-1" d="m152.58,131.27c.37,1-.44,1.82-.4,2.77-.8-.08-1.06-.56-1.13-1.32-.1-1.18.98-1.01,1.53-1.45Z"/><path class="cls-1" d="m153.04,211.03c.87-.35,1.59.26,2.38.4-.08.78-.52,1.15-1.29,1.1-.94-.06-1.11-.72-1.09-1.49Z"/><path class="cls-1" d="m171.61,130.87c0,2.65,0,5.29,0,7.94-.09,0-.19,0-.28-.01,0-2.64,0-5.28,0-7.91.09,0,.19,0,.28-.01Z"/><path class="cls-1" d="m155.35,92.02c.32.87-.49,1.55-.4,2.38-1.02-.11-1.2-.81-1.09-1.65.12-.97.91-.65,1.49-.73Z"/><path class="cls-1" d="m180,86.14c1.55.09,1.73,1.07,1.52,2.31-1.63-.03-1.45-1.25-1.52-2.31Z"/><path class="cls-1" d="m166.98,139.59c0-2.51,0-5.01,0-7.52.09,0,.18,0,.26-.01,0,2.52,0,5.03.01,7.55-.09,0-.18,0-.28-.02Z"/><path class="cls-1" d="m256.86,87.66c.17.72.1,1.39-.4,1.98-.65-.07-1.14-.38-1.06-1.09.1-.83.78-.9,1.45-.89Z"/><path class="cls-1" d="m252.63,83.29c.37,0,.75,0,1.12,0,.72,2.7.59,2.97-1.52,3.17v-.4c.67,0,1.35-.06,1.45-.89.09-.71-.4-1.01-1.06-1.09v-.79Z"/><path class="cls-1" d="m282.36,194.72c0-1.86,0-3.71,0-5.57.09,0,.18,0,.26.01,0,1.85,0,3.69,0,5.54-.09,0-.18.01-.27.02Z"/><path class="cls-1" d="m171.7,94.35c1.34-.12,2.74.51,4.01-.35.17.21.29.6.02.63-1.35.15-2.74.56-4.03-.28Z"/><path class="cls-1" d="m282.63,189.16c-.09,0-.18,0-.26-.01,0-1.6-.01-3.19-.02-4.79.69,1.56.25,3.2.28,4.8Z"/><path class="cls-1" d="m167.25,132.06c-.09,0-.18,0-.26.01,0-1.59,0-3.17,0-4.76.09,0,.18,0,.26,0,0,1.59,0,3.17,0,4.76Z"/><path class="cls-1" d="m279.19,100.73c0-1.32,0-2.64,0-3.96.1,0,.2,0,.29.02,0,1.32,0,2.64,0,3.96-.1,0-.2-.01-.3-.02Z"/><path class="cls-1" d="m279.49,96.79c-.1,0-.2-.01-.29-.02-.03-1.17-.05-2.35-.08-3.52.91,1.09.18,2.36.37,3.53Z"/><path class="cls-1" d="m209.01,93.19c1.15,0,2.29,0,3.44,0-1.15.65-2.29.65-3.44,0Z"/><path class="cls-1" d="m171.61,130.87c-.09,0-.19,0-.28.01,0-1.19,0-2.38,0-3.57.1,0,.19-.01.29-.02,0,1.19,0,2.38,0,3.57Z"/><path class="cls-1" d="m171.33,138.8c.09,0,.19,0,.28.01,0,1.19,0,2.38,0,3.57-.1,0-.19-.01-.29-.02,0-1.19,0-2.38.01-3.57Z"/><path class="cls-1" d="m259.72,78.49c.13.13.26.26.4.39,0,.68-.01,1.36-.02,2.03-.81-.7-.95-1.51-.38-2.42Z"/><path class="cls-1" d="m167.26,149.92c-.64-1.02-.25-2.13-.29-3.2.09.01.19.02.29.03,0,1.06,0,2.12,0,3.18Z"/><path class="cls-1" d="m167.25,127.3c-.09,0-.18,0-.26,0,.02-1.08-.39-2.19.28-3.21,0,1.07-.01,2.13-.02,3.2Z"/><path class="cls-1" d="m180.38,94.06c.4-.04.8-.09,1.21-.13.66.05,1.33.09,1.99.14,0,.1-.01.19-.02.29-1.06-.08-2.17.37-3.18-.29Z"/><path class="cls-1" d="m183.56,94.36c0-.1.02-.19.02-.29,1.07.07,2.21-.48,3.22.3-1.08,0-2.16,0-3.24,0Z"/><path class="cls-1" d="m252.9,80.95c-1.02,0-2.04,0-3.06,0,1.02-.7,2.04-.71,3.06,0Z"/><path class="cls-1" d="m171.61,127.3c-.1,0-.19,0-.29.02,0-.92,0-1.84,0-2.77.09-.01.19-.02.29-.03v2.78Z"/><path class="cls-1" d="m167.25,146.74c-.1,0-.19-.02-.29-.03,0-.92.01-1.85.02-2.77.09,0,.18.02.27.02,0,.93,0,1.85,0,2.78Z"/><path class="cls-1" d="m282.36,194.72c.09,0,.18-.01.27-.02,0,.92,0,1.85,0,2.77-.09,0-.18.02-.27.03,0-.93,0-1.85,0-2.78Z"/><path class="cls-1" d="m176.05,98.82c-.93.52-1.87.54-2.8,0,.93,0,1.87,0,2.8,0Z"/><path class="cls-1" d="m193.86,98.71c-.8,0-1.6,0-2.4,0,.74-.67,1.61-.28,2.43-.29,0,.1-.02.19-.04.29Z"/><path class="cls-1" d="m279.18,107.12c0-.81,0-1.61,0-2.42.09,0,.18.01.27.02-.04.81.38,1.67-.28,2.4Z"/><path class="cls-1" d="m147.09,204.23v1.19h-.79v-1.19h.79Z"/><path class="cls-1" d="m282.36,197.5c.09,0,.18-.02.27-.03,0,.79,0,1.59,0,2.38-.09,0-.18.02-.27.02,0-.79,0-1.58,0-2.38Z"/><path class="cls-1" d="m179.26,99.13c-.81-.08-1.68.31-2.43-.3.82.06,1.7-.46,2.43.3Z"/><path class="cls-1" d="m235.53,61.43c-.81,0-1.61,0-2.42,0,.81-.55,1.62-.5,2.42,0Z"/><path class="cls-1" d="m222.04,84.54c-.8.51-1.61.53-2.41,0,.8,0,1.61,0,2.41,0Z"/><path class="cls-1" d="m167.25,143.97c-.09,0-.18-.01-.27-.02,0-.79,0-1.58,0-2.37.09,0,.18.01.28.02,0,.79,0,1.59,0,2.38Z"/><path class="cls-1" d="m282.36,183.24v-2.41c.1,0,.19.02.28.03-.06.8.39,1.66-.28,2.39Z"/><path class="cls-1" d="m262.47,82.11h2.38c-.79.6-1.59.6-2.38,0Z"/><path class="cls-1" d="m171.61,148.72c-.11-.13-.22-.27-.33-.4,0-.66,0-1.33,0-1.99.11,0,.21,0,.32.01l.13,1.58c-.04.27-.09.53-.13.8Z"/><path class="cls-1" d="m214.06,80.96c-.79-.03-1.58-.06-2.37-.09.81-.48,1.6-.65,2.37.09Z"/><path class="cls-1" d="m171.61,146.34c-.11,0-.21-.01-.32-.01,0-.66.01-1.33.02-1.99.1,0,.2.01.3.02,0,.66,0,1.32,0,1.98Z"/><path class="cls-1" d="m167.25,141.59c-.09,0-.19-.01-.28-.02,0-.66,0-1.32,0-1.98.09,0,.19.01.28.01,0,.66,0,1.32,0,1.98Z"/><path class="cls-1" d="m282.37,199.87c.09,0,.18-.01.27-.02.01.69.3,1.41-.28,2.01,0-.66,0-1.33,0-1.99Z"/><path class="cls-1" d="m282.64,180.85c-.09-.01-.18-.02-.28-.03,0-.66,0-1.33,0-1.99.56.61.3,1.33.29,2.02Z"/><path class="cls-1" d="m171.61,124.52c-.1,0-.19.02-.29.03,0-.68-.26-1.4.29-2.01,0,.66,0,1.32,0,1.98Z"/><path class="cls-1" d="m167.25,115.81c.04.27.09.53.13.8-.2.39.17.99-.44,1.23.05-.69-.24-1.42.31-2.03Z"/><path class="cls-1" d="m279.46,104.72c-.09,0-.18-.02-.27-.02,0-.66,0-1.32,0-1.98.1,0,.19.02.29.03,0,.66,0,1.32-.01,1.98Z"/><path class="cls-1" d="m193.86,98.71c.02-.09.03-.19.04-.29.66,0,1.32,0,1.98,0-.01.1-.02.2-.04.3-.66,0-1.32-.01-1.98-.02Z"/><path class="cls-1" d="m195.83,98.73c.02-.1.03-.2.04-.3.66,0,1.32,0,1.97,0-.6.55-1.33.28-2.02.3Z"/><path class="cls-1" d="m279.48,102.74c-.09-.01-.19-.02-.29-.03,0-.66,0-1.32,0-1.98.1,0,.2,0,.3.02,0,.66-.01,1.33-.02,1.99Z"/><path class="cls-1" d="m171.61,144.36c-.1,0-.2-.01-.3-.02,0-.66,0-1.32.01-1.98.1,0,.19.01.29.02,0,.66,0,1.32,0,1.98Z"/><path class="cls-1" d="m206.97,200.33c-1.07.64-1.96.29-2.76-.51-1.22-1.31-1.22-2.5.42-3.9.74-.72,1.48-1.45,2.21-2.18.02-.02-.01-.12-.05-.16-.04-.04-.12-.05-.18-.08-.08-.31.05-.72-.42-.82-.32-1.05-.98-1.89-1.59-2.78-.04-.29.07-.66-.37-.77-.3-2.38-1.52-4.61-1.17-7.09.48-1.34.56-2.68,0-4.02-.37-1.11.34-2.09.4-3.14.79-.17,1.52-.37,1.52-1.42,0-.81-.46-.99-1.13-.96.48-1.85.97-3.7,1.45-5.56.53-1.19,1.05-2.38,1.58-3.56.04-.13.08-.25.11-.38.71-1.16,1.64-2.2,1.99-3.57.85-.23.66-1.42,1.52-1.65.44.57.98.59,1.48.15.73-.65.21-1.41.11-2.13.15-1.31,1.56-1.68,2.07-2.72.56.42,1.1.33,1.59-.1.45-.4.35-.79-.12-1.12.46-1.48,1.77-2.22,2.8-3.2.45.6,1.01.55,1.55.19.63-.41.22-.91.04-1.38l1.64-1.93c.24-.15.49-.31.73-.46.28.59.72,1.03,1.37.7.96-.5.55-1.48.61-2.28.01-.1.02-.21.03-.31.25-.16.51-.32.76-.48.8,1.2,1.5,1.18,1.97-.23.15-.46.24-.9.82-.89,1.86.03,1.58-1.29,1.57-2.45.12-.12.25-.25.37-.37,1.38.72,1.64-.06,1.62-1.21.55-1.19,2.05-1.3,2.72-2.36l.14.05c1.43.7,1.49-.25,1.51-1.26.01-.11.03-.23.06-.34.77-.69,1.87-.98,2.38-1.99.24-.15.49-.3.73-.46,1.22.98,1.15.02,1.19-.79,0-.11.03-.23.06-.34,1.5-1.13,3.11-2.14,4.36-3.57.11-.02.23-.04.34-.07.44.6,1.01.56,1.55.21.63-.41.23-.91.04-1.38.01-.11.03-.23.06-.34.57-.64,1.57-.75,1.97-1.59.65-.16,1.3-.32,1.95-.48,2.39.91,2.05,2.92,1.92,4.83-1.03.82-.48,1.24.4,1.58.39,4.74,1.04,9.46.88,14.23,0,1.62,0,3.23,0,4.85.19,9.75-2.07,18.94-6.36,27.66-.47.96-1.01,1.88-1.52,2.83-.44.64-1.04,1.18-1.19,1.98-.27.27-.54.54-.81.81-2.12-.26-2.18.86-1.62,2.4-.2.65-1.05.82-1.13,1.55-.95,1.04-1.91,2.08-2.86,3.13-.38.15-.75.3-1.13.45q-1.69.03-1.21,1.18c-.27.28-.54.57-.82.85-1.98,1.19-3.96,2.38-5.95,3.57-3.39,1.64-6.83,3.12-10.71,3.04-.92-.49-1.85-.51-2.77,0-1.11.35-2.07-.52-3.15-.37-1.09-.97-2.05-1.14-2.72.44-.16.25-.32.5-.48.75-1.16.05-1.46,1.29-2.36,1.7Zm9.11-15.14c1.9.09,1.56-1.28,1.57-2.42.43-.64.85-1.29,1.28-1.93,2.41.98,1.79-.86,1.9-2.03-.05-.61.29-.95.79-1.19.95.83,1.38.26,1.56-.64.11-.56.02-1.16.03-1.74,2.01-3.03,4.02-6.05,6.03-9.08,1.94.02,2.2-.41,1.5-2.43.93-1.86,1.81-3.76,2.82-5.57.65-1.17,1.93-1.51,3.02-.96,1.31.66,1.43,2.14.78,3.25-2.14,3.65-3.96,7.5-6.55,10.88-2.16.1-2.74.92-1.99,2.77-.68,1.5-1.49,2.9-2.78,3.96-2.12-.26-2.18.86-1.62,2.4-.29.38-.58.77-.87,1.15-1.61.07-1.66.13-1.07,1.21-.57.79-1.14,1.57-1.71,2.36-1.33.03-2.97-.24-1.9,2.03.11.47-.28.73-.43,1.09-.6.45-1.24.87-1.5,1.63-.29.38-.59.76-.88,1.14-.63.51-1.59.95-1.43,1.82.07.37,1.08.83,1.85.54,3.56.28,6.78-.85,9.91-2.38.98-.43,2-.78,2.82-1.5.36-.16.64-.54,1.1-.43.94.51,1.54.37,1.61-.82.05-1.01,1.14-.98,1.58-1.6.25.47.51.97,1.16.61.87-.48.9-1.32.83-2.18,1.22-1.31,2.43-2.61,3.65-3.92,1.41.52,1.02-.58,1.11-1.24.03-1.75,1.47-2.83,2.07-4.31,2.38.8.72-1.1,1.1-1.64,1.22-3.02,2.44-6.04,3.65-9.07.67,0,1.35-.06,1.45-.89.09-.71-.4-1.01-1.06-1.09l.4-1.19c.67,0,1.35-.06,1.45-.89.09-.71-.4-1.01-1.06-1.09.81-4.31,1.27-8.65,1.14-13.04.61-1.35.61-2.71,0-4.06-.19-2.93.23-5.86-.36-8.8-.24-1.21-.37-2.6.29-3.83.5-.43.64-.92-.11-1.12-.94-.26-1.05.43-1.02,1.15-1.25,1.42-2.84,2.42-4.33,3.54-.81.25-2-.67-2.42.78l-1.59.79c-.74.55-.17,1.09.02,1.62-2.4,1.97-4.77,3.99-7.22,5.9-1.54,1.2-2.83,2.74-4.64,3.6-1.87-.58-2.01-.45-2.02,2-.38.86-1.23,1.13-1.95,1.57-.65-.34-1.24-.57-1.92.06-.74.68-.08,1.31-.09,1.95-.67.9-1.45,1.69-2.35,2.35-2.56.01-3.1.55-2.37,2.38-.41,1.14-1.43,1.81-2.1,2.75-2.43-.75-1.17,1.23-1.51,2.03-2.48,3.77-4.32,7.81-5.24,12.25-.78.1-1.33.54-1.45,1.3-.11.7.4,1.01,1.05,1.08.02.99.18,1.99.04,2.95-.44,3.03.02,5.97.96,8.8.91,2.74,1.41,2.78,3.39.76.32-.32.61-.68.91-1.02.79.01,1.59.06,2.3-.4.66-.55.3-1.31.4-1.98Z"/><path class="cls-1" d="m224.06,143.58c.11-.01.22-.03.33-.06-.07.8.34,1.78-.61,2.28-.65.34-1.09-.1-1.37-.7.28-.37.57-.75.85-1.12.32-.03.69.07.79-.4Z"/><path class="cls-1" d="m203.86,172.51c.67-.03,1.13.15,1.13.96,0,1.05-.73,1.25-1.52,1.42-.35-.87.26-1.59.4-2.38Z"/><path class="cls-1" d="m212.1,155.81c.1.72.62,1.49-.11,2.13-.5.44-1.04.42-1.48-.15.06-1.04.94-1.42,1.59-1.99Z"/><path class="cls-1" d="m243.03,183.56c-.25.16-.51.32-.76.48-.56-1.54-.5-2.66,1.62-2.4.17.84-1.04,1.07-.86,1.92Z"/><path class="cls-1" d="m218.45,148.67c.15-.24.31-.49.46-.73.38-.15.75-.3,1.13-.46.18.47.59.97-.04,1.38-.54.35-1.1.4-1.55-.19Z"/><path class="cls-1" d="m214.12,152.73c.56-.19.77-1.01,1.52-.86.47.33.57.72.12,1.12-.49.43-1.03.52-1.59.1-.06-.11-.08-.23-.05-.36Z"/><path class="cls-1" d="m253.77,148.37c0-1.62,0-3.23,0-4.85.61,1.62.63,3.23,0,4.85Z"/><path class="cls-1" d="m229.92,138.79c.03-.12.06-.24.09-.36.54-.22.8-.95,1.53-.85.02,1.15-.24,1.93-1.62,1.21Z"/><path class="cls-1" d="m203.07,178.03c.55,1.34.48,2.68,0,4.02,0-1.34,0-2.68,0-4.02Z"/><path class="cls-1" d="m237.14,189.18c-.29.37-.57.74-.86,1.11-.11.03-.23.05-.35.07q-.48-1.15,1.21-1.18Z"/><path class="cls-1" d="m252.89,129.29c-.87-.34-1.43-.76-.4-1.58.38.46.61.96.4,1.58Z"/><path class="cls-1" d="m215.69,197.81c.93-.51,1.85-.49,2.77,0-.92,0-1.85,0-2.77,0Z"/><path class="cls-1" d="m252.63,84.09c.65.07,1.14.38,1.06,1.09-.1.83-.78.9-1.45.89.13-.66.26-1.32.4-1.98Z"/><path class="cls-1" d="m225.18,142.72c1.34-1.17,2.69-2.33,4.03-3.5.11-.01.22-.03.33-.06.01,1.16.29,2.48-1.57,2.45-.58,0-.66.43-.82.89-.47,1.41-1.17,1.43-1.97.23Z"/><path class="cls-1" d="m240.65,136.38c-.25.16-.51.32-.76.48-.19-.54-.75-1.08-.02-1.62.62-.08,1.46.27,1.59-.79.43-1.45,1.61-.53,2.42-.78-.03.11-.05.23-.06.34-.57,0-.97.25-1.19.79-.37.16-.65.41-.79.8-.57,0-.97.25-1.19.79Z"/><path class="cls-1" d="m219.69,154.28l-2.37,2.38c-.73-1.83-.19-2.37,2.37-2.38Z"/><path class="cls-1" d="m230.81,171.34c-.61.96-1.06,2.04-1.99,2.77-.75-1.86-.17-2.67,1.99-2.77Z"/><path class="cls-1" d="m233.51,186.72c.55-.67,1-1.47,1.99-1.57.07.86.04,1.7-.83,2.18-.64.36-.91-.14-1.16-.61Z"/><path class="cls-1" d="m213.38,187.57c.55-1.01,1.41-1.73,2.29-2.42,0,.68.01,1.35.02,2.03-.71.46-1.51.41-2.3.4Z"/><path class="cls-1" d="m229.23,166.17c.42-.86.59-1.87,1.5-2.43.7,2.02.43,2.44-1.5,2.43Z"/><path class="cls-1" d="m224.06,149.92c-.56.78-1.23,1.45-2.01,2.01,0-.65-.65-1.27.09-1.95.68-.62,1.27-.4,1.92-.06Z"/><path class="cls-1" d="m221.62,177.62c.24-.99.84-1.73,1.59-2.37,0,.58.08,1.18-.03,1.74-.18.9-.62,1.47-1.56.64Z"/><path class="cls-1" d="m228.03,146.36c-.67.67-1.35,1.33-2.02,2,.01-2.45.15-2.58,2.02-2Z"/><path class="cls-1" d="m218.93,180.84c.39-.9,1.17-1.45,1.9-2.03-.1,1.17.52,3.02-1.9,2.03Z"/><path class="cls-1" d="m215.76,184.8c.39-.9,1.16-1.45,1.89-2.03,0,1.14.33,2.51-1.57,2.42-.11-.13-.22-.26-.33-.39Z"/><path class="cls-1" d="m208.48,173.7c.35.87-.25,1.59-.4,2.38-.65-.07-1.16-.38-1.05-1.08.12-.76.67-1.2,1.45-1.3Z"/><path class="cls-1" d="m226.04,178.07c-.1,1.1-1.22,1.51-1.62,2.4-.56-1.54-.5-2.66,1.62-2.4Z"/><path class="cls-1" d="m220.78,185.19c-.4.9-1.18,1.44-1.9,2.03-1.07-2.27.57-2.01,1.9-2.03Z"/><path class="cls-1" d="m247.07,164.97c-.34-.76.39-1.3.4-1.98.65.08,1.14.38,1.06,1.09-.1.83-.78.9-1.45.89Z"/><path class="cls-1" d="m245.01,126.46c.4-.57.78-1.17,1.59-1.18.18.47.59.97-.04,1.38-.54.35-1.1.4-1.55-.21Z"/><path class="cls-1" d="m247.87,161.8c.13-.66.26-1.32.4-1.98.65.08,1.14.38,1.06,1.09-.1.83-.78.9-1.45.89Z"/><path class="cls-1" d="m215.23,159.42c-.5.68-1,1.35-1.51,2.03.34-.8-.92-2.78,1.51-2.03Z"/><path class="cls-1" d="m249.35,130.1c-.38,0-.75.02-1.13.02-.03-.72.08-1.4,1.02-1.15.75.2.61.69.11,1.12Z"/><path class="cls-1" d="m234.39,135.26c.23-.74.71-1.19,1.51-1.26-.02,1-.08,1.95-1.51,1.26Z"/><path class="cls-1" d="m242.32,175.68c.26-.62.4-1.32,1.1-1.64-.38.54,1.28,2.45-1.1,1.64Z"/><path class="cls-1" d="m249.41,146.78c0-1.35,0-2.71,0-4.06.61,1.35.61,2.71,0,4.06Z"/><path class="cls-1" d="m230.31,189.14c.28-.78.95-.79,1.61-.82-.07,1.19-.68,1.33-1.61.82Z"/><path class="cls-1" d="m239.15,181.23c-.18-.91.36-1.16,1.11-1.24-.09.66.31,1.76-1.11,1.24Z"/><path class="cls-1" d="m223.55,181.62c-.14.6-.62.88-1.07,1.21-.59-1.08-.54-1.14,1.07-1.21Z"/><path class="cls-1" d="m239.06,131.23c.22-.53.62-.78,1.19-.79-.04.81.03,1.77-1.19.79Z"/><path class="cls-1" d="m215.76,184.8c.11.13.22.26.33.39-.1.67.27,1.43-.4,1.98,0-.68-.01-1.35-.02-2.03,0-.12.03-.24.09-.35Z"/><path class="cls-1" d="m241.46,134.44c-.13,1.06-.96.72-1.59.79l1.59-.79Z"/></g></svg>