<?xml version="1.0" encoding="UTF-8"?><svg id="Calque_2" xmlns="http://www.w3.org/2000/svg" viewBox="0 0 1153.91 278.92"><defs><style>.cls-1{fill:#cd4c55;}</style></defs><g id="Calque_1-2"><path class="cls-1" d="m399.75,38.04l31.64,87.16c1.19,3.28,2.27,5.5,3.24,6.66.97,1.16,2.36,2.03,4.17,2.6l6.7,2,.14,3.06c-6.23-.14-12-.21-17.32-.21s-11.81.07-19.17.21l-.29-3.06,6.77-2c.95-.33,1.63-.7,2.03-1.11s.61-1.03.61-1.89c0-.95-.25-2.2-.75-3.74-.5-1.55-1.2-3.6-2.1-6.17l-6.7-19.1h-34.35l-7.48,19.03c-1,2.66-1.78,4.78-2.35,6.34-.57,1.57-.86,2.81-.86,3.71,0,.81.23,1.42.68,1.82.45.41,1.13.75,2.03,1.03l6.63,1.93.14,3.21c-6.75-.14-12.26-.21-16.53-.21s-9.05.07-14.32.21l-.36-3.06,7.2-2.21c1.81-.57,3.14-1.45,3.99-2.64s1.81-3.04,2.85-5.56l36.42-86.95,7.34-1.07Zm-22.74,57.94h29.36l-13.9-39.27-15.47,39.27Z"/><path class="cls-1" d="m551.81,39.54c4.47.19,8.51.29,12.12.29s8.24-.1,14.19-.29l.29,3.06-8.98,2.78c-1.1.38-1.67,1.19-1.71,2.42-.1,3.14-.14,7.08-.14,11.83v57.8c0,5.61.05,10.33.14,14.18.05,1.09.71,1.83,2,2.21l8.55,2.64.14,3.06c-6.27-.14-12.27-.21-18-.21s-11.18.07-16.64.21l-.29-3.06,8.19-2.49c1.14-.33,1.74-1.17,1.78-2.5.1-3.75.14-8.43.14-14.04v-61.72l-35.35,83.6-5.2.57-35.56-84.17v61.72c0,5.61.05,10.29.14,14.04.05,1.33.67,2.16,1.85,2.5l7.98,2.49.14,3.06c-5.66-.14-10.38-.21-14.18-.21s-8.62.07-14.75.21l-.29-3.06,8.76-2.64c1.24-.38,1.88-1.12,1.93-2.21.1-3.85.14-8.57.14-14.18v-57.8c0-4.75-.05-8.69-.14-11.83-.05-1.24-.62-2.04-1.71-2.42l-8.84-2.78-.14-3.06c6.13.19,10.98.29,14.54.29,4.09,0,8.34-.1,12.77-.29l33.09,78.18,33.02-78.18Z"/><path class="cls-1" d="m601.06,39.54c6.13.19,12.13.29,18.01.29,2.22-.1,5.82-.24,10.8-.43,4.98-.19,8.34-.29,10.07-.29,10.44,0,18.32,1.94,23.67,5.81,5.34,3.87,8.01,9.44,8.01,16.71,0,11.69-6.3,19.64-18.88,23.88,7.36,1.24,13.02,3.97,16.96,8.19,3.94,4.23,5.91,9.62,5.91,16.18,0,9.5-3.46,16.86-10.37,22.06-6.91,5.2-16.49,7.8-28.75,7.8-2.43,0-5.07-.07-7.9-.22-2.84-.14-6.02-.21-9.54-.21-5.77,0-11.67.07-17.7.21l-.29-3.06,8.77-2.64c1.19-.33,1.83-1.07,1.92-2.21.05-1.9.08-4.03.11-6.38.02-2.35.04-4.95.04-7.8v-57.8c0-2.42-.01-4.61-.04-6.56-.03-1.95-.06-3.71-.11-5.27-.05-1.24-.62-2.04-1.71-2.42l-8.84-2.78-.14-3.06Zm24.8,44.47c2.93.05,5.91.07,8.94.07,7,0,12.28-1.7,15.85-5.1,3.57-3.4,5.36-8.33,5.36-14.79,0-6.79-1.83-11.68-5.5-14.65-3.66-2.97-8.95-4.45-15.85-4.45-1.23,0-2.58.04-4.05.11-1.47.07-3.05.2-4.75.39v38.41Zm0,5.7v43.26c1.42.53,3.06.86,4.93,1,1.87.14,3.58.21,5.14.21,7.85,0,13.83-1.95,17.92-5.84,4.09-3.9,6.14-9.55,6.14-16.96s-2.07-12.91-6.21-16.5c-4.14-3.59-10.82-5.38-20.05-5.38-2.7,0-5.32.07-7.88.21Z"/><path class="cls-1" d="m721.78,117.43c0,2.85.01,5.42.04,7.7.02,2.28.06,4.35.11,6.2.05,1.47.67,2.4,1.85,2.78l7.91,2.35.22,3.06c-5.66-.14-11.31-.21-16.96-.21s-11.64.07-17.67.21l-.29-3.06,8.76-2.64c1.19-.33,1.83-1.07,1.93-2.21.05-1.9.08-4.03.11-6.38.02-2.35.04-4.95.04-7.8v-57.8c0-2.42-.01-4.61-.04-6.56-.03-1.95-.06-3.71-.11-5.27-.05-1.24-.62-2.04-1.71-2.42l-8.84-2.78-.14-3.06c6.13.19,12.12.29,17.96.29,1.15,0,2.62-.04,4.39-.11,1.78-.07,3.94-.15,6.48-.25,2.59-.1,4.75-.17,6.48-.21s3.1-.07,4.11-.07c10.95,0,19.15,2.05,24.63,6.13s8.21,10.05,8.21,17.89c0,7.08-1.88,12.82-5.64,17.21-3.76,4.4-9.49,7.78-17.19,10.15,3.03,4.56,5.83,8.97,8.38,13.22,2.55,4.25,4.93,8.15,7.12,11.69,2.19,3.54,4.2,6.66,6.02,9.37,1.82,2.71,3.52,4.85,5.09,6.41.81.81,1.62,1.51,2.42,2.1.81.6,1.65,1.08,2.53,1.46.88.38,1.81.71,2.78,1,.97.29,2.05.57,3.24.86l.22,3.14c-3.42.43-6.3.64-8.62.64-1.95,0-3.66-.05-5.14-.14-1.48-.1-2.8-.29-3.95-.57s-2.2-.65-3.14-1.11c-.94-.45-1.87-1.03-2.78-1.75-1.98-1.47-3.91-3.6-5.82-6.38-1.9-2.78-3.88-5.92-5.92-9.44-2.05-3.52-4.18-7.26-6.39-11.23-2.22-3.97-4.55-7.85-7.01-11.65-.72-1.14-1.34-2.04-1.84-2.71s-1.06-1.19-1.66-1.57c-.6-.38-1.3-.64-2.1-.78s-1.82-.24-3.07-.29l-4.98-.14v24.73Zm0-30.08c2.9.15,5.58.22,8.05.22,8.22,0,14.24-1.75,18.07-5.24,3.82-3.49,5.74-8.97,5.74-16.43s-1.83-12.5-5.49-15.82c-3.66-3.32-9.38-4.99-17.18-4.99-1.33,0-2.76.05-4.28.14-1.52.1-3.16.24-4.92.43v41.69Z"/><path class="cls-1" d="m896.87,87.28c0,16.44-4.67,29.66-14,39.66-9.33,10-22.38,15-39.13,15s-28.21-4.62-36.92-13.86c-8.71-9.24-13.07-21.75-13.07-37.52s4.69-29.44,14.06-39.02c9.38-9.57,22.38-14.36,38.99-14.36s28.28,4.48,36.99,13.44c8.71,8.95,13.07,21.18,13.07,36.67Zm-87.52.93c0,15.49,3.14,27.36,9.41,35.6,6.27,8.24,15.46,12.37,27.58,12.37s20.73-3.74,26.41-11.23c5.68-7.48,8.52-19.23,8.52-35.24,0-15.01-3.02-26.56-9.05-34.64-6.04-8.08-15.35-12.12-27.94-12.12s-21.09,3.74-26.62,11.23c-5.54,7.48-8.3,18.82-8.3,34.03Z"/><path class="cls-1" d="m969.2,46.02c-4.99-1.66-9.57-2.49-13.75-2.49-6.27,0-11.27,1.52-15,4.56-3.73,3.04-5.59,7.27-5.59,12.69,0,3.09.65,5.8,1.96,8.12,1.31,2.33,3.06,4.37,5.27,6.13,2.21,1.76,4.71,3.33,7.52,4.7,2.8,1.38,5.7,2.73,8.7,4.06,3.28,1.43,6.46,2.93,9.55,4.52,3.09,1.59,5.88,3.46,8.37,5.59,2.5,2.14,4.49,4.71,5.99,7.7,1.5,3,2.25,6.49,2.25,10.48,0,9.45-3.7,16.68-11.08,21.67-7.39,4.99-16.95,7.48-28.68,7.48-7.55,0-15.92-1.28-25.09-3.85l-.43-.57,3.49-24.23,3.21-.5,4.99,20.24c5.04,2,10.19,2.99,15.47,2.99,7.08,0,12.6-1.57,16.57-4.7,3.97-3.14,5.95-7.6,5.95-13.4,0-3.04-.64-5.71-1.93-8.02s-3.01-4.29-5.17-5.95c-2.16-1.66-4.62-3.17-7.38-4.53-2.76-1.35-5.61-2.7-8.55-4.03-3.33-1.43-6.56-2.97-9.69-4.63-3.14-1.67-5.98-3.6-8.52-5.81-2.54-2.21-4.57-4.92-6.09-8.12-1.52-3.21-2.28-6.95-2.28-11.23,0-8.6,3.6-15.25,10.8-19.95,7.2-4.7,16.12-7.05,26.76-7.05,7.51,0,15.37.88,23.59,2.64l.5.5-4.21,22.24-2.85.5-4.63-17.75Z"/><path class="cls-1" d="m1027.7,117.43c0,2.85.01,5.44.04,7.77.03,2.33.06,4.44.11,6.34.05,1.19.88,2,2.5,2.43l8.05,2.49.14,3.06c-6.13-.14-12.02-.21-17.67-.21s-11.64.07-17.67.21l-.29-3.06,8.76-2.64c1.19-.33,1.83-1.07,1.93-2.21.05-1.9.08-4.03.11-6.38.02-2.35.04-4.95.04-7.8v-57.8c0-2.42-.01-4.61-.04-6.56-.03-1.95-.06-3.71-.11-5.27-.05-1.24-.62-2.04-1.71-2.42l-8.84-2.78-.14-3.06c6.13.19,12.02.29,17.67.29s11.59-.1,17.67-.29l.29,3.06-8.84,2.64c-1.14.29-1.76,1.02-1.85,2.21-.05,1.67-.08,3.48-.11,5.45s-.04,4.12-.04,6.45v58.08Z"/><path class="cls-1" d="m1108.01,38.04l31.64,87.16c1.19,3.28,2.27,5.5,3.24,6.66.97,1.16,2.36,2.03,4.17,2.6l6.7,2,.14,3.06c-6.22-.14-12-.21-17.32-.21s-11.81.07-19.17.21l-.29-3.06,6.77-2c.95-.33,1.63-.7,2.03-1.11s.61-1.03.61-1.89c0-.95-.25-2.2-.75-3.74-.5-1.55-1.2-3.6-2.1-6.17l-6.7-19.1h-34.35l-7.48,19.03c-1,2.66-1.78,4.78-2.35,6.34-.57,1.57-.86,2.81-.86,3.71,0,.81.23,1.42.68,1.82.45.41,1.13.75,2.03,1.03l6.63,1.93.14,3.21c-6.75-.14-12.26-.21-16.53-.21s-9.05.07-14.32.21l-.36-3.06,7.2-2.21c1.81-.57,3.14-1.45,3.99-2.64s1.81-3.04,2.85-5.56l36.42-86.95,7.34-1.07Zm-22.73,57.94h29.36l-13.9-39.27-15.46,39.27Z"/><path class="cls-1" d="m618.33,214.16c0,4.13-.66,7.88-1.98,11.26-1.32,3.38-3.18,6.28-5.59,8.7-2.41,2.42-5.29,4.3-8.64,5.63-3.36,1.33-7.08,2-11.18,2h-20.74v-55.16h20.74c4.1,0,7.82.67,11.18,2,3.35,1.33,6.23,3.21,8.64,5.63,2.41,2.42,4.27,5.33,5.59,8.72,1.32,3.39,1.98,7.14,1.98,11.23Zm-8.37,0c0-3.28-.45-6.21-1.35-8.81-.9-2.6-2.17-4.8-3.82-6.61-1.65-1.81-3.65-3.18-5.99-4.13-2.34-.95-4.96-1.42-7.85-1.42h-12.52v41.94h12.52c2.89,0,5.51-.47,7.85-1.42s4.34-2.32,5.99-4.13c1.65-1.81,2.93-4,3.82-6.59.9-2.59,1.35-5.53,1.35-8.84Z"/><path class="cls-1" d="m706.09,241.73h-7.3c-1.46,0-2.52-.58-3.19-1.73l-13.64-19.13c-.44-.64-.91-1.09-1.42-1.36-.51-.27-1.28-.4-2.31-.4h-5.34v22.62h-8.18v-55.16h15.9c3.56,0,6.62.37,9.2,1.1,2.57.73,4.7,1.77,6.38,3.11s2.92,2.97,3.73,4.86c.81,1.9,1.21,4.02,1.21,6.38,0,1.92-.3,3.72-.89,5.41-.59,1.69-1.45,3.21-2.59,4.55-1.14,1.35-2.53,2.51-4.17,3.48s-3.5,1.72-5.57,2.23c1.02.62,1.91,1.47,2.65,2.57l15.52,21.47Zm-25.73-28.58c2.1,0,3.95-.26,5.55-.77,1.6-.51,2.94-1.24,4.01-2.17s1.88-2.05,2.42-3.34.81-2.72.81-4.28c0-3.17-1.04-5.57-3.13-7.18-2.09-1.61-5.22-2.42-9.39-2.42h-7.72v20.16h7.45Z"/><path class="cls-1" d="m757.49,241.73h-8.22v-55.16h8.22v55.16Z"/><path class="cls-1" d="m852.66,186.58l-22.43,55.16h-7.34l-22.43-55.16h6.53c.72,0,1.3.18,1.75.54.45.36.79.82,1.02,1.38l14.9,37.49c.36.92.71,1.93,1.06,3.03.35,1.1.66,2.25.94,3.46.26-1.2.54-2.36.85-3.46.31-1.1.64-2.11,1-3.03l14.86-37.49c.18-.51.51-.96.98-1.35.48-.38,1.06-.58,1.75-.58h6.57Z"/><path class="cls-1" d="m929.86,235.09l-.04,6.64h-34.18v-55.16h34.18v6.65h-25.96v17.47h20.89v6.41h-20.89v17.98h26Z"/><path class="cls-1" d="m271.94,111.73c22.87,46.79,3,96.41-34.04,129.11-46.63,44.15-119.66,50.53-173.65,15.88C23.56,231.14-1.51,183.27.07,135.3,1.25,70.45,49.46,12.5,113.86,2.1c23.11-3.98,46.99-2.28,69.21,4.95,7.34,2.45,14.47,5.5,21.27,9.12C162.43-2.72,111.98-.46,72.9,23.33,34.4,46.73,9.64,90.46,9.39,135.48c-1.18,79.22,66.68,140.9,145.31,133.73,30.59-2.57,57.88-15.14,80.6-35.63,35.88-30.67,54.85-76.1,36.64-121.85h0Z"/><path class="cls-1" d="m159.24,57.1c.78-1.75,1.04-3.62,1.3-5.49.54-.81.56-1.63,0-2.44.05-1.6-.75-3.12-.49-4.74,1.25-.07,2.42-.24,2.42-1.9,1-.16,1.37.55,1.56,1.28.36,1.38.59,2.78.87,4.18,0,.81,0,1.63,0,2.44-.03.12-.07.25-.12.37-.86-.09-1.59.07-1.64,1.11-.05.87,0,1.74,1.25,1.67.56.78.64.27.96-.25.75-1.23,1.17-2.64,2.08-3.8.41-.52.77-.9,1.39-1.04.24,1.57,1.3,1.99,2.71,1.92.26.53-.23.81-.41,1.19-2.44.07-2.71.47-1.88,2.83-.13.49-.27.99-.4,1.48-.15,1.79.37,2.35,1.55,1.52,1.25-.88,2.36-2.04,3.45-3.12.98-.96,1.94-1.48,2.98-.55.36.32.68.6,1.17.62.01.61-.32.98-.83,1.24-1.22.54-2.42,1.1-3.19,2.27-1.37,1.32-3.28,2.42-3.93,4.02-.61,1.5,1.35,2.98,2.08,4.5,1.4,2.89,1.66,5.98,2.23,9.01.11.59.32.77.83.81,1.06.52,2.11.52,3.17,0,.66,0,1.32,0,1.98,0,.19,2.36,1.35,1.38,2.42.7.25.28.49.57.74.85.14.24.28.47.43.71-.57.92-.43,1.72.38,2.42.97.04,1.61.75,2.38,1.19.79.6,1.59.6,2.38,0,0-.15,0-.29.01-.44,1.45.65,2.9,1.31,4.35,1.96.53.26,1.06.52,1.59.79.66.27,1.32.53,1.98.8.53.26,1.06.52,1.59.79.52.17,1.05.34,1.57.52.55.57,1.3.78,2,1.07.13.04.26.07.38.11.55.57,1.18.9,2,.69.26,0,.53,0,.79,0,.45.4.99.52,1.57.51.15.63.3,1.26.45,1.89,0,1.99.02,3.98.02,5.98.03,1.07-.36,2.18.28,3.2-.19.49-.48.96-.32,1.53,0,.54-.01,1.09-.02,1.63-.77.3-1.33.73-1.18,1.69.14.91.74,1.1,1.51,1.08.04.13.09.26.13.4,0,1.31,0,2.63-.01,3.94v2.43c-.17,5.68.55,11.33.65,16.99.09,4.65.78,9.27.42,13.93-.94-.13-1.4.47-1.43,1.23-.05,1.18.74,1.74,1.83,1.92.04,1.32.09,2.64.13,3.96-.37,1,.44,1.83.4,2.78v4.36c-.26.98.07,1.88.4,2.78-.32,5.56.64,11.09.4,16.65-.16.72-.13,1.4.4,1.98,0,.79,0,1.59,0,2.38,0,.26,0,.52-.01.78,0,.66,0,1.32,0,1.99,0,1.59,0,3.18,0,4.77,0,1.99,0,3.99-.01,5.98,0,.25,0,.5.01.75,0,.8,0,1.61,0,2.41-.04,1.32-.08,2.63-.13,3.95-1.04-.05-1.58.4-1.51,1.47.04.69.12,1.38,1.12.91,0,2.25,0,4.49,0,6.74-.95-.05-1.67.37-1.84,1.29-.12.66-.49,1.58.65,1.88-.09.63-.52.82-1.08.81-1.07-.14-2.14-.94-3.22-.02-1.28.42-1.37,1.25-.8,2.31-3.04,1.06-6.08,2.11-9.12,3.17-.63-.43-1.22-1.31-1.99-1.05-1.22.42-2.48.61-3.7.96-.6.17-.74,1.02-.26,1.68-.64.73-1.68.26-2.38.79-.51-.28-1.01-.59-1.54-.83-1.65-.76-3.42.24-3.61,2.02-1.72.44-3.44.88-5.15,1.32-1.32.27-2.64.53-3.96.8-3.16.64-6.3,1.34-9.48,1.86-.68.11-1.3.58-2.02.39.12-.98-.19-1.8-1.26-1.82-1.39-.02-1.89.94-1.92,2.22-3.62.57-7.2,1.37-10.86,1.67-.36.03-.69.29-1.04.44-1.08-.22-2.13.03-3.17.26.12-.98-.19-1.8-1.25-1.82-1.39-.02-1.89.95-1.92,2.22l-2.38.53c-4.07.63-8.13,1.33-12.22,1.87-1.76.23-3.55.2-5.23.9-3.09,0-6.09.69-9.12,1.19-1-.37-1.83.44-2.78.4h-.4c-.83-.1-1.67-.24-2.38.4h-.79c-.39-.04-.78-.09-1.17-.13-.8-.51-1.61-.52-2.41,0-1.04.16-1.88-.4-2.76-.79.28-2.53-2.07-4.4-4.38-3.47-.12-.02-.24-.05-.36-.08-.25-.98-.83-1.74-1.59-2.38.05-.59-.27-.94-.76-1.17-.57-1.36-1.34-2.57-2.41-3.59-.01-.23-.02-.47-.03-.7,0-.53.04-1.06.01-1.59-.1-1.96-1.63-2.8-3.58-1.97-.85-.3-1.38-1.19-2.34-1.29-2.62-2.05-5.85-2.34-8.91-3.14-.36-.09-.68-.3-1.02-.45-.13-2.74-2.12-2.35-3.89-2.31-.04-.53-.09-1.05-.13-1.58,0-.8,0-1.59,0-2.39.33-1.17-.39-2.46.41-3.58.62-.29,1.33-.45,1.63-1.18h.79c.02.77.55.81,1.12.79.04.93.09,1.85.13,2.78.24,2.13,1.88,1.4,3.11,1.52.58.04,1.14.11,1.59.53-.02.78.15,1.43,1.09,1.49.77.05,1.21-.32,1.29-1.1,1.09-.26,2.07.74,3.17.26,1.29-.65,1.75-1.92,2.31-3.11.57-.79,1.15-1.59,1.72-2.38.82.28,1.69.47,2.31-.3.75-.93.43-1.95-.02-2.92.55-.9,1.1-1.81,1.65-2.71.53-.22.8-.62.79-1.19.77-.3.79-1.35,1.61-1.6.94.64,1.62.08,1.77-.7.24-1.24-.68-1.65-1.77-1.71l-.13.04c.37-3.46-.54-6.88-.4-10.33.04-.13.09-.26.13-.4.77-.18,1.59-.34,1.48-1.39-.11-1.1-.81-1.53-1.88-1.39-.04-.13-.09-.26-.13-.4v-5.15c.22-.62-.03-1.12-.4-1.59.32-6.62-.6-13.21-.4-19.83.23-1.1,0-2.15-.4-3.17.14-.52.27-1.05.41-1.57,0-1.06,0-2.12,0-3.18,0-.93,0-1.85,0-2.78,0-.79,0-1.59,0-2.38,0-.66,0-1.32,0-1.98,0-2.52,0-5.03-.01-7.55,0-1.59,0-3.17,0-4.76,0-1.07.01-2.13.02-3.2-.72-2.06-.2-4.18-.33-6.27.61-.24.25-.84.44-1.23.83-.43,1.68-.8,1.52-2.02-.12-.95-.7-1.18-1.52-1.16-.27-5.28.03-10.54.31-15.81,0-.45.05-.91-.01-1.36-.17-1.21-1.32-1.31-2.14-1.71-.64-.31-1.3-.25-1.42.69l-1.19-1.2c.36-.65.71-1.46.3-2.04-.89-1.24-1.92-2.42-3.04-3.46-.76-.7-1.13-.06-1.21.73-.26-.3-.52-.6-.78-.9-.01-.58.05-1.17-.06-1.73-.22-1.17-1.21-1.09-1.99-.92-1,.23-.89.9-.29,1.55-.95,1.5-.15,3.18-.51,4.74-.58.08-1.37-.24-1.49.73-.11.84.07,1.54,1.09,1.65,0,.79,0,1.59,0,2.38-.95-.04-1.72.35-1.83,1.29-.1.88.59,1.33,1.43,1.48-.1,5.19-.77,10.35-1.03,15.52-.28,5.4-.85,10.79-.95,16.2-.54.44-1.63.27-1.53,1.45.07.76.33,1.24,1.13,1.32.37,3.46-.54,6.86-.4,10.31-.95-.11-1.72.16-1.82,1.2-.09.93.32,1.63,1.43,1.58.04,1.32.09,2.64.13,3.96.06,1.21-.78,2.32-.4,3.57-.04,1.19-.09,2.38-.13,3.58-.85.41-1.99.61-1.84,1.92.09.77.52,1.34,1.44,1.24.04.13.09.26.13.4.11,3.79-.41,7.55-.56,11.33-.11,2.73-.11,5.47-.33,8.19-.4,4.86-.81,9.71-.69,14.6l-.13-.04c-.77.01-1.43.19-1.5,1.12-.07.84.06,1.57,1.11,1.68.04.13.09.26.13.4-.04,1.45-.09,2.91-.13,4.36-.61.06-1.41-.24-1.52.79h-.79c-.28-.69-.85-.83-1.52-.79-.12-4.56.24-9.09.71-13.62.04-.39.04-.79,0-1.18-.29-3.87.61-7.69.4-11.55-.02-.28.05-.51.35-.61.77-.35,1.64-.57,1.64-1.7,0-1.07-.72-1.29-1.52-1.45.07-1.46-.48-2.96.28-4.38.77-.35,1.64-.57,1.64-1.7,0-1.07-.72-1.29-1.52-1.45-.1-4.6.24-9.17.7-13.73.15-1.49.07-3,.09-4.51.9.06,1.59-.32,1.82-1.17.22-.83-.39-1.15-1.13-1.23-.76-1.53-.11-3.18-.42-4.74,0-.69.74-1.23.4-1.98.15-3.04.31-6.08.46-9.12.02-.31-.06-.66.35-.81,1.67-.79,1.71-1.58.12-2.75,0-.94-.41-1.92.27-2.8,2.1-1.22,2.13-1.95.12-3.15-.47-3.19.72-6.33.26-9.52.62-.71.5-1.54.4-2.37,0-1.06,0-2.12,0-3.18,0-.69.74-1.23.4-1.98.29-4.8.5-9.6.91-14.39.11-1.28.1-2.64.7-3.86,2.12-.18,3.86-1.56,5.96-1.85.48-.07.8-.66.83-1.24,3.4-.76,6.82-1.41,10.31-1.59.1.93.71,1.15,1.52,1.12.57-.03,1.03-.21,1.18-.82.14-.57.06-1.05-.65-1.16-.02-2.78-.33-5.57.26-8.33.26-.79.53-1.59.79-2.38.43-1.05.86-2.11,1.3-3.16.4-.66,1.12-1.12,1.2-1.98.67-.75,1.51-1.42,1.95-2.28.55-1.07-.51-1.57-1.19-2.13-.63-.58-.74-1.57-1.58-1.99-1.17-1.9-2.28-3.83-3.12-5.91.54-.38,1.3-.83,1.03-1.51-.86-2.16.55-2.29,2-2.45,1.06,3.32,2.71,6.32,5.17,9.36,0-2.06,0-3.72,0-5.38,0-.66,0-1.32-.01-1.98,0-.81,0-1.61.01-2.42-.69-1.2-.28-2.36.1-3.53.38-.15.75-.31,1.13-.46.89,1.11,1.41,2.54,2.8,3.22.11.92-.31,1.91.33,2.77v4.31c1.07.05.85-.88,1.31-1.13.96.08,1.86-.09,2.21-1.11.28-.84-.45-1.24-1.01-1.66.26-.66.53-1.32.79-1.99,1.56.07,3.04-.77,4.63-.4-.74,3.03-2.1,5.81-3.48,8.57-.62,1.25-.6,1.6,1.04,1.81,4.29.56,7.97,2.51,10.85,5.83-.42,2.83-.18,3.16,2.3,3.22,1.79,2.99,3.04,6.2,3.61,9.64.07.42.31.68.47,1.02.66.95,1.58.22,2.36.38,2.12.3,4.17-.62,6.29-.38.51.69,1.01.4,1.47-.05,1.18-1.12,1.43-3.65.52-5.1,0-.13.02-.25.08-.36.8-.08,1.85.32,2.19-.74.27-.83.4-1.82-.6-2.43,1.35-2.29,2.99-4.33,5.07-6,2.25.95,3.92-.18,3.98-2.67,1.61-.87,3.41-1.16,5.13-1.71.78-.09,1.67.5,2.34-.37Zm-39.18,41.33h-1.98c-.82.01-1.69-.37-2.43.29-2.63,0-5.26-.02-7.89-.03.02-.78-.16-1.44-1.09-1.49-1.03-.05-1.31.6-1.29,1.49-.56.52-1.24.52-1.93.44-.73-.76-1.61-.24-2.43-.3-.26,0-.52,0-.78,0-.93,0-1.87,0-2.8,0-1.04-.15-1.21.51-1.17,1.31.16,3.86-.64,7.68-.42,11.55.11,2.03-.02,4.07-.04,6.11-.75.47-1.84.71-1.84,1.82,0,.79.64,1.24,1.44,1.35.13.53.27,1.05.4,1.58-.55.6-.29,1.32-.29,2.01,0,.92,0,1.84,0,2.77,0,1.19,0,2.38,0,3.57,0,2.64,0,5.28,0,7.91,0,1.19,0,2.38-.01,3.57,0,.66,0,1.32,0,1.98,0,.66-.01,1.33-.02,1.99v1.99c-.88.11-1.52.56-1.53,1.46-.01,1.16,1.05,1.32,1.85,1.69.04,3.31.09,6.63.13,9.94-.04.13-.09.26-.13.4-.85.15-1.51.61-1.44,1.51.09,1.02.86,1.52,1.83,1.69l.13-.04c-.05,2.92.09,5.83.23,8.75.17,3.7.57,7.39.57,11.1-.38,1.25.45,2.36.4,3.57-.45,3.19.72,6.33.26,9.52-.85.15-1.46.6-1.45,1.5.02,1.14,1.08,1.27,1.84,1.67.18,2.64.35,5.29.53,7.93-.04.26-.09.53-.13.79-.8-.05-1.16.28-1.12,1.12.05,1.01.66,1.28,1.52,1.28l.13-.04c0,.8,0,1.6,0,2.4-.04.26-.09.53-.13.79-.8-.05-1.16.28-1.12,1.12.05,1.01.66,1.28,1.52,1.28,0,0,.13-.04.13-.04-.04,1.07-.09,2.14-.13,3.22-.81-.08-1.16.27-1.12,1.09.05,1.01.64,1.29,1.52,1.26v2.78c-.86.16-1.54.62-1.43,1.55.13,1.03.89,1.55,1.94,1.61.62.57,1.31-.27,1.94.08-.08.91.44,1.45,1.25,1.37,1-.1,1.67-.72,1.51-1.87,5.03-.89,10.06-1.78,15.08-2.66-.09,1.02.58,1.48,1.4,1.44,1.11-.05,1.68-.84,1.75-1.95,3.4-.88,6.86-1.4,10.33-1.87-.09,1.02.58,1.48,1.41,1.44,1.11-.05,1.68-.84,1.75-1.95.24-.62.83-.2,1.21-.42,2.25-.35,4.49-.7,6.74-1.06-.09,1.02.58,1.48,1.4,1.44,1.11-.05,1.68-.84,1.75-1.95,1.14-.52,2.38-.53,3.59-.68-.09,1.02.58,1.48,1.4,1.44,1.11-.05,1.68-.84,1.75-1.95,4.85-1.14,9.77-1.89,14.69-2.66-.09,1.02.58,1.48,1.4,1.44,1.11-.05,1.68-.84,1.75-1.95,1.72-.4,3.45-.81,5.17-1.21,1.11.33,2.09-.5,3.17-.4,1.32-.26,2.64-.53,3.96-.79.84.37,1.54-.63,2.38-.26.08.77.53,1.17,1.28,1.09.86-.09,1.36-.63,1.49-1.49,1.24-.65,2.64-.54,3.96-.79-.08.91.44,1.45,1.25,1.37,1-.1,1.67-.72,1.51-1.87,1.86-.4,3.71-.81,5.57-1.21,1.11.33,2.09-.5,3.17-.4.57.16.8-.06.8-.65,0-1.08.04-2.16.06-3.25.95.04,1.71-.35,1.83-1.3.12-.97-.68-1.08-1.43-1.08,0-.92,0-1.84,0-2.76.58-.6.29-1.33.28-2.01,0-.79,0-1.59,0-2.38,0-.92,0-1.85,0-2.77,0-1.85,0-3.69,0-5.54-.03-1.6.41-3.23-.28-4.8,0-.38.01-.75.02-1.13.67-.73.21-1.59.28-2.39.01-.69.28-1.41-.29-2.02-.04-.79-.08-1.58-.13-2.37.35-.87-.26-1.58-.4-2.37.02-3.21.24-6.43.02-9.63-.34-4.72-.75-9.43-.68-14.16.94.04,1.5-.31,1.52-1.34.02-1.15-.64-1.48-1.63-1.45-.48-3.94-.9-7.88-.7-11.86.1-.01.2-.02.3-.03.67-.33,1.36-.74,1.13-1.6-.22-.85-.93-1.21-1.81-1.18l-.13.04c-.04-2.73.08-5.44-.22-8.2-.29-2.65-.55-5.42.24-8.1.67-.33,1.36-.74,1.13-1.6-.22-.84-.92-1.22-1.81-1.16,0-2.24,0-4.47,0-6.71.66-.73.24-1.59.28-2.4,0-.66,0-1.32.01-1.98,0-.66,0-1.33.01-1.99,0-1.32,0-2.64,0-3.96-.19-1.17.54-2.44-.37-3.53-.66-.04-1.31-.07-1.97-.11.03-.89-.25-1.56-1.29-1.48-1.21.09-1.08,1.05-1.09,1.88-5.31.29-10.59,1.05-15.91,1.34-1.67.09-3.38.13-5.05.34-4.89.62-9.81.93-14.73,1.09.05-1.04-.41-1.56-1.49-1.52-1.33.05-1.3.98-1.29,1.91-12.82.58-25.62,1.64-38.46,1.71-.66,0-1.32,0-1.97,0Zm-12.32-4.07c1.08,0,2.16,0,3.24,0,4.6-.7,9.22-.29,13.83-.3-.13,1.12.69,1.29,1.45,1.28,1.02-.01,1.62-.63,1.72-1.68.75-.9.33-1.85.27-2.98-.9.47-1.6.88-2.34,1.19-.9.37-1.97.27-2.48-.42-.49-.66-1.52-1.52-.53-2.61,2.48.86,3.04.52,3.11-1.92.49-.34,1.77.5,1.55-.82-.54-3.2-1.24-6.37-1.88-9.55,1.05.05,1.57-.42,1.51-1.5-.03-.66-.28-1.12-.97-1.24-1.19-.22-1.64.46-1.8,1.49-.69.08-1.32.4-2.02.52-2.04.37-2.54.12-3.07-2.04,1.43.08,2.37-.41,2.3-2.03.81-.35,1.62-.7,2.42-1.05-1.31-2.79-2.63-5.44-5.2-7.19.17-.8.63-1.67-.44-2.2-.83-.41-1.51-.27-1.94.62-2.3-.8-4.61-1.53-7.1-1.19-.07-.86-.54-1.33-1.4-1.19-1.19.19-.97,1.16-.98,1.98-.92.78-1.83,1.57-2.75,2.35-.8-.38-1.64-.79-2.28.18-.56.86-.98,1.8.19,2.57-.52,1.13-1.04,2.27-1.56,3.41,1.24.46,2.28-.06,3.35-.24,1.38-.24,2.17.55,2.45,1.67.25,1.01-.19,2.19-1.18,2.53-.79.27-1.66.76-2.6.5.05-1.04-.41-1.56-1.49-1.52-1.33.05-1.3.98-1.29,1.92-.12.06-.24.1-.37.12-.77-.77-1.33-.39-1.53.44-.27,1.11.06,1.95,1.44,1.89,0,2.06.86,3.95,1.19,5.92.37,2.25,1.5,3.09,3.64,2.87.07,1.06-.11,2.28,1.52,2.31.01,1.15-.83,1.88-1.68,1.91-1.48.04-.47.82-.57,1.26.37.81.74,1.63,1.11,2.44,1.01.66,2.12.21,3.18.29Zm69.35-13.4c-1.02-.71-2.04-.7-3.06,0-.76.45-.09,1.49-.8,1.97-.67-.03-1.37-.01-1.56.8-.19.79-.16,1.57.76,1.97-.14,1.29-.61,2.46-1.3,3.55-.39,0-.8-.07-1.17.03-1.13.32-1.02,1.21-.75,2.03.33,1,.95.88,1.6.27.66.04,1.31.07,1.97.11.08.77.53,1.17,1.28,1.09.87-.09,1.36-.63,1.49-1.49,1.19-1.45.62-3.21.86-4.82,2.11-.2,2.24-.48,1.52-3.17.79-1.13,1.51-2.24-.76-2.39l-.08.05Zm-33.27,3.6l.04-.11c.63-.99.3-1.72-.67-2.19-.48-.24-1-.22-1.34.34-.57.94.5.98.79,1.44-1,.38-.72,1.3-.85,2.05-.78-.02-1.42.17-1.5,1.1-.07.84.06,1.57,1.11,1.68v1.19c-.78-.02-1.42.17-1.5,1.1-.07.84.06,1.57,1.11,1.68.31.73.9.79,1.61.81,1.31.03,2.58-.3,3.86-.38,5.8-.35,11.61-.58,17.41-.83,1.76-.08,2.07-.59,1.37-2.45.23-1.57-.09-2.79-1.92-3.08.58-1.72,1.55-2.07,3.49-.95.7.4.96.5,1.18-.28.54-1.95,1.21-3.88,1.55-5.86.23-1.32.23-2.61-1.26-3.68-1.67-1.19-1.45-2.58.11-3.96.22,1.27,1.06,1.05,1.92.8.79-.23.91-.84.86-1.53-.1-1.35-1.1-1.2-2.01-1.19-.36-.8-.72-1.6-1.08-2.4,1.08-.79.99-1.87.37-2.75-.47-.67-1.36-.66-2.04.03-1.79-2.03-4.14-3.05-6.7-3.67-.8-.51-1.61-.56-2.42,0-2.48.49-4.76,1.41-6.71,3.04-.74.62-1.28,1.19.14,1.71,1.7.62,1.87,1.79.98,3.24-.76-.32-1.51-.67-2.28-.96-.95-.37-1.78-.38-2.01.9-.38.03-.76.06-1.14.09-1.12-.11-2.08.09-2.41,1.34-.23.86-.49,1.78.71,2.21-.51,1.61-1.09,3.21-1.51,4.84-.58,2.27-.53,2.3,1.9,2.29,1.11,0,2.43-.22,2.78,1.15.35,1.35.08,2.69-1.52,3.27-.8,0-1.61,0-2.41,0Zm46.01,2.25c-.07-1.52-.66-2.51-2.39-2.31-.83.1-1.01-.49-1.39-1.05-.74-1.11-1.67-1.48-2.58-.1-1.67-1.29-2.12-1.12-2.35,1.02-.12,1.09-.06,2.2-.08,3.3-.67,0-1.35.06-1.45.89-.09.71.4,1.01,1.06,1.09.08.73.39,1.3,1.22,1.17,3.25-.51,6.52-.68,9.8-.8.98-.04,1.99-.26,2.91-.88-1.63-.8-3.18-1.57-4.74-2.33Zm-56.64,6.39c1.15.65,2.29.65,3.44,0,.15-2.21.14-4.45.51-6.62.32-1.87.25-3.84,1.09-5.61-.76-.74-1.56-.57-2.37-.09-.65.04-1.3.07-1.95.11-.4,0-.79,0-1.19,0-1.03-.19-1.37-.04-1.25,1.25.35,3.69,1.41,7.26,1.71,10.96Zm-42.04,125.69c.79,1.06,1.58,2.12,2.37,3.18-.66.9-.77,1.89.15,2.56.56.4,1.55.65,1.78-.61-.55-6.46-1.1-12.92-1.65-19.38-.72.44-.92,1.02-1.49,1.24-.55-.66-1.21-.62-1.69-.04-.64.77-.29,1.62.1,2.41-.42.65-.85,1.29-1.27,1.94-.52.02-1.11-.1-1.54.1-1.06.48-1.83,1.35-1.87,2.54-.03.86.54,1.45,1.54,1.31.81.44.96,1.4,1.58,1.98-1.01.51-.97,1.27-.54,2.15.6,1.21,1.58.87,2.53.62Zm-2.01-129.68c-.39.83-.77,1.71-.04,2.49.58.62,1.29.31,1.93-.06,1.34,1.41,3.13,2,4.85,2.72,1.29.84,2.68.42,4.03.28.27-.03.15-.41-.02-.63-.52-1.46-1.05-2.91-1.57-4.37.33-.47.74-.9.97-1.42.26-.6.29-1.28-.2-1.81-.51-.55-1.06-.23-1.57.06-1.4-3.07-1.37-2.86-4.82-2.46-2.24.26-4.43.91-6.7.9-1.06.48-.97,1.26-.55,2.12.59,1.21,1.57.87,2.53.62.39.52.77,1.04,1.16,1.56Z"/><path class="cls-1" d="m177.98,54.37c-.49-.02-.81-.3-1.17-.62-1.04-.93-2-.42-2.98.55-1.1,1.08-2.2,2.23-3.45,3.12-1.18.84-1.7.27-1.55-1.52,2.23-.75,3.65-2.69,5.64-3.8.98-.54,2.15-.99,3.08-.21.65.54,1.3,1.49.43,2.48Z"/><path class="cls-1" d="m98.17,46.82c-1.46.16-2.86.29-2,2.45.27.68-.49,1.13-1.03,1.51-.85-1.6-1.89-3.18-.84-5.09.65-.17,1.31-.34,1.96-.52.95.18,1.72.58,1.91,1.65Z"/><path class="cls-1" d="m83.17,81.38c-.03.58-.35,1.18-.83,1.24-2.1.29-3.84,1.66-5.96,1.85-.4-1.24.29-2.13,1.3-2.3,1.82-.31,3.59-1.09,5.49-.79Z"/><path class="cls-1" d="m189.03,222.4c-.49-.66-.34-1.51.26-1.68,1.22-.35,2.47-.54,3.7-.96.76-.26,1.35.62,1.99,1.05-1.98.54-3.87,1.4-5.94,1.59Z"/><path class="cls-1" d="m141.05,71.36c.91,1.45.66,3.98-.52,5.1-.47.44-.96.73-1.47.05.36-1.83.82-3.63,1.99-5.15Z"/><path class="cls-1" d="m93.47,232.81c2.3-.93,4.65.93,4.38,3.47-1.8-.72-3.21-1.93-4.38-3.47Z"/><path class="cls-1" d="m115.62,46.42c-1.59-.37-3.07.47-4.63.4-.02-1.5.91-2.23,2.21-2.34,1.28-.11,2.1.68,2.42,1.94Z"/><path class="cls-1" d="m84.74,221.33c1.95-.82,3.48,0,3.58,1.97.03.53,0,1.06-.01,1.59-.64-.55-1.28-1.1-1.92-1.65-.55-.64-1.1-1.27-1.65-1.91Z"/><path class="cls-1" d="m189.05,81.67c0,.15,0,.29-.01.44h-2.38c-.77-.44-1.41-1.15-2.38-1.19,0-.68.01-1.36.02-2.03.25.03.51.06.76.1.27.26.53.52.8.78.55.58,1.29.8,1.99,1.09.4.27.8.54,1.2.82Z"/><path class="cls-1" d="m181.5,224.38c.18-1.78,1.96-2.79,3.61-2.02.53.24,1.03.55,1.54.83-1.77.14-3.34,1.2-5.14,1.19Z"/><path class="cls-1" d="m151.77,59.17c-.06,2.49-1.73,3.62-3.98,2.67.97-1.43,2.51-2,3.98-2.67Z"/><path class="cls-1" d="m107.36,45.63c-1.38-.68-1.9-2.11-2.8-3.22.1-.47.52-.3.8-.42,1.94.41,2.43,1.18,2.32,3.63-.11,0-.22,0-.33,0Z"/><path class="cls-1" d="m157.71,229.14c.02-1.27.53-2.24,1.92-2.22,1.06.02,1.37.84,1.26,1.82-1.09-.1-2.06.72-3.17.4Z"/><path class="cls-1" d="m140.66,232.05c-.4-.04-.79-.09-1.19-.13.02-1.27.53-2.24,1.92-2.22,1.06.02,1.37.84,1.25,1.82-.13.04-.26.09-.4.13-.62-.22-1.12.03-1.59.4Z"/><path class="cls-1" d="m68.57,214.14c1.78-.04,3.77-.43,3.89,2.31-1.74-.03-2.96-.93-3.89-2.31Z"/><path class="cls-1" d="m204.1,217.64c-.57-1.06-.48-1.89.8-2.31.98-.13,1.89.18,2.82.41-1.08.87-2.39,1.32-3.62,1.9Z"/><path class="cls-1" d="m142.71,67.84c1,.6.87,1.59.6,2.43-.34,1.07-1.39.66-2.19.74.09-1.27.86-2.21,1.59-3.17Z"/><path class="cls-1" d="m68.96,203.43c.67-.04,1.24.1,1.52.79v1.19c-.31.72-1.01.89-1.63,1.18-.84-1.08.1-2.1.11-3.16Z"/><path class="cls-1" d="m209.2,214.53c-1.14-.29-.77-1.22-.65-1.88.16-.92.88-1.34,1.84-1.29.37,1.34-.45,2.24-1.18,3.17Z"/><path class="cls-1" d="m209.19,146.73c-1.09-.18-1.88-.74-1.83-1.92.03-.77.49-1.36,1.43-1.23l.13-.04c-.32.88.5,1.56.4,2.4-.05.26-.09.53-.14.79Z"/><path class="cls-1" d="m70.55,173.3c.81.17,1.53.38,1.52,1.45,0,1.13-.87,1.35-1.64,1.7l-.41-1.17c.36-.47.62-.97.4-1.59.04-.13.09-.26.13-.4Z"/><path class="cls-1" d="m70.95,165.77c.81.17,1.53.38,1.52,1.45,0,1.13-.87,1.35-1.64,1.7-.14-.26-.28-.52-.41-.78,0-.69.76-1.22.4-1.98.04-.13.09-.26.13-.4Z"/><path class="cls-1" d="m126.32,65.85c-2.48-.06-2.71-.39-2.3-3.22.94.95,1.8,1.95,2.3,3.22Z"/><path class="cls-1" d="m110.2,48.8c.56.42,1.3.82,1.01,1.66-.34,1.02-1.24,1.19-2.21,1.11,0-1.1.77-1.86,1.19-2.77Z"/><path class="cls-1" d="m73.73,119.78c2.01,1.2,1.98,1.93-.12,3.15-.85-1.08.11-2.1.12-3.15Z"/><path class="cls-1" d="m171.52,50.39c-1.41.08-2.47-.34-2.71-1.92,1.57-.31,2.68.05,2.71,1.92Z"/><path class="cls-1" d="m95.53,78.93c.71.11.79.59.65,1.16-.15.6-.61.79-1.18.82-.81.04-1.43-.18-1.52-1.12.7-.24,1.47-.32,2.05-.86Z"/><path class="cls-1" d="m164.39,53.56c-1.25.07-1.3-.8-1.25-1.67.06-1.04.78-1.2,1.64-1.11.38,1-.44,1.83-.39,2.78Z"/><path class="cls-1" d="m162.47,42.52c0,1.66-1.18,1.83-2.42,1.9-.43-2.21,1.01-2.04,2.42-1.9Z"/><path class="cls-1" d="m169.23,54.41c-.82-2.36-.56-2.76,1.88-2.83-.74.87-.83,2.17-1.88,2.83Z"/><path class="cls-1" d="m210.38,204.63c-1,.47-1.07-.22-1.12-.91-.07-1.07.48-1.53,1.51-1.47.12.84.22,1.67-.4,2.38Z"/><path class="cls-1" d="m72.42,145.13c.74.08,1.35.39,1.13,1.23-.22.84-.92,1.23-1.82,1.17l-.13-.4c.54-.56.45-1.28.51-1.97.1-.01.2-.02.31-.03Z"/><path class="cls-1" d="m73.33,125.72c1.59,1.17,1.55,1.97-.12,2.75-.14-.26-.28-.52-.42-.78.36-.47.64-.96.41-1.59.04-.13.09-.26.13-.39Z"/><path class="cls-1" d="m182.74,76.93c-1.07.67-2.23,1.66-2.42-.7.93-.19,1.77-.05,2.42.7Z"/><path class="cls-1" d="m207.33,96.76c0-1.99-.02-3.98-.02-5.98.74,1.97.25,4,.3,6-.09,0-.18-.01-.28-.02Z"/><path class="cls-1" d="m210.9,195.13c0-1.99,0-3.99.01-5.98.09,0,.18,0,.27.01-.08,1.99.47,4.01-.28,5.97Z"/><path class="cls-1" d="m211.17,189.17c-.09,0-.18,0-.27-.01,0-1.59,0-3.18,0-4.77.09.01.18.02.27.04,0,1.58,0,3.16,0,4.74Z"/><path class="cls-1" d="m207.72,215.74c-.93-.23-1.84-.54-2.82-.41,1.08-.92,2.15-.13,3.22.02-.13.13-.26.26-.4.4Z"/><path class="cls-1" d="m178.33,76.22c-1.06.52-2.11.53-3.17,0,1.06,0,2.11,0,3.17,0Z"/><path class="cls-1" d="m207.33,96.76c.09,0,.18.02.28.02,0,1.06,0,2.12,0,3.18-.64-1.02-.25-2.13-.28-3.2Z"/><path class="cls-1" d="m107.36,45.63c.11,0,.22,0,.33,0,0,.93,0,1.86,0,2.78-.64-.86-.22-1.85-.33-2.77Z"/><path class="cls-1" d="m132.77,76.89c-.78-.16-1.71.58-2.36-.38.77.26,1.67-.34,2.36.38Z"/><path class="cls-1" d="m100.6,237.07c.8-.52,1.61-.51,2.41,0-.8,0-1.61,0-2.41,0Z"/><path class="cls-1" d="m103.34,46.4c0,.81,0,1.61-.01,2.42-.09,0-.18-.02-.28-.04.05-.8-.37-1.65.29-2.38Z"/><path class="cls-1" d="m207.74,112.66c0-.81,0-1.62-.01-2.43.49.81.59,1.62.01,2.43Z"/><path class="cls-1" d="m164.9,50.42c0-.81,0-1.63,0-2.44.54.81.56,1.63,0,2.44Z"/><path class="cls-1" d="m160.54,49.16c.55.81.54,1.63,0,2.44,0-.81,0-1.63,0-2.44Z"/><path class="cls-1" d="m159.24,57.1c-.66.87-1.55.27-2.34.37.71-.59,1.56-.23,2.34-.37Z"/><path class="cls-1" d="m210.9,198.29c0-.8,0-1.61,0-2.41.55.81.49,1.61,0,2.41Z"/><path class="cls-1" d="m210.91,179.24c.11.13.22.27.33.4-.09.66.25,1.4-.33,1.98,0-.79,0-1.59,0-2.38Z"/><path class="cls-1" d="m68.44,210.17c0,.8,0,1.59,0,2.39-.52-.8-.51-1.59,0-2.39Z"/><path class="cls-1" d="m207.27,103.12c0-.54.01-1.09.02-1.63.75.55.18,1.39.45,2.05l-.14-.05c-.11-.12-.22-.25-.33-.37Z"/><path class="cls-1" d="m211.18,184.43c-.09-.01-.18-.03-.27-.04,0-.66,0-1.32,0-1.99.55.61.31,1.33.27,2.02Z"/><path class="cls-1" d="m103.05,48.78c.09.01.18.03.28.04,0,.66,0,1.32.01,1.98-.54-.61-.32-1.33-.29-2.02Z"/><path class="cls-1" d="m87.12,94.04c-1.82-1.17-2.54-3.26-3.96-4.77.09-.79.46-1.43,1.21-.73,1.12,1.04,2.15,2.22,3.04,3.46.41.58.06,1.39-.3,2.04Z"/><path class="cls-1" d="m189.83,86.8c-2.44-.56-4.33-2.13-6.36-3.46.92-1.38,1.85-1.01,2.58.1.37.56.55,1.15,1.39,1.05,1.72-.2,2.32.79,2.39,2.31Z"/><path class="cls-1" d="m89.45,210.17c-.49,1.38-2.08,2.24-1.87,3.95-1,.14-1.57-.45-1.54-1.31.03-1.19.81-2.06,1.87-2.54.44-.2,1.03-.08,1.54-.1Z"/><path class="cls-1" d="m91.88,97.62c-1.4-.47-2.67-1.14-3.57-2.37.12-.95.78-1.01,1.42-.69.83.4,1.97.5,2.14,1.71.06.44.01.9.01,1.36Z"/><path class="cls-1" d="m168.4,72.15c.89-.39.9-1.12.77-1.92.91,0,1.91-.16,2.01,1.19.05.69-.07,1.3-.86,1.53-.86.25-1.7.47-1.92-.8Z"/><path class="cls-1" d="m151.7,69.41c-1.45,1.46-2.88.83-4.3-.06.23-1.28,1.06-1.27,2.01-.9.77.3,1.52.64,2.28.96Z"/><path class="cls-1" d="m125.66,76.55c.09-.92-.33-1.34-1.26-1.26.16-1.03.61-1.7,1.8-1.49.69.13.94.59.97,1.24.06,1.08-.46,1.55-1.51,1.5Z"/><path class="cls-1" d="m146.27,69.44c-.34,1.29-1.09,2.39-1.7,3.55-1.2-.42-.94-1.35-.71-2.21.33-1.25,1.3-1.46,2.41-1.34Z"/><path class="cls-1" d="m86.81,206.21c.65-1.05,1.31-2.1,1.96-3.15.11-.01.22-.04.33-.06.45.97.77,1.99.02,2.92-.62.77-1.49.58-2.31.3Z"/><path class="cls-1" d="m82.38,88.38c-.83-.26-1.33-1.21-2.33-1.1-.6-.65-.71-1.32.29-1.55.78-.18,1.77-.25,1.99.92.11.56.04,1.15.06,1.73Z"/><path class="cls-1" d="m89.16,216.11c.66.92,1.33,1.85,1.99,2.77-.96.25-1.93.59-2.53-.62-.43-.87-.47-1.64.54-2.15Z"/><path class="cls-1" d="m104.23,63.88c-.7.92-1.4,1.84-2.09,2.75-1.17-.77-.75-1.71-.19-2.57.64-.97,1.48-.56,2.28-.18Z"/><path class="cls-1" d="m98.31,89.63c-.51-1-.86-2.03-.8-3.17.51-.29,1.06-.61,1.57-.06.5.53.46,1.21.2,1.81-.23.52-.64.95-.97,1.42Z"/><path class="cls-1" d="m168.09,67.83c-.56-.91-1.11-1.81-1.67-2.72.68-.69,1.57-.7,2.04-.03.61.88.71,1.96-.37,2.75Z"/><path class="cls-1" d="m86,84.9c.54,1,1.6,1.62,1.98,2.74-.95.24-1.93.59-2.53-.62-.42-.86-.51-1.64.55-2.12Z"/><path class="cls-1" d="m169.21,217.38c.98-.6,2.09-.41,3.16-.51-.07,1.11-.64,1.89-1.75,1.95-.83.04-1.49-.42-1.4-1.44Z"/><path class="cls-1" d="m133.53,223.72c.79-.18,1.59-.35,2.38-.53.26,0,.52.01.78.02-.08,1.11-.64,1.89-1.75,1.95-.83.04-1.49-.42-1.41-1.44Z"/><path class="cls-1" d="m120.05,226.1c.98-.6,2.09-.41,3.16-.51-.07,1.11-.64,1.89-1.75,1.95-.83.04-1.49-.42-1.4-1.44Z"/><path class="cls-1" d="m151.37,220.55c.98-.6,2.09-.41,3.16-.51-.07,1.11-.64,1.89-1.75,1.95-.83.04-1.49-.42-1.4-1.44Z"/><path class="cls-1" d="m144.63,221.74c.98-.6,2.09-.41,3.16-.51-.07,1.11-.64,1.89-1.75,1.95-.83.04-1.49-.42-1.4-1.44Z"/><path class="cls-1" d="m165.25,89.97c-.52-.26-1.05-.52-1.57-.77-.39-.74-1.07-1.42-.48-2.36,0,0,.13.05.13.05,1.83.29,2.14,1.52,1.92,3.08Z"/><path class="cls-1" d="m205.36,150.3c.22-.94-1.15-1.82-.11-2.79,1-.03,1.66.29,1.63,1.45-.02,1.03-.58,1.38-1.52,1.34Z"/><path class="cls-1" d="m171.13,89.24c.34.84-1.06,1.44-.31,2.33-.65.61-1.27.73-1.6-.27-.27-.82-.39-1.71.75-2.03.36-.1.78-.03,1.17-.03Z"/><path class="cls-1" d="m122.89,88.85c.69-1.2,2.03-1.35,3.11-1.92-.06,2.44-.62,2.78-3.11,1.92Z"/><path class="cls-1" d="m124.8,94.07c.98-.79,2.1-.41,3.17-.4-.1,1.04-.7,1.66-1.72,1.68-.76,0-1.58-.16-1.45-1.28Z"/><path class="cls-1" d="m95.79,151.47c-.79-.37-1.86-.53-1.85-1.69,0-.9.64-1.35,1.52-1.46.11.13.22.27.33.4.04.93.09,1.86.13,2.79l-.13-.05Z"/><path class="cls-1" d="m75.31,158.63c-.18.93-.35,1.85-.53,2.78-.92.1-1.35-.47-1.44-1.24-.15-1.31.98-1.51,1.84-1.92.04.13.09.26.13.39Z"/><path class="cls-1" d="m102.6,74.51c-.66.16-1.45-.13-1.98.53l-.79-.13c-.01-.93-.04-1.87,1.29-1.92,1.08-.04,1.54.47,1.49,1.52Z"/><path class="cls-1" d="m99.76,226.03c.13,1.06.63,2.06.51,3.16-1.04-.06-1.81-.57-1.94-1.61-.12-.93.56-1.39,1.43-1.55Z"/><path class="cls-1" d="m163.26,96.31c-.97-.18-1.79.65-2.78.4-.01-.94-.04-1.86,1.29-1.91,1.08-.04,1.54.47,1.49,1.52Z"/><path class="cls-1" d="m95.79,161.8c.07,1.07.78,2.07.4,3.19-.98-.17-1.75-.67-1.83-1.69-.08-.9.59-1.35,1.44-1.51Z"/><path class="cls-1" d="m75.97,144.35c.37,1-.44,1.83-.4,2.78-1.11.05-1.52-.65-1.43-1.58.1-1.04.88-1.31,1.82-1.2Z"/><path class="cls-1" d="m143.86,84.43c-.53.23-.82-.24-1.22-.41-.29-.46-1.36-.5-.79-1.44.34-.56.86-.58,1.34-.34.96.47,1.3,1.2.67,2.19Z"/><path class="cls-1" d="m97.78,197.88c.07,1.06.77,2.05.4,3.17-.76-.4-1.82-.53-1.84-1.67-.02-.9.6-1.35,1.45-1.5Z"/><path class="cls-1" d="m95.79,117.79c.23,1.1.01,2.15-.4,3.17-.8-.11-1.44-.57-1.44-1.35,0-1.11,1.08-1.34,1.84-1.82Z"/><path class="cls-1" d="m93.52,222.05c.59.7,1.01,1.58,1.93,1.95-.23,1.26-1.22,1.01-1.78.61-.92-.66-.81-1.66-.15-2.56Z"/><path class="cls-1" d="m193.79,213.01c.86-.5,1.82-.46,2.76-.51.16,1.16-.51,1.77-1.51,1.87-.81.08-1.32-.46-1.25-1.37Z"/><path class="cls-1" d="m92.75,184.4c.18-.97-.65-1.79-.4-2.78,1.07-.14,1.76.29,1.88,1.39.11,1.05-.72,1.21-1.48,1.39Z"/><path class="cls-1" d="m91.43,115.81l.14-2.38c.82-.02,1.39.21,1.52,1.16.16,1.21-.69,1.59-1.52,2.02-.04-.27-.09-.53-.13-.8Z"/><path class="cls-1" d="m102.2,229.27c.86-.5,1.82-.46,2.76-.51.16,1.16-.51,1.77-1.51,1.87-.81.08-1.32-.46-1.25-1.37Z"/><path class="cls-1" d="m79.14,96.78c.38,1-.44,1.83-.4,2.78-.84-.15-1.53-.6-1.43-1.48.11-.94.88-1.34,1.83-1.29Z"/><path class="cls-1" d="m99.5,76.95c-.05.13-.09.26-.14.4-1.38.06-1.72-.77-1.44-1.89.2-.83.76-1.21,1.53-.44.02.64.03,1.28.05,1.93Z"/><path class="cls-1" d="m118.84,63.52c-.79-.53-1.59-1.06-2.38-1.58.43-.89,1.11-1.03,1.94-.62,1.07.54.6,1.41.44,2.2Z"/><path class="cls-1" d="m93.15,197.49c.22-.8.19-1.6,0-2.41,1.09.06,2.01.47,1.77,1.71-.15.78-.84,1.34-1.77.7Z"/><path class="cls-1" d="m72.8,203.43c.25.98-.05,1.88-.4,2.78-.57.01-1.1-.03-1.12-.79v-1.19c.11-1.03.91-.73,1.52-.79Z"/><path class="cls-1" d="m201.33,93.14c-.83-.1-1.51.71-2.38.4.02-.83-.12-1.79,1.09-1.88,1.03-.08,1.31.59,1.29,1.48Z"/><path class="cls-1" d="m109.36,60.74c-.71.51-1.52.73-2.38.79,0-.82-.21-1.79.98-1.98.86-.14,1.33.33,1.4,1.19Z"/><path class="cls-1" d="m89.14,89.2c.63.81,1.26,1.62,1.89,2.43-.64.37-1.35.67-1.93.06-.73-.78-.36-1.66.04-2.49Z"/><path class="cls-1" d="m204.06,116.58c-.22-.92-.92-1.72-.68-2.76.89-.06,1.59.32,1.81,1.16.22.85-.47,1.26-1.13,1.6Z"/><path class="cls-1" d="m207.27,103.12c.11.12.22.25.33.37,0,.8,0,1.6,0,2.4-.78.02-1.37-.17-1.51-1.08-.15-.97.41-1.39,1.18-1.69Z"/><path class="cls-1" d="m176.81,83.29c-.37-.87.3-1.59.36-2.39,2.27.15,1.55,1.26.76,2.39-.37,0-.75,0-1.12,0Z"/><path class="cls-1" d="m204.85,135.62c-.22-.93-.93-1.74-.68-2.78.88-.03,1.59.33,1.81,1.18.22.86-.47,1.27-1.13,1.6Z"/><path class="cls-1" d="m73.19,195.88c.39,1.01-.44,1.84-.4,2.8-1.05-.11-1.17-.84-1.11-1.68.08-.93.73-1.11,1.5-1.12Z"/><path class="cls-1" d="m173.23,82.92c-.02,1-.2,1.94-.8,2.77-.92-.4-.95-1.17-.76-1.97.19-.82.88-.83,1.56-.8Z"/><path class="cls-1" d="m141.79,86.07c.38,1-.44,1.83-.4,2.78-1.05-.11-1.18-.84-1.11-1.68.08-.93.72-1.12,1.5-1.1Z"/><path class="cls-1" d="m206.15,207c-.32-.87.49-1.55.4-2.38.75,0,1.55.11,1.43,1.08-.12.95-.88,1.34-1.83,1.3Z"/><path class="cls-1" d="m141.39,90.04c.37,1-.44,1.83-.4,2.78-1.05-.11-1.18-.84-1.11-1.68.08-.93.72-1.12,1.5-1.1Z"/><path class="cls-1" d="m172.78,91.69c.84-.73,1.82-.44,2.78-.4-.13.86-.63,1.4-1.49,1.49-.76.08-1.2-.32-1.28-1.09Z"/><path class="cls-1" d="m92.31,205.87c-.53.79-1.06,1.58-1.59,2.37-.39-.79-.74-1.64-.1-2.41.48-.58,1.14-.62,1.69.04Z"/><path class="cls-1" d="m98.57,209.78c.62.72.5,1.56.4,2.4-.86,0-1.47-.27-1.52-1.28-.04-.83.33-1.17,1.12-1.12Z"/><path class="cls-1" d="m107.76,98.69h-2.38c-.03-.89.25-1.54,1.29-1.49.94.05,1.11.71,1.09,1.49Z"/><path class="cls-1" d="m119.32,73.78c-.02-1.57,1.02-1.93,2.3-2.03.07,1.62-.86,2.11-2.3,2.03Z"/><path class="cls-1" d="m99.89,222.46c-.04.26-.09.53-.13.79-.88.03-1.47-.25-1.52-1.26-.04-.83.31-1.18,1.12-1.09l.13-.05c.13.54.27,1.07.4,1.61Z"/><path class="cls-1" d="m187.05,214.2c.13-.04.26-.09.4-.13.76-.41,1.56-.4,2.38-.26-.13.86-.63,1.4-1.49,1.49-.76.08-1.2-.32-1.28-1.09Z"/><path class="cls-1" d="m98.97,215.33c.15.8.74,1.52.4,2.4-.86,0-1.47-.27-1.52-1.28-.04-.83.33-1.17,1.12-1.12Z"/><path class="cls-1" d="m76.76,131.27c.37,1-.44,1.82-.4,2.77-.8-.08-1.06-.56-1.13-1.32-.1-1.18.98-1.01,1.53-1.45Z"/><path class="cls-1" d="m77.22,211.03c.87-.35,1.59.26,2.38.4-.08.78-.52,1.15-1.29,1.1-.94-.06-1.11-.72-1.09-1.49Z"/><path class="cls-1" d="m95.79,130.87c0,2.65,0,5.29,0,7.94-.09,0-.19,0-.28-.01,0-2.64,0-5.28,0-7.91.09,0,.19,0,.28-.01Z"/><path class="cls-1" d="m79.54,92.02c.32.87-.49,1.55-.4,2.38-1.02-.11-1.2-.81-1.09-1.65.12-.97.91-.65,1.49-.73Z"/><path class="cls-1" d="m104.19,86.14c1.55.09,1.73,1.07,1.52,2.31-1.63-.03-1.45-1.25-1.52-2.31Z"/><path class="cls-1" d="m91.17,139.59c0-2.51,0-5.01,0-7.52.09,0,.18,0,.26-.01,0,2.52,0,5.03.01,7.55-.09,0-.18,0-.28-.02Z"/><path class="cls-1" d="m181.04,87.66c.17.72.1,1.39-.4,1.98-.65-.07-1.14-.38-1.06-1.09.1-.83.78-.9,1.45-.89Z"/><path class="cls-1" d="m176.81,83.29c.37,0,.75,0,1.12,0,.72,2.7.59,2.97-1.52,3.17v-.4c.67,0,1.35-.06,1.45-.89.09-.71-.4-1.01-1.06-1.09v-.79Z"/><path class="cls-1" d="m206.54,194.72c0-1.86,0-3.71,0-5.57.09,0,.18,0,.26.01,0,1.85,0,3.69,0,5.54-.09,0-.18.01-.27.02Z"/><path class="cls-1" d="m95.88,94.35c1.34-.12,2.74.51,4.01-.35.17.21.29.6.02.63-1.35.15-2.74.56-4.03-.28Z"/><path class="cls-1" d="m206.81,189.16c-.09,0-.18,0-.26-.01,0-1.6-.01-3.19-.02-4.79.69,1.56.25,3.2.28,4.8Z"/><path class="cls-1" d="m91.43,132.06c-.09,0-.18,0-.26.01,0-1.59,0-3.17,0-4.76.09,0,.18,0,.26,0,0,1.59,0,3.17,0,4.76Z"/><path class="cls-1" d="m203.38,100.73c0-1.32,0-2.64,0-3.96.1,0,.2,0,.29.02,0,1.32,0,2.64,0,3.96-.1,0-.2-.01-.3-.02Z"/><path class="cls-1" d="m203.67,96.79c-.1,0-.2-.01-.29-.02-.03-1.17-.05-2.35-.08-3.52.91,1.09.18,2.36.37,3.53Z"/><path class="cls-1" d="m133.19,93.19c1.15,0,2.29,0,3.44,0-1.15.65-2.29.65-3.44,0Z"/><path class="cls-1" d="m95.79,130.87c-.09,0-.19,0-.28.01,0-1.19,0-2.38,0-3.57.1,0,.19-.01.29-.02,0,1.19,0,2.38,0,3.57Z"/><path class="cls-1" d="m95.52,138.8c.09,0,.19,0,.28.01,0,1.19,0,2.38,0,3.57-.1,0-.19-.01-.29-.02,0-1.19,0-2.38.01-3.57Z"/><path class="cls-1" d="m183.9,78.49c.13.13.26.26.4.39,0,.68-.01,1.36-.02,2.03-.81-.7-.95-1.51-.38-2.42Z"/><path class="cls-1" d="m91.44,149.92c-.64-1.02-.25-2.13-.29-3.2.09.01.19.02.29.03,0,1.06,0,2.12,0,3.18Z"/><path class="cls-1" d="m91.43,127.3c-.09,0-.18,0-.26,0,.02-1.08-.39-2.19.28-3.21,0,1.07-.01,2.13-.02,3.2Z"/><path class="cls-1" d="m104.57,94.06c.4-.04.8-.09,1.21-.13.66.05,1.33.09,1.99.14,0,.1-.01.19-.02.29-1.06-.08-2.17.37-3.18-.29Z"/><path class="cls-1" d="m107.74,94.36c0-.1.02-.19.02-.29,1.07.07,2.21-.48,3.22.3-1.08,0-2.16,0-3.24,0Z"/><path class="cls-1" d="m177.09,80.95c-1.02,0-2.04,0-3.06,0,1.02-.7,2.04-.71,3.06,0Z"/><path class="cls-1" d="m95.8,127.3c-.1,0-.19,0-.29.02,0-.92,0-1.84,0-2.77.09-.01.19-.02.29-.03v2.78Z"/><path class="cls-1" d="m91.43,146.74c-.1,0-.19-.02-.29-.03,0-.92.01-1.85.02-2.77.09,0,.18.02.27.02,0,.93,0,1.85,0,2.78Z"/><path class="cls-1" d="m206.54,194.72c.09,0,.18-.01.27-.02,0,.92,0,1.85,0,2.77-.09,0-.18.02-.27.03,0-.93,0-1.85,0-2.78Z"/><path class="cls-1" d="m100.24,98.82c-.93.52-1.87.54-2.8,0,.93,0,1.87,0,2.8,0Z"/><path class="cls-1" d="m118.04,98.71c-.8,0-1.6,0-2.4,0,.74-.67,1.61-.28,2.43-.29,0,.1-.02.19-.04.29Z"/><path class="cls-1" d="m203.37,107.12c0-.81,0-1.61,0-2.42.09,0,.18.01.27.02-.04.81.38,1.67-.28,2.4Z"/><path class="cls-1" d="m71.28,204.23v1.19h-.79v-1.19h.79Z"/><path class="cls-1" d="m206.55,197.5c.09,0,.18-.02.27-.03,0,.79,0,1.59,0,2.38-.09,0-.18.02-.27.02,0-.79,0-1.58,0-2.38Z"/><path class="cls-1" d="m103.44,99.13c-.81-.08-1.68.31-2.43-.3.82.06,1.7-.46,2.43.3Z"/><path class="cls-1" d="m159.71,61.43c-.81,0-1.61,0-2.42,0,.81-.55,1.62-.5,2.42,0Z"/><path class="cls-1" d="m146.22,84.54c-.8.51-1.61.53-2.41,0,.8,0,1.61,0,2.41,0Z"/><path class="cls-1" d="m91.43,143.97c-.09,0-.18-.01-.27-.02,0-.79,0-1.58,0-2.37.09,0,.18.01.28.02,0,.79,0,1.59,0,2.38Z"/><path class="cls-1" d="m206.55,183.24v-2.41c.1,0,.19.02.28.03-.06.8.39,1.66-.28,2.39Z"/><path class="cls-1" d="m186.66,82.11h2.38c-.79.6-1.59.6-2.38,0Z"/><path class="cls-1" d="m95.79,148.72c-.11-.13-.22-.27-.33-.4,0-.66,0-1.33,0-1.99.11,0,.21,0,.32.01l.13,1.58c-.04.27-.09.53-.13.8Z"/><path class="cls-1" d="m138.24,80.96c-.79-.03-1.58-.06-2.37-.09.81-.48,1.6-.65,2.37.09Z"/><path class="cls-1" d="m95.8,146.34c-.11,0-.21-.01-.32-.01,0-.66.01-1.33.02-1.99.1,0,.2.01.3.02,0,.66,0,1.32,0,1.98Z"/><path class="cls-1" d="m91.44,141.59c-.09,0-.19-.01-.28-.02,0-.66,0-1.32,0-1.98.09,0,.19.01.28.01,0,.66,0,1.32,0,1.98Z"/><path class="cls-1" d="m206.55,199.87c.09,0,.18-.01.27-.02.01.69.3,1.41-.28,2.01,0-.66,0-1.33,0-1.99Z"/><path class="cls-1" d="m206.83,180.85c-.09-.01-.18-.02-.28-.03,0-.66,0-1.33,0-1.99.56.61.3,1.33.29,2.02Z"/><path class="cls-1" d="m95.79,124.52c-.1,0-.19.02-.29.03,0-.68-.26-1.4.29-2.01,0,.66,0,1.32,0,1.98Z"/><path class="cls-1" d="m91.43,115.81c.04.27.09.53.13.8-.2.39.17.99-.44,1.23.05-.69-.24-1.42.31-2.03Z"/><path class="cls-1" d="m203.65,104.72c-.09,0-.18-.02-.27-.02,0-.66,0-1.32,0-1.98.1,0,.19.02.29.03,0,.66,0,1.32-.01,1.98Z"/><path class="cls-1" d="m118.04,98.71c.02-.09.03-.19.04-.29.66,0,1.32,0,1.98,0-.01.1-.02.2-.04.3-.66,0-1.32-.01-1.98-.02Z"/><path class="cls-1" d="m120.02,98.73c.02-.1.03-.2.04-.3.66,0,1.32,0,1.97,0-.6.55-1.33.28-2.02.3Z"/><path class="cls-1" d="m203.66,102.74c-.09-.01-.19-.02-.29-.03,0-.66,0-1.32,0-1.98.1,0,.2,0,.3.02,0,.66-.01,1.33-.02,1.99Z"/><path class="cls-1" d="m95.8,144.36c-.1,0-.2-.01-.3-.02,0-.66,0-1.32.01-1.98.1,0,.19.01.29.02,0,.66,0,1.32,0,1.98Z"/><path class="cls-1" d="m131.15,200.33c-1.07.64-1.96.29-2.76-.51-1.22-1.31-1.22-2.5.42-3.9.74-.72,1.48-1.45,2.21-2.18.02-.02-.01-.12-.05-.16-.04-.04-.12-.05-.18-.08-.08-.31.05-.72-.42-.82-.32-1.05-.98-1.89-1.59-2.78-.04-.29.07-.66-.37-.77-.3-2.38-1.52-4.61-1.17-7.09.48-1.34.56-2.68,0-4.02-.37-1.11.34-2.09.4-3.14.79-.17,1.52-.37,1.52-1.42,0-.81-.46-.99-1.13-.96.48-1.85.97-3.7,1.45-5.56.53-1.19,1.05-2.38,1.58-3.56.04-.13.08-.25.11-.38.71-1.16,1.64-2.2,1.99-3.57.85-.23.66-1.42,1.52-1.65.44.57.98.59,1.48.15.73-.65.21-1.41.11-2.13.15-1.31,1.56-1.68,2.07-2.72.56.42,1.1.33,1.59-.1.45-.4.35-.79-.12-1.12.46-1.48,1.77-2.22,2.8-3.2.45.6,1.01.55,1.55.19.63-.41.22-.91.04-1.38l1.64-1.93c.24-.15.49-.31.73-.46.28.59.72,1.03,1.37.7.96-.5.55-1.48.61-2.28.01-.1.02-.21.03-.31.25-.16.51-.32.76-.48.8,1.2,1.5,1.18,1.97-.23.15-.46.24-.9.82-.89,1.86.03,1.58-1.29,1.57-2.45.12-.12.25-.25.37-.37,1.38.72,1.64-.06,1.62-1.21.55-1.19,2.05-1.3,2.72-2.36l.14.05c1.43.7,1.49-.25,1.51-1.26.01-.11.03-.23.06-.34.77-.69,1.87-.98,2.38-1.99.24-.15.49-.3.73-.46,1.22.98,1.15.02,1.19-.79,0-.11.03-.23.06-.34,1.5-1.13,3.11-2.14,4.36-3.57.11-.02.23-.04.34-.07.44.6,1.01.56,1.55.21.63-.41.23-.91.04-1.38.01-.11.03-.23.06-.34.57-.64,1.57-.75,1.97-1.59.65-.16,1.3-.32,1.95-.48,2.39.91,2.05,2.92,1.92,4.83-1.03.82-.48,1.24.4,1.58.39,4.74,1.04,9.46.88,14.23,0,1.62,0,3.23,0,4.85.19,9.75-2.07,18.94-6.36,27.66-.47.96-1.01,1.88-1.52,2.83-.44.64-1.04,1.18-1.19,1.98-.27.27-.54.54-.81.81-2.12-.26-2.18.86-1.62,2.4-.2.65-1.05.82-1.13,1.55-.95,1.04-1.91,2.08-2.86,3.13-.38.15-.75.3-1.13.45q-1.69.03-1.21,1.18c-.27.28-.54.57-.82.85-1.98,1.19-3.96,2.38-5.95,3.57-3.39,1.64-6.83,3.12-10.71,3.04-.92-.49-1.85-.51-2.77,0-1.11.35-2.07-.52-3.15-.37-1.09-.97-2.05-1.14-2.72.44-.16.25-.32.5-.48.75-1.16.05-1.46,1.29-2.36,1.7Zm9.11-15.14c1.9.09,1.56-1.28,1.57-2.42.43-.64.85-1.29,1.28-1.93,2.41.98,1.79-.86,1.9-2.03-.05-.61.29-.95.79-1.19.95.83,1.38.26,1.56-.64.11-.56.02-1.16.03-1.74,2.01-3.03,4.02-6.05,6.03-9.08,1.94.02,2.2-.41,1.5-2.43.93-1.86,1.81-3.76,2.82-5.57.65-1.17,1.93-1.51,3.02-.96,1.31.66,1.43,2.14.78,3.25-2.14,3.65-3.96,7.5-6.55,10.88-2.16.1-2.74.92-1.99,2.77-.68,1.5-1.49,2.9-2.78,3.96-2.12-.26-2.18.86-1.62,2.4-.29.38-.58.77-.87,1.15-1.61.07-1.66.13-1.07,1.21-.57.79-1.14,1.57-1.71,2.36-1.33.03-2.97-.24-1.9,2.03.11.47-.28.73-.43,1.09-.6.45-1.24.87-1.5,1.63-.29.38-.59.76-.88,1.14-.63.51-1.59.95-1.43,1.82.07.37,1.08.83,1.85.54,3.56.28,6.78-.85,9.91-2.38.98-.43,2-.78,2.82-1.5.36-.16.64-.54,1.1-.43.94.51,1.54.37,1.61-.82.05-1.01,1.14-.98,1.58-1.6.25.47.51.97,1.16.61.87-.48.9-1.32.83-2.18,1.22-1.31,2.43-2.61,3.65-3.92,1.41.52,1.02-.58,1.11-1.24.03-1.75,1.47-2.83,2.07-4.31,2.38.8.72-1.1,1.1-1.64,1.22-3.02,2.44-6.04,3.65-9.07.67,0,1.35-.06,1.45-.89.09-.71-.4-1.01-1.06-1.09l.4-1.19c.67,0,1.35-.06,1.45-.89.09-.71-.4-1.01-1.06-1.09.81-4.31,1.27-8.65,1.14-13.04.61-1.35.61-2.71,0-4.06-.19-2.93.23-5.86-.36-8.8-.24-1.21-.37-2.6.29-3.83.5-.43.64-.92-.11-1.12-.94-.26-1.05.43-1.02,1.15-1.25,1.42-2.84,2.42-4.33,3.54-.81.25-2-.67-2.42.78l-1.59.79c-.74.55-.17,1.09.02,1.62-2.4,1.97-4.77,3.99-7.22,5.9-1.54,1.2-2.83,2.74-4.64,3.6-1.87-.58-2.01-.45-2.02,2-.38.86-1.23,1.13-1.95,1.57-.65-.34-1.24-.57-1.92.06-.74.68-.08,1.31-.09,1.95-.67.9-1.45,1.69-2.35,2.35-2.56.01-3.1.55-2.37,2.38-.41,1.14-1.43,1.81-2.1,2.75-2.43-.75-1.17,1.23-1.51,2.03-2.48,3.77-4.32,7.81-5.24,12.25-.78.1-1.33.54-1.45,1.3-.11.7.4,1.01,1.05,1.08.02.99.18,1.99.04,2.95-.44,3.03.02,5.97.96,8.8.91,2.74,1.41,2.78,3.39.76.32-.32.61-.68.91-1.02.79.01,1.59.06,2.3-.4.66-.55.3-1.31.4-1.98Z"/><path class="cls-1" d="m148.24,143.58c.11-.01.22-.03.33-.06-.07.8.34,1.78-.61,2.28-.65.34-1.09-.1-1.37-.7.28-.37.57-.75.85-1.12.32-.03.69.07.79-.4Z"/><path class="cls-1" d="m128.04,172.51c.67-.03,1.13.15,1.13.96,0,1.05-.73,1.25-1.52,1.42-.35-.87.26-1.59.4-2.38Z"/><path class="cls-1" d="m136.29,155.81c.1.72.62,1.49-.11,2.13-.5.44-1.04.42-1.48-.15.06-1.04.94-1.42,1.59-1.99Z"/><path class="cls-1" d="m167.21,183.56c-.25.16-.51.32-.76.48-.56-1.54-.5-2.66,1.62-2.4.17.84-1.04,1.07-.86,1.92Z"/><path class="cls-1" d="m142.63,148.67c.15-.24.31-.49.46-.73.38-.15.75-.3,1.13-.46.18.47.59.97-.04,1.38-.54.35-1.1.4-1.55-.19Z"/><path class="cls-1" d="m138.3,152.73c.56-.19.77-1.01,1.52-.86.47.33.57.72.12,1.12-.49.43-1.03.52-1.59.1-.06-.11-.08-.23-.05-.36Z"/><path class="cls-1" d="m177.95,148.37c0-1.62,0-3.23,0-4.85.61,1.62.63,3.23,0,4.85Z"/><path class="cls-1" d="m154.1,138.79c.03-.12.06-.24.09-.36.54-.22.8-.95,1.53-.85.02,1.15-.24,1.93-1.62,1.21Z"/><path class="cls-1" d="m127.25,178.03c.55,1.34.48,2.68,0,4.02,0-1.34,0-2.68,0-4.02Z"/><path class="cls-1" d="m161.33,189.18c-.29.37-.57.74-.86,1.11-.11.03-.23.05-.35.07q-.48-1.15,1.21-1.18Z"/><path class="cls-1" d="m177.08,129.29c-.87-.34-1.43-.76-.4-1.58.38.46.61.96.4,1.58Z"/><path class="cls-1" d="m139.87,197.81c.93-.51,1.85-.49,2.77,0-.92,0-1.85,0-2.77,0Z"/><path class="cls-1" d="m176.81,84.09c.65.07,1.14.38,1.06,1.09-.1.83-.78.9-1.45.89.13-.66.26-1.32.4-1.98Z"/><path class="cls-1" d="m149.37,142.72c1.34-1.17,2.69-2.33,4.03-3.5.11-.01.22-.03.33-.06.01,1.16.29,2.48-1.57,2.45-.58,0-.66.43-.82.89-.47,1.41-1.17,1.43-1.97.23Z"/><path class="cls-1" d="m164.83,136.38c-.25.16-.51.32-.76.48-.19-.54-.75-1.08-.02-1.62.62-.08,1.46.27,1.59-.79.43-1.45,1.61-.53,2.42-.78-.03.11-.05.23-.06.34-.57,0-.97.25-1.19.79-.37.16-.65.41-.79.8-.57,0-.97.25-1.19.79Z"/><path class="cls-1" d="m143.88,154.28l-2.37,2.38c-.73-1.83-.19-2.37,2.37-2.38Z"/><path class="cls-1" d="m154.99,171.34c-.61.96-1.06,2.04-1.99,2.77-.75-1.86-.17-2.67,1.99-2.77Z"/><path class="cls-1" d="m157.69,186.72c.55-.67,1-1.47,1.99-1.57.07.86.04,1.7-.83,2.18-.64.36-.91-.14-1.16-.61Z"/><path class="cls-1" d="m137.57,187.57c.55-1.01,1.41-1.73,2.29-2.42,0,.68.01,1.35.02,2.03-.71.46-1.51.41-2.3.4Z"/><path class="cls-1" d="m153.42,166.17c.42-.86.59-1.87,1.5-2.43.7,2.02.43,2.44-1.5,2.43Z"/><path class="cls-1" d="m148.24,149.92c-.56.78-1.23,1.45-2.01,2.01,0-.65-.65-1.27.09-1.95.68-.62,1.27-.4,1.92-.06Z"/><path class="cls-1" d="m145.8,177.62c.24-.99.84-1.73,1.59-2.37,0,.58.08,1.18-.03,1.74-.18.9-.62,1.47-1.56.64Z"/><path class="cls-1" d="m152.21,146.36c-.67.67-1.35,1.33-2.02,2,.01-2.45.15-2.58,2.02-2Z"/><path class="cls-1" d="m143.11,180.84c.39-.9,1.17-1.45,1.9-2.03-.1,1.17.52,3.02-1.9,2.03Z"/><path class="cls-1" d="m139.94,184.8c.39-.9,1.16-1.45,1.89-2.03,0,1.14.33,2.51-1.57,2.42-.11-.13-.22-.26-.33-.39Z"/><path class="cls-1" d="m132.67,173.7c.35.87-.25,1.59-.4,2.38-.65-.07-1.16-.38-1.05-1.08.12-.76.67-1.2,1.45-1.3Z"/><path class="cls-1" d="m150.23,178.07c-.1,1.1-1.22,1.51-1.62,2.4-.56-1.54-.5-2.66,1.62-2.4Z"/><path class="cls-1" d="m144.96,185.19c-.4.9-1.18,1.44-1.9,2.03-1.07-2.27.57-2.01,1.9-2.03Z"/><path class="cls-1" d="m171.26,164.97c-.34-.76.39-1.3.4-1.98.65.08,1.14.38,1.06,1.09-.1.83-.78.9-1.45.89Z"/><path class="cls-1" d="m169.19,126.46c.4-.57.78-1.17,1.59-1.18.18.47.59.97-.04,1.38-.54.35-1.1.4-1.55-.21Z"/><path class="cls-1" d="m172.05,161.8c.13-.66.26-1.32.4-1.98.65.08,1.14.38,1.06,1.09-.1.83-.78.9-1.45.89Z"/><path class="cls-1" d="m139.41,159.42c-.5.68-1,1.35-1.51,2.03.34-.8-.92-2.78,1.51-2.03Z"/><path class="cls-1" d="m173.53,130.1c-.38,0-.75.02-1.13.02-.03-.72.08-1.4,1.02-1.15.75.2.61.69.11,1.12Z"/><path class="cls-1" d="m158.57,135.26c.23-.74.71-1.19,1.51-1.26-.02,1-.08,1.95-1.51,1.26Z"/><path class="cls-1" d="m166.5,175.68c.26-.62.4-1.32,1.1-1.64-.38.54,1.28,2.45-1.1,1.64Z"/><path class="cls-1" d="m173.59,146.78c0-1.35,0-2.71,0-4.06.61,1.35.61,2.71,0,4.06Z"/><path class="cls-1" d="m154.5,189.14c.28-.78.95-.79,1.61-.82-.07,1.19-.68,1.33-1.61.82Z"/><path class="cls-1" d="m163.33,181.23c-.18-.91.36-1.16,1.11-1.24-.09.66.31,1.76-1.11,1.24Z"/><path class="cls-1" d="m147.74,181.62c-.14.6-.62.88-1.07,1.21-.59-1.08-.54-1.14,1.07-1.21Z"/><path class="cls-1" d="m163.25,131.23c.22-.53.62-.78,1.19-.79-.04.81.03,1.77-1.19.79Z"/><path class="cls-1" d="m139.94,184.8c.11.13.22.26.33.39-.1.67.27,1.43-.4,1.98,0-.68-.01-1.35-.02-2.03,0-.12.03-.24.09-.35Z"/><path class="cls-1" d="m165.64,134.44c-.13,1.06-.96.72-1.59.79l1.59-.79Z"/></g></svg>